%TF.GenerationSoftware,KiCad,Pcbnew,(6.0.4)*%
%TF.CreationDate,2023-07-24T12:57:32-04:00*%
%TF.ProjectId,BREAD_Slice,42524541-445f-4536-9c69-63652e6b6963,rev?*%
%TF.SameCoordinates,Original*%
%TF.FileFunction,Legend,Bot*%
%TF.FilePolarity,Positive*%
%FSLAX46Y46*%
G04 Gerber Fmt 4.6, Leading zero omitted, Abs format (unit mm)*
G04 Created by KiCad (PCBNEW (6.0.4)) date 2023-07-24 12:57:32*
%MOMM*%
%LPD*%
G01*
G04 APERTURE LIST*
%ADD10C,0.150000*%
%ADD11C,0.120000*%
G04 APERTURE END LIST*
D10*
%TO.C,C2*%
X154580142Y-115677333D02*
X154627761Y-115629714D01*
X154675380Y-115486857D01*
X154675380Y-115391619D01*
X154627761Y-115248761D01*
X154532523Y-115153523D01*
X154437285Y-115105904D01*
X154246809Y-115058285D01*
X154103952Y-115058285D01*
X153913476Y-115105904D01*
X153818238Y-115153523D01*
X153723000Y-115248761D01*
X153675380Y-115391619D01*
X153675380Y-115486857D01*
X153723000Y-115629714D01*
X153770619Y-115677333D01*
X153770619Y-116058285D02*
X153723000Y-116105904D01*
X153675380Y-116201142D01*
X153675380Y-116439238D01*
X153723000Y-116534476D01*
X153770619Y-116582095D01*
X153865857Y-116629714D01*
X153961095Y-116629714D01*
X154103952Y-116582095D01*
X154675380Y-116010666D01*
X154675380Y-116629714D01*
%TO.C,C1*%
X150643142Y-83198333D02*
X150690761Y-83150714D01*
X150738380Y-83007857D01*
X150738380Y-82912619D01*
X150690761Y-82769761D01*
X150595523Y-82674523D01*
X150500285Y-82626904D01*
X150309809Y-82579285D01*
X150166952Y-82579285D01*
X149976476Y-82626904D01*
X149881238Y-82674523D01*
X149786000Y-82769761D01*
X149738380Y-82912619D01*
X149738380Y-83007857D01*
X149786000Y-83150714D01*
X149833619Y-83198333D01*
X150738380Y-84150714D02*
X150738380Y-83579285D01*
X150738380Y-83865000D02*
X149738380Y-83865000D01*
X149881238Y-83769761D01*
X149976476Y-83674523D01*
X150024095Y-83579285D01*
%TO.C,U1*%
X176955904Y-118801380D02*
X176955904Y-119610904D01*
X176908285Y-119706142D01*
X176860666Y-119753761D01*
X176765428Y-119801380D01*
X176574952Y-119801380D01*
X176479714Y-119753761D01*
X176432095Y-119706142D01*
X176384476Y-119610904D01*
X176384476Y-118801380D01*
X175384476Y-119801380D02*
X175955904Y-119801380D01*
X175670190Y-119801380D02*
X175670190Y-118801380D01*
X175765428Y-118944238D01*
X175860666Y-119039476D01*
X175955904Y-119087095D01*
%TO.C,U2*%
X176574904Y-75494380D02*
X176574904Y-76303904D01*
X176527285Y-76399142D01*
X176479666Y-76446761D01*
X176384428Y-76494380D01*
X176193952Y-76494380D01*
X176098714Y-76446761D01*
X176051095Y-76399142D01*
X176003476Y-76303904D01*
X176003476Y-75494380D01*
X175574904Y-75589619D02*
X175527285Y-75542000D01*
X175432047Y-75494380D01*
X175193952Y-75494380D01*
X175098714Y-75542000D01*
X175051095Y-75589619D01*
X175003476Y-75684857D01*
X175003476Y-75780095D01*
X175051095Y-75922952D01*
X175622523Y-76494380D01*
X175003476Y-76494380D01*
%TO.C,U3*%
X176320904Y-98481380D02*
X176320904Y-99290904D01*
X176273285Y-99386142D01*
X176225666Y-99433761D01*
X176130428Y-99481380D01*
X175939952Y-99481380D01*
X175844714Y-99433761D01*
X175797095Y-99386142D01*
X175749476Y-99290904D01*
X175749476Y-98481380D01*
X175368523Y-98481380D02*
X174749476Y-98481380D01*
X175082809Y-98862333D01*
X174939952Y-98862333D01*
X174844714Y-98909952D01*
X174797095Y-98957571D01*
X174749476Y-99052809D01*
X174749476Y-99290904D01*
X174797095Y-99386142D01*
X174844714Y-99433761D01*
X174939952Y-99481380D01*
X175225666Y-99481380D01*
X175320904Y-99433761D01*
X175368523Y-99386142D01*
%TO.C,U4*%
X176574904Y-52126380D02*
X176574904Y-52935904D01*
X176527285Y-53031142D01*
X176479666Y-53078761D01*
X176384428Y-53126380D01*
X176193952Y-53126380D01*
X176098714Y-53078761D01*
X176051095Y-53031142D01*
X176003476Y-52935904D01*
X176003476Y-52126380D01*
X175098714Y-52459714D02*
X175098714Y-53126380D01*
X175336809Y-52078761D02*
X175574904Y-52793047D01*
X174955857Y-52793047D01*
%TO.C,C2*%
X155293000Y-111814000D02*
X155293000Y-109804000D01*
X153153000Y-111844000D02*
X153153000Y-109834000D01*
%TO.C,C1*%
X151356000Y-87365000D02*
X151356000Y-89375000D01*
X149216000Y-87395000D02*
X149216000Y-89405000D01*
D11*
%TO.C,U1*%
X172334000Y-130709000D02*
X172334000Y-130454000D01*
X176194000Y-120189000D02*
X180054000Y-120189000D01*
X180054000Y-130709000D02*
X180054000Y-130454000D01*
X180054000Y-120444000D02*
X181869000Y-120444000D01*
X176194000Y-130709000D02*
X180054000Y-130709000D01*
X172334000Y-120189000D02*
X172334000Y-120444000D01*
X176194000Y-130709000D02*
X172334000Y-130709000D01*
X176194000Y-120189000D02*
X172334000Y-120189000D01*
X180054000Y-120189000D02*
X180054000Y-120444000D01*
%TO.C,U2*%
X179673000Y-76882000D02*
X179673000Y-77137000D01*
X171953000Y-76882000D02*
X171953000Y-77137000D01*
X171953000Y-87402000D02*
X171953000Y-87147000D01*
X179673000Y-87402000D02*
X179673000Y-87147000D01*
X175813000Y-76882000D02*
X171953000Y-76882000D01*
X175813000Y-76882000D02*
X179673000Y-76882000D01*
X179673000Y-77137000D02*
X181488000Y-77137000D01*
X175813000Y-87402000D02*
X179673000Y-87402000D01*
X175813000Y-87402000D02*
X171953000Y-87402000D01*
%TO.C,U3*%
X171699000Y-110389000D02*
X171699000Y-110134000D01*
X171699000Y-99869000D02*
X171699000Y-100124000D01*
X179419000Y-100124000D02*
X181234000Y-100124000D01*
X175559000Y-99869000D02*
X179419000Y-99869000D01*
X179419000Y-99869000D02*
X179419000Y-100124000D01*
X175559000Y-110389000D02*
X179419000Y-110389000D01*
X179419000Y-110389000D02*
X179419000Y-110134000D01*
X175559000Y-110389000D02*
X171699000Y-110389000D01*
X175559000Y-99869000D02*
X171699000Y-99869000D01*
%TO.C,U4*%
X171953000Y-64034000D02*
X171953000Y-63779000D01*
X171953000Y-53514000D02*
X171953000Y-53769000D01*
X179673000Y-53514000D02*
X179673000Y-53769000D01*
X175813000Y-53514000D02*
X171953000Y-53514000D01*
X179673000Y-64034000D02*
X179673000Y-63779000D01*
X175813000Y-64034000D02*
X179673000Y-64034000D01*
X179673000Y-53769000D02*
X181488000Y-53769000D01*
X175813000Y-64034000D02*
X171953000Y-64034000D01*
X175813000Y-53514000D02*
X179673000Y-53514000D01*
%TD*%
M02*
