%TF.GenerationSoftware,KiCad,Pcbnew,(6.0.4)*%
%TF.CreationDate,2023-07-24T12:57:32-04:00*%
%TF.ProjectId,BREAD_Slice,42524541-445f-4536-9c69-63652e6b6963,rev?*%
%TF.SameCoordinates,Original*%
%TF.FileFunction,Copper,L2,Bot*%
%TF.FilePolarity,Positive*%
%FSLAX46Y46*%
G04 Gerber Fmt 4.6, Leading zero omitted, Abs format (unit mm)*
G04 Created by KiCad (PCBNEW (6.0.4)) date 2023-07-24 12:57:32*
%MOMM*%
%LPD*%
G01*
G04 APERTURE LIST*
G04 Aperture macros list*
%AMRoundRect*
0 Rectangle with rounded corners*
0 $1 Rounding radius*
0 $2 $3 $4 $5 $6 $7 $8 $9 X,Y pos of 4 corners*
0 Add a 4 corners polygon primitive as box body*
4,1,4,$2,$3,$4,$5,$6,$7,$8,$9,$2,$3,0*
0 Add four circle primitives for the rounded corners*
1,1,$1+$1,$2,$3*
1,1,$1+$1,$4,$5*
1,1,$1+$1,$6,$7*
1,1,$1+$1,$8,$9*
0 Add four rect primitives between the rounded corners*
20,1,$1+$1,$2,$3,$4,$5,0*
20,1,$1+$1,$4,$5,$6,$7,0*
20,1,$1+$1,$6,$7,$8,$9,0*
20,1,$1+$1,$8,$9,$2,$3,0*%
G04 Aperture macros list end*
%TA.AperFunction,ComponentPad*%
%ADD10C,5.600000*%
%TD*%
%TA.AperFunction,ComponentPad*%
%ADD11R,1.600000X1.600000*%
%TD*%
%TA.AperFunction,ComponentPad*%
%ADD12O,1.600000X1.600000*%
%TD*%
%TA.AperFunction,ComponentPad*%
%ADD13R,1.700000X1.700000*%
%TD*%
%TA.AperFunction,ComponentPad*%
%ADD14O,1.700000X1.700000*%
%TD*%
%TA.AperFunction,ComponentPad*%
%ADD15R,2.100000X2.100000*%
%TD*%
%TA.AperFunction,ComponentPad*%
%ADD16C,2.100000*%
%TD*%
%TA.AperFunction,SMDPad,CuDef*%
%ADD17R,2.350000X2.770000*%
%TD*%
%TA.AperFunction,SMDPad,CuDef*%
%ADD18RoundRect,0.150000X0.875000X0.150000X-0.875000X0.150000X-0.875000X-0.150000X0.875000X-0.150000X0*%
%TD*%
%TA.AperFunction,Conductor*%
%ADD19C,0.500000*%
%TD*%
%TA.AperFunction,Conductor*%
%ADD20C,1.500000*%
%TD*%
%TA.AperFunction,Conductor*%
%ADD21C,1.000000*%
%TD*%
G04 APERTURE END LIST*
D10*
%TO.P,H1,1*%
%TO.N,N/C*%
X127600000Y-44800000D03*
%TD*%
%TO.P,H2,1*%
%TO.N,N/C*%
X187600000Y-44800000D03*
%TD*%
%TO.P,H3,1*%
%TO.N,N/C*%
X127600000Y-134800000D03*
%TD*%
%TO.P,H4,1*%
%TO.N,N/C*%
X187600000Y-134800000D03*
%TD*%
D11*
%TO.P,A1,1*%
%TO.N,Net-(A1-Pad1)*%
X135000000Y-100000000D03*
D12*
%TO.P,A1,2*%
%TO.N,Net-(A1-Pad2)*%
X135000000Y-102540000D03*
%TO.P,A1,3*%
%TO.N,Net-(A1-Pad3)*%
X135000000Y-105080000D03*
%TO.P,A1,4*%
%TO.N,GND*%
X135000000Y-107620000D03*
%TO.P,A1,5*%
%TO.N,/E_STOP*%
X135000000Y-110160000D03*
%TO.P,A1,6*%
%TO.N,/INT*%
X135000000Y-112700000D03*
%TO.P,A1,7*%
%TO.N,/SYNC*%
X135000000Y-115240000D03*
%TO.P,A1,8*%
%TO.N,Net-(A1-Pad8)*%
X135000000Y-117780000D03*
%TO.P,A1,9*%
%TO.N,Net-(A1-Pad9)*%
X135000000Y-120320000D03*
%TO.P,A1,10*%
%TO.N,Net-(A1-Pad10)*%
X135000000Y-122860000D03*
%TO.P,A1,11*%
%TO.N,Net-(A1-Pad11)*%
X135000000Y-125400000D03*
%TO.P,A1,12*%
%TO.N,Net-(A1-Pad12)*%
X135000000Y-127940000D03*
%TO.P,A1,13*%
%TO.N,Net-(A1-Pad13)*%
X135000000Y-130480000D03*
%TO.P,A1,14*%
%TO.N,Net-(A1-Pad14)*%
X135000000Y-133020000D03*
%TO.P,A1,15*%
%TO.N,Net-(A1-Pad15)*%
X135000000Y-135560000D03*
%TO.P,A1,16*%
%TO.N,Net-(A1-Pad16)*%
X150240000Y-135560000D03*
%TO.P,A1,17*%
%TO.N,Net-(A1-Pad17)*%
X150240000Y-133020000D03*
%TO.P,A1,18*%
%TO.N,Net-(A1-Pad18)*%
X150240000Y-130480000D03*
%TO.P,A1,19*%
%TO.N,/CURR1*%
X150240000Y-127940000D03*
%TO.P,A1,20*%
%TO.N,/CURR2*%
X150240000Y-125400000D03*
%TO.P,A1,21*%
%TO.N,/CURR3*%
X150240000Y-122860000D03*
%TO.P,A1,22*%
%TO.N,/CURR4*%
X150240000Y-120320000D03*
%TO.P,A1,23*%
%TO.N,/I2C_DAT*%
X150240000Y-117780000D03*
%TO.P,A1,24*%
%TO.N,/I2C_CLK*%
X150240000Y-115240000D03*
%TO.P,A1,25*%
%TO.N,Net-(A1-Pad25)*%
X150240000Y-112700000D03*
%TO.P,A1,26*%
%TO.N,Net-(A1-Pad26)*%
X150240000Y-110160000D03*
%TO.P,A1,27*%
%TO.N,+5V*%
X150240000Y-107620000D03*
%TO.P,A1,28*%
%TO.N,Net-(A1-Pad28)*%
X150240000Y-105080000D03*
%TO.P,A1,29*%
%TO.N,GND*%
X150240000Y-102540000D03*
%TO.P,A1,30*%
%TO.N,+12V*%
X150240000Y-100000000D03*
%TD*%
D13*
%TO.P,J1,1*%
%TO.N,GND*%
X129600000Y-78800000D03*
D14*
%TO.P,J1,2*%
%TO.N,+12V*%
X129600000Y-81340000D03*
%TO.P,J1,3*%
%TO.N,/I2C_CLK*%
X129600000Y-83880000D03*
%TO.P,J1,4*%
%TO.N,/I2C_DAT*%
X129600000Y-86420000D03*
%TO.P,J1,5*%
%TO.N,GND*%
X129600000Y-88960000D03*
%TO.P,J1,6*%
%TO.N,/E_STOP*%
X129600000Y-91500000D03*
%TO.P,J1,7*%
%TO.N,/INT*%
X129600000Y-94040000D03*
%TO.P,J1,8*%
%TO.N,/SYNC*%
X129600000Y-96580000D03*
%TO.P,J1,9*%
%TO.N,+12V*%
X129600000Y-99120000D03*
%TO.P,J1,10*%
%TO.N,GND*%
X129600000Y-101660000D03*
%TD*%
D15*
%TO.P,J2,1*%
%TO.N,Net-(J2-Pad1)*%
X187751000Y-126973000D03*
D16*
%TO.P,J2,2*%
%TO.N,Net-(J2-Pad2)*%
X187751000Y-124433000D03*
%TD*%
D15*
%TO.P,J3,1*%
%TO.N,Net-(J3-Pad1)*%
X187751000Y-83539000D03*
D16*
%TO.P,J3,2*%
%TO.N,Net-(J3-Pad2)*%
X187751000Y-80999000D03*
%TD*%
D15*
%TO.P,J4,1*%
%TO.N,Net-(J4-Pad1)*%
X188005000Y-106653000D03*
D16*
%TO.P,J4,2*%
%TO.N,Net-(J4-Pad2)*%
X188005000Y-104113000D03*
%TD*%
D15*
%TO.P,J5,1*%
%TO.N,Net-(J5-Pad1)*%
X188132000Y-60298000D03*
D16*
%TO.P,J5,2*%
%TO.N,Net-(J5-Pad2)*%
X188132000Y-57758000D03*
%TD*%
D17*
%TO.P,C2,1*%
%TO.N,+5V*%
X154223000Y-108274000D03*
%TO.P,C2,2*%
%TO.N,GND*%
X154223000Y-113414000D03*
%TD*%
%TO.P,C1,1*%
%TO.N,+12V*%
X150286000Y-90935000D03*
%TO.P,C1,2*%
%TO.N,GND*%
X150286000Y-85795000D03*
%TD*%
D18*
%TO.P,U1,1*%
%TO.N,Net-(J2-Pad2)*%
X180844000Y-121004000D03*
%TO.P,U1,2*%
X180844000Y-122274000D03*
%TO.P,U1,3*%
X180844000Y-123544000D03*
%TO.P,U1,4*%
X180844000Y-124814000D03*
%TO.P,U1,5*%
%TO.N,Net-(J2-Pad1)*%
X180844000Y-126084000D03*
%TO.P,U1,6*%
X180844000Y-127354000D03*
%TO.P,U1,7*%
X180844000Y-128624000D03*
%TO.P,U1,8*%
X180844000Y-129894000D03*
%TO.P,U1,9*%
%TO.N,Net-(U1-Pad9)*%
X171544000Y-129894000D03*
%TO.P,U1,10*%
%TO.N,+5V*%
X171544000Y-128624000D03*
%TO.P,U1,11*%
%TO.N,GND*%
X171544000Y-127354000D03*
%TO.P,U1,12*%
%TO.N,/CURR1*%
X171544000Y-126084000D03*
%TO.P,U1,13*%
%TO.N,GND*%
X171544000Y-124814000D03*
%TO.P,U1,14*%
X171544000Y-123544000D03*
%TO.P,U1,15*%
X171544000Y-122274000D03*
%TO.P,U1,16*%
%TO.N,Net-(U1-Pad16)*%
X171544000Y-121004000D03*
%TD*%
%TO.P,U2,1*%
%TO.N,Net-(J3-Pad2)*%
X180463000Y-77697000D03*
%TO.P,U2,2*%
X180463000Y-78967000D03*
%TO.P,U2,3*%
X180463000Y-80237000D03*
%TO.P,U2,4*%
X180463000Y-81507000D03*
%TO.P,U2,5*%
%TO.N,Net-(J3-Pad1)*%
X180463000Y-82777000D03*
%TO.P,U2,6*%
X180463000Y-84047000D03*
%TO.P,U2,7*%
X180463000Y-85317000D03*
%TO.P,U2,8*%
X180463000Y-86587000D03*
%TO.P,U2,9*%
%TO.N,Net-(U2-Pad9)*%
X171163000Y-86587000D03*
%TO.P,U2,10*%
%TO.N,+5V*%
X171163000Y-85317000D03*
%TO.P,U2,11*%
%TO.N,GND*%
X171163000Y-84047000D03*
%TO.P,U2,12*%
%TO.N,/CURR3*%
X171163000Y-82777000D03*
%TO.P,U2,13*%
%TO.N,GND*%
X171163000Y-81507000D03*
%TO.P,U2,14*%
X171163000Y-80237000D03*
%TO.P,U2,15*%
X171163000Y-78967000D03*
%TO.P,U2,16*%
%TO.N,Net-(U2-Pad16)*%
X171163000Y-77697000D03*
%TD*%
%TO.P,U3,1*%
%TO.N,Net-(J4-Pad2)*%
X180209000Y-100684000D03*
%TO.P,U3,2*%
X180209000Y-101954000D03*
%TO.P,U3,3*%
X180209000Y-103224000D03*
%TO.P,U3,4*%
X180209000Y-104494000D03*
%TO.P,U3,5*%
%TO.N,Net-(J4-Pad1)*%
X180209000Y-105764000D03*
%TO.P,U3,6*%
X180209000Y-107034000D03*
%TO.P,U3,7*%
X180209000Y-108304000D03*
%TO.P,U3,8*%
X180209000Y-109574000D03*
%TO.P,U3,9*%
%TO.N,Net-(U3-Pad9)*%
X170909000Y-109574000D03*
%TO.P,U3,10*%
%TO.N,+5V*%
X170909000Y-108304000D03*
%TO.P,U3,11*%
%TO.N,GND*%
X170909000Y-107034000D03*
%TO.P,U3,12*%
%TO.N,/CURR2*%
X170909000Y-105764000D03*
%TO.P,U3,13*%
%TO.N,GND*%
X170909000Y-104494000D03*
%TO.P,U3,14*%
X170909000Y-103224000D03*
%TO.P,U3,15*%
X170909000Y-101954000D03*
%TO.P,U3,16*%
%TO.N,Net-(U3-Pad16)*%
X170909000Y-100684000D03*
%TD*%
%TO.P,U4,1*%
%TO.N,Net-(J5-Pad2)*%
X180463000Y-54329000D03*
%TO.P,U4,2*%
X180463000Y-55599000D03*
%TO.P,U4,3*%
X180463000Y-56869000D03*
%TO.P,U4,4*%
X180463000Y-58139000D03*
%TO.P,U4,5*%
%TO.N,Net-(J5-Pad1)*%
X180463000Y-59409000D03*
%TO.P,U4,6*%
X180463000Y-60679000D03*
%TO.P,U4,7*%
X180463000Y-61949000D03*
%TO.P,U4,8*%
X180463000Y-63219000D03*
%TO.P,U4,9*%
%TO.N,Net-(U4-Pad9)*%
X171163000Y-63219000D03*
%TO.P,U4,10*%
%TO.N,+5V*%
X171163000Y-61949000D03*
%TO.P,U4,11*%
%TO.N,GND*%
X171163000Y-60679000D03*
%TO.P,U4,12*%
%TO.N,/CURR4*%
X171163000Y-59409000D03*
%TO.P,U4,13*%
%TO.N,GND*%
X171163000Y-58139000D03*
%TO.P,U4,14*%
X171163000Y-56869000D03*
%TO.P,U4,15*%
X171163000Y-55599000D03*
%TO.P,U4,16*%
%TO.N,Net-(U4-Pad16)*%
X171163000Y-54329000D03*
%TD*%
D19*
%TO.N,GND*%
X171163000Y-60679000D02*
X172188000Y-60679000D01*
X172892000Y-107034000D02*
X173527000Y-106399000D01*
X173654000Y-59213000D02*
X173654000Y-57504000D01*
X173781000Y-80999000D02*
X173019000Y-80237000D01*
X173019000Y-56869000D02*
X171163000Y-56869000D01*
X173527000Y-123671000D02*
X173400000Y-123544000D01*
X173019000Y-103224000D02*
X170909000Y-103224000D01*
X171544000Y-127354000D02*
X172569000Y-127354000D01*
X173527000Y-103732000D02*
X173019000Y-103224000D01*
X173400000Y-123544000D02*
X171544000Y-123544000D01*
X173019000Y-80237000D02*
X171163000Y-80237000D01*
X172188000Y-60679000D02*
X173654000Y-59213000D01*
X173781000Y-82650000D02*
X173781000Y-80999000D01*
X173654000Y-57504000D02*
X173019000Y-56869000D01*
X171163000Y-84047000D02*
X172384000Y-84047000D01*
X173527000Y-106399000D02*
X173527000Y-103732000D01*
X170909000Y-107034000D02*
X172892000Y-107034000D01*
X173527000Y-126396000D02*
X173527000Y-123671000D01*
X172384000Y-84047000D02*
X173781000Y-82650000D01*
X172569000Y-127354000D02*
X173527000Y-126396000D01*
D20*
%TO.N,+5V*%
X153569000Y-107620000D02*
X154223000Y-108274000D01*
D21*
X174416000Y-108304000D02*
X175813000Y-106907000D01*
D20*
X174035000Y-44677000D02*
X175813000Y-46455000D01*
D21*
X170909000Y-108304000D02*
X174416000Y-108304000D01*
D20*
X175813000Y-83031000D02*
X175813000Y-106907000D01*
X154223000Y-108274000D02*
X156920000Y-108274000D01*
D21*
X175813000Y-127481000D02*
X174670000Y-128624000D01*
D20*
X175813000Y-59917000D02*
X175813000Y-83031000D01*
X159303000Y-48995000D02*
X163621000Y-44677000D01*
D21*
X175813000Y-126973000D02*
X175813000Y-127481000D01*
X173527000Y-85317000D02*
X175813000Y-83031000D01*
X171163000Y-85317000D02*
X173527000Y-85317000D01*
D20*
X163621000Y-44677000D02*
X174035000Y-44677000D01*
D21*
X174670000Y-128624000D02*
X171544000Y-128624000D01*
X173781000Y-61949000D02*
X175813000Y-59917000D01*
D20*
X175813000Y-46455000D02*
X175813000Y-59917000D01*
X150240000Y-107620000D02*
X153569000Y-107620000D01*
D21*
X171163000Y-61949000D02*
X173781000Y-61949000D01*
D20*
X156920000Y-108274000D02*
X159303000Y-105891000D01*
X159303000Y-105891000D02*
X159303000Y-48995000D01*
X175813000Y-106907000D02*
X175813000Y-126973000D01*
D19*
%TO.N,/I2C_CLK*%
X140634000Y-92048000D02*
X140634000Y-113130000D01*
X142744000Y-115240000D02*
X150240000Y-115240000D01*
X132466000Y-83880000D02*
X140634000Y-92048000D01*
X140634000Y-113130000D02*
X142744000Y-115240000D01*
X129600000Y-83880000D02*
X132466000Y-83880000D01*
%TO.N,/I2C_DAT*%
X141855000Y-117780000D02*
X150240000Y-117780000D01*
X129600000Y-86420000D02*
X132212000Y-86420000D01*
X132212000Y-86420000D02*
X138602000Y-92810000D01*
X138602000Y-114527000D02*
X141855000Y-117780000D01*
X138602000Y-92810000D02*
X138602000Y-114527000D01*
%TO.N,/SYNC*%
X130434000Y-96580000D02*
X129600000Y-96580000D01*
X133600000Y-115240000D02*
X131490000Y-113130000D01*
X131490000Y-113130000D02*
X131490000Y-97636000D01*
X131490000Y-97636000D02*
X130434000Y-96580000D01*
X135000000Y-115240000D02*
X133600000Y-115240000D01*
%TO.N,/E_STOP*%
X133141000Y-93445000D02*
X131196000Y-91500000D01*
X133141000Y-109095000D02*
X133141000Y-93445000D01*
X135000000Y-110160000D02*
X134206000Y-110160000D01*
X131196000Y-91500000D02*
X129600000Y-91500000D01*
X134206000Y-110160000D02*
X133141000Y-109095000D01*
D20*
%TO.N,+12V*%
X126156000Y-97636000D02*
X126156000Y-83581919D01*
X129600000Y-81340000D02*
X135133000Y-81340000D01*
X150286000Y-96401000D02*
X150240000Y-96447000D01*
X128397919Y-81340000D02*
X129600000Y-81340000D01*
X150286000Y-90935000D02*
X150286000Y-96401000D01*
X135133000Y-81340000D02*
X150240000Y-96447000D01*
X129600000Y-99120000D02*
X127640000Y-99120000D01*
X126156000Y-83581919D02*
X128397919Y-81340000D01*
X150240000Y-96447000D02*
X150240000Y-100000000D01*
X127640000Y-99120000D02*
X126156000Y-97636000D01*
D19*
%TO.N,/INT*%
X132379000Y-111606000D02*
X132379000Y-95477000D01*
X133473000Y-112700000D02*
X132379000Y-111606000D01*
X130942000Y-94040000D02*
X129600000Y-94040000D01*
X135000000Y-112700000D02*
X133473000Y-112700000D01*
X132379000Y-95477000D02*
X130942000Y-94040000D01*
%TO.N,/CURR1*%
X150240000Y-127940000D02*
X164559000Y-127940000D01*
X164559000Y-127940000D02*
X166415000Y-126084000D01*
X166415000Y-126084000D02*
X171544000Y-126084000D01*
%TO.N,/CURR2*%
X150240000Y-125400000D02*
X161384000Y-125400000D01*
X168574000Y-105764000D02*
X170909000Y-105764000D01*
X167558000Y-119226000D02*
X167558000Y-106780000D01*
X161384000Y-125400000D02*
X167558000Y-119226000D01*
X167558000Y-106780000D02*
X168574000Y-105764000D01*
%TO.N,/CURR3*%
X160876000Y-122860000D02*
X166288000Y-117448000D01*
X166288000Y-84809000D02*
X168320000Y-82777000D01*
X150240000Y-122860000D02*
X160876000Y-122860000D01*
X166288000Y-117448000D02*
X166288000Y-84809000D01*
X168320000Y-82777000D02*
X171163000Y-82777000D01*
%TO.N,/CURR4*%
X164764000Y-61822000D02*
X167177000Y-59409000D01*
X164764000Y-115797000D02*
X164764000Y-61822000D01*
X150240000Y-120320000D02*
X160241000Y-120320000D01*
X160241000Y-120320000D02*
X164764000Y-115797000D01*
X167177000Y-59409000D02*
X171163000Y-59409000D01*
%TD*%
%TA.AperFunction,Conductor*%
%TO.N,GND*%
G36*
X172072611Y-40760002D02*
G01*
X172119104Y-40813658D01*
X172130489Y-40865509D01*
X172139159Y-43090669D01*
X172139943Y-43292009D01*
X172120207Y-43360207D01*
X172066732Y-43406909D01*
X172013944Y-43418500D01*
X163712395Y-43418500D01*
X163695948Y-43417422D01*
X163679483Y-43415254D01*
X163679479Y-43415254D01*
X163673913Y-43414521D01*
X163592512Y-43418360D01*
X163586576Y-43418500D01*
X163564001Y-43418500D01*
X163544981Y-43420197D01*
X163538011Y-43420819D01*
X163532749Y-43421178D01*
X163519838Y-43421787D01*
X163449512Y-43425104D01*
X163444053Y-43426354D01*
X163444048Y-43426355D01*
X163432030Y-43429108D01*
X163415101Y-43431789D01*
X163397238Y-43433383D01*
X163391822Y-43434865D01*
X163391820Y-43434865D01*
X163316867Y-43455370D01*
X163311749Y-43456656D01*
X163236000Y-43474005D01*
X163235998Y-43474006D01*
X163230530Y-43475258D01*
X163220030Y-43479737D01*
X163214033Y-43482294D01*
X163197858Y-43487927D01*
X163185961Y-43491182D01*
X163185957Y-43491183D01*
X163180549Y-43492663D01*
X163175483Y-43495079D01*
X163175484Y-43495079D01*
X163105333Y-43528539D01*
X163100524Y-43530710D01*
X163023891Y-43563397D01*
X163008890Y-43573251D01*
X162993975Y-43581654D01*
X162977782Y-43589378D01*
X162973231Y-43592648D01*
X162973228Y-43592650D01*
X162940004Y-43616524D01*
X162910794Y-43637514D01*
X162910119Y-43637999D01*
X162905768Y-43640989D01*
X162839992Y-43684195D01*
X162839987Y-43684199D01*
X162836126Y-43686735D01*
X162832676Y-43689809D01*
X162815342Y-43705252D01*
X162805058Y-43713491D01*
X162799905Y-43717194D01*
X162799898Y-43717200D01*
X162795346Y-43720471D01*
X162770155Y-43746466D01*
X162720968Y-43797223D01*
X162719579Y-43798633D01*
X158477737Y-48040475D01*
X158465347Y-48051342D01*
X158447708Y-48064877D01*
X158393188Y-48124794D01*
X158392842Y-48125174D01*
X158388743Y-48129469D01*
X158372802Y-48145410D01*
X158371007Y-48147557D01*
X158371005Y-48147559D01*
X158356068Y-48165423D01*
X158352600Y-48169398D01*
X158300288Y-48226888D01*
X158300281Y-48226897D01*
X158296515Y-48231036D01*
X158293538Y-48235782D01*
X158293537Y-48235783D01*
X158286987Y-48246225D01*
X158276911Y-48260093D01*
X158269004Y-48269549D01*
X158268997Y-48269559D01*
X158265406Y-48273854D01*
X158224118Y-48346240D01*
X158221413Y-48350759D01*
X158177136Y-48421344D01*
X158175043Y-48426549D01*
X158175042Y-48426552D01*
X158170448Y-48437979D01*
X158162988Y-48453411D01*
X158156880Y-48464119D01*
X158156876Y-48464128D01*
X158154101Y-48468993D01*
X158152232Y-48474270D01*
X158152230Y-48474275D01*
X158126285Y-48547542D01*
X158124420Y-48552478D01*
X158093344Y-48629783D01*
X158092208Y-48635270D01*
X158092207Y-48635272D01*
X158089706Y-48647349D01*
X158085101Y-48663844D01*
X158079111Y-48680759D01*
X158078204Y-48686298D01*
X158065643Y-48763001D01*
X158064683Y-48768180D01*
X158047787Y-48849767D01*
X158047521Y-48854379D01*
X158047521Y-48854380D01*
X158046185Y-48877548D01*
X158044738Y-48890653D01*
X158043714Y-48896910D01*
X158042806Y-48902457D01*
X158042894Y-48908070D01*
X158042894Y-48908072D01*
X158044484Y-49009264D01*
X158044500Y-49011243D01*
X158044500Y-105317523D01*
X158024498Y-105385644D01*
X158007595Y-105406618D01*
X156435617Y-106978595D01*
X156373305Y-107012621D01*
X156346522Y-107015500D01*
X156032500Y-107015500D01*
X155964379Y-106995498D01*
X155917886Y-106941842D01*
X155906500Y-106889500D01*
X155906500Y-106840866D01*
X155899745Y-106778684D01*
X155848615Y-106642295D01*
X155761261Y-106525739D01*
X155644705Y-106438385D01*
X155508316Y-106387255D01*
X155446134Y-106380500D01*
X153803017Y-106380500D01*
X153777465Y-106377882D01*
X153718754Y-106365723D01*
X153718750Y-106365723D01*
X153714233Y-106364787D01*
X153709624Y-106364521D01*
X153709622Y-106364521D01*
X153686452Y-106363185D01*
X153673347Y-106361738D01*
X153667090Y-106360714D01*
X153667086Y-106360714D01*
X153661543Y-106359806D01*
X153655930Y-106359894D01*
X153655928Y-106359894D01*
X153554736Y-106361484D01*
X153552757Y-106361500D01*
X151090749Y-106361500D01*
X151022628Y-106341498D01*
X150976135Y-106287842D01*
X150966031Y-106217568D01*
X150995525Y-106152988D01*
X151018478Y-106132287D01*
X151079789Y-106089357D01*
X151079792Y-106089355D01*
X151084300Y-106086198D01*
X151246198Y-105924300D01*
X151280889Y-105874757D01*
X151374366Y-105741257D01*
X151377523Y-105736749D01*
X151379846Y-105731767D01*
X151379849Y-105731762D01*
X151471961Y-105534225D01*
X151471961Y-105534224D01*
X151474284Y-105529243D01*
X151522206Y-105350399D01*
X151532119Y-105313402D01*
X151532119Y-105313400D01*
X151533543Y-105308087D01*
X151553498Y-105080000D01*
X151533543Y-104851913D01*
X151532119Y-104846598D01*
X151475707Y-104636067D01*
X151475706Y-104636065D01*
X151474284Y-104630757D01*
X151470201Y-104622000D01*
X151379849Y-104428238D01*
X151379846Y-104428233D01*
X151377523Y-104423251D01*
X151246198Y-104235700D01*
X151084300Y-104073802D01*
X151079792Y-104070645D01*
X151079789Y-104070643D01*
X151001611Y-104015902D01*
X150896749Y-103942477D01*
X150891767Y-103940154D01*
X150891762Y-103940151D01*
X150856951Y-103923919D01*
X150803666Y-103877002D01*
X150784205Y-103808725D01*
X150804747Y-103740765D01*
X150856951Y-103695529D01*
X150891511Y-103679414D01*
X150901007Y-103673931D01*
X151079467Y-103548972D01*
X151087875Y-103541916D01*
X151241916Y-103387875D01*
X151248972Y-103379467D01*
X151373931Y-103201007D01*
X151379414Y-103191511D01*
X151471490Y-102994053D01*
X151475236Y-102983761D01*
X151521394Y-102811497D01*
X151521058Y-102797401D01*
X151513116Y-102794000D01*
X148972033Y-102794000D01*
X148958502Y-102797973D01*
X148957273Y-102806522D01*
X149004764Y-102983761D01*
X149008510Y-102994053D01*
X149100586Y-103191511D01*
X149106069Y-103201007D01*
X149231028Y-103379467D01*
X149238084Y-103387875D01*
X149392125Y-103541916D01*
X149400533Y-103548972D01*
X149578993Y-103673931D01*
X149588489Y-103679414D01*
X149623049Y-103695529D01*
X149676334Y-103742446D01*
X149695795Y-103810723D01*
X149675253Y-103878683D01*
X149623049Y-103923919D01*
X149588238Y-103940151D01*
X149588233Y-103940154D01*
X149583251Y-103942477D01*
X149478389Y-104015902D01*
X149400211Y-104070643D01*
X149400208Y-104070645D01*
X149395700Y-104073802D01*
X149233802Y-104235700D01*
X149102477Y-104423251D01*
X149100154Y-104428233D01*
X149100151Y-104428238D01*
X149009799Y-104622000D01*
X149005716Y-104630757D01*
X149004294Y-104636065D01*
X149004293Y-104636067D01*
X148947881Y-104846598D01*
X148946457Y-104851913D01*
X148926502Y-105080000D01*
X148946457Y-105308087D01*
X148947881Y-105313400D01*
X148947881Y-105313402D01*
X148957795Y-105350399D01*
X149005716Y-105529243D01*
X149008039Y-105534224D01*
X149008039Y-105534225D01*
X149100151Y-105731762D01*
X149100154Y-105731767D01*
X149102477Y-105736749D01*
X149105634Y-105741257D01*
X149199112Y-105874757D01*
X149233802Y-105924300D01*
X149395700Y-106086198D01*
X149400208Y-106089355D01*
X149400211Y-106089357D01*
X149448257Y-106122999D01*
X149583251Y-106217523D01*
X149588233Y-106219846D01*
X149588238Y-106219849D01*
X149622457Y-106235805D01*
X149675742Y-106282722D01*
X149695203Y-106350999D01*
X149674661Y-106418959D01*
X149622457Y-106464195D01*
X149588238Y-106480151D01*
X149588233Y-106480154D01*
X149583251Y-106482477D01*
X149521981Y-106525379D01*
X149400211Y-106610643D01*
X149400208Y-106610645D01*
X149395700Y-106613802D01*
X149233802Y-106775700D01*
X149230645Y-106780208D01*
X149230643Y-106780211D01*
X149184908Y-106845528D01*
X149102477Y-106963251D01*
X149100154Y-106968233D01*
X149100151Y-106968238D01*
X149017087Y-107146371D01*
X149005716Y-107170757D01*
X149004294Y-107176065D01*
X149004293Y-107176067D01*
X148947881Y-107386598D01*
X148946457Y-107391913D01*
X148926502Y-107620000D01*
X148946457Y-107848087D01*
X148947881Y-107853400D01*
X148947881Y-107853402D01*
X149002323Y-108056579D01*
X149005716Y-108069243D01*
X149008039Y-108074224D01*
X149008039Y-108074225D01*
X149100151Y-108271762D01*
X149100154Y-108271767D01*
X149102477Y-108276749D01*
X149233802Y-108464300D01*
X149395700Y-108626198D01*
X149400208Y-108629355D01*
X149400211Y-108629357D01*
X149463227Y-108673481D01*
X149583251Y-108757523D01*
X149588233Y-108759846D01*
X149588238Y-108759849D01*
X149622457Y-108775805D01*
X149675742Y-108822722D01*
X149695203Y-108890999D01*
X149674661Y-108958959D01*
X149622457Y-109004195D01*
X149588238Y-109020151D01*
X149588233Y-109020154D01*
X149583251Y-109022477D01*
X149478389Y-109095902D01*
X149400211Y-109150643D01*
X149400208Y-109150645D01*
X149395700Y-109153802D01*
X149233802Y-109315700D01*
X149230645Y-109320208D01*
X149230643Y-109320211D01*
X149203938Y-109358350D01*
X149102477Y-109503251D01*
X149100154Y-109508233D01*
X149100151Y-109508238D01*
X149008999Y-109703717D01*
X149005716Y-109710757D01*
X148946457Y-109931913D01*
X148926502Y-110160000D01*
X148946457Y-110388087D01*
X149005716Y-110609243D01*
X149008039Y-110614224D01*
X149008039Y-110614225D01*
X149100151Y-110811762D01*
X149100154Y-110811767D01*
X149102477Y-110816749D01*
X149233802Y-111004300D01*
X149395700Y-111166198D01*
X149400208Y-111169355D01*
X149400211Y-111169357D01*
X149478389Y-111224098D01*
X149583251Y-111297523D01*
X149588233Y-111299846D01*
X149588238Y-111299849D01*
X149622457Y-111315805D01*
X149675742Y-111362722D01*
X149695203Y-111430999D01*
X149674661Y-111498959D01*
X149622457Y-111544195D01*
X149588238Y-111560151D01*
X149588233Y-111560154D01*
X149583251Y-111562477D01*
X149478389Y-111635902D01*
X149400211Y-111690643D01*
X149400208Y-111690645D01*
X149395700Y-111693802D01*
X149233802Y-111855700D01*
X149230645Y-111860208D01*
X149230643Y-111860211D01*
X149184123Y-111926649D01*
X149102477Y-112043251D01*
X149100154Y-112048233D01*
X149100151Y-112048238D01*
X149008039Y-112245775D01*
X149005716Y-112250757D01*
X148946457Y-112471913D01*
X148926502Y-112700000D01*
X148946457Y-112928087D01*
X148947881Y-112933400D01*
X148947881Y-112933402D01*
X148993419Y-113103349D01*
X149005716Y-113149243D01*
X149008039Y-113154224D01*
X149008039Y-113154225D01*
X149100151Y-113351762D01*
X149100154Y-113351767D01*
X149102477Y-113356749D01*
X149233802Y-113544300D01*
X149395700Y-113706198D01*
X149400208Y-113709355D01*
X149400211Y-113709357D01*
X149478389Y-113764098D01*
X149583251Y-113837523D01*
X149588233Y-113839846D01*
X149588238Y-113839849D01*
X149622457Y-113855805D01*
X149675742Y-113902722D01*
X149695203Y-113970999D01*
X149674661Y-114038959D01*
X149622457Y-114084195D01*
X149588238Y-114100151D01*
X149588233Y-114100154D01*
X149583251Y-114102477D01*
X149500202Y-114160629D01*
X149400211Y-114230643D01*
X149400208Y-114230645D01*
X149395700Y-114233802D01*
X149233802Y-114395700D01*
X149211345Y-114427771D01*
X149155890Y-114472099D01*
X149108133Y-114481500D01*
X143110371Y-114481500D01*
X143042250Y-114461498D01*
X143021276Y-114444595D01*
X141429405Y-112852724D01*
X141395379Y-112790412D01*
X141392500Y-112763629D01*
X141392500Y-92115063D01*
X141393933Y-92096114D01*
X141396097Y-92081886D01*
X141397198Y-92074651D01*
X141392915Y-92021990D01*
X141392500Y-92011777D01*
X141392500Y-92003707D01*
X141392078Y-92000087D01*
X141392077Y-92000069D01*
X141389208Y-91975461D01*
X141388775Y-91971086D01*
X141383454Y-91905661D01*
X141383453Y-91905658D01*
X141382860Y-91898363D01*
X141380604Y-91891399D01*
X141379413Y-91885440D01*
X141378029Y-91879585D01*
X141377182Y-91872319D01*
X141352265Y-91803673D01*
X141350848Y-91799545D01*
X141330607Y-91737064D01*
X141330606Y-91737062D01*
X141328351Y-91730101D01*
X141324555Y-91723846D01*
X141322049Y-91718372D01*
X141319330Y-91712942D01*
X141316833Y-91706063D01*
X141276809Y-91645016D01*
X141274472Y-91641312D01*
X141239509Y-91583693D01*
X141239505Y-91583688D01*
X141236595Y-91578892D01*
X141229197Y-91570516D01*
X141229223Y-91570493D01*
X141226574Y-91567503D01*
X141223866Y-91564264D01*
X141219856Y-91558148D01*
X141214549Y-91553121D01*
X141214546Y-91553117D01*
X141163617Y-91504872D01*
X141161175Y-91502494D01*
X133049770Y-83391089D01*
X133037384Y-83376677D01*
X133028851Y-83365082D01*
X133028846Y-83365077D01*
X133024508Y-83359182D01*
X133018930Y-83354443D01*
X133018927Y-83354440D01*
X132984232Y-83324965D01*
X132976716Y-83318035D01*
X132971021Y-83312340D01*
X132964880Y-83307482D01*
X132948749Y-83294719D01*
X132945345Y-83291928D01*
X132895297Y-83249409D01*
X132895295Y-83249408D01*
X132889715Y-83244667D01*
X132883199Y-83241339D01*
X132878150Y-83237972D01*
X132873021Y-83234805D01*
X132867284Y-83230266D01*
X132801125Y-83199345D01*
X132797225Y-83197439D01*
X132732192Y-83164231D01*
X132725084Y-83162492D01*
X132719441Y-83160393D01*
X132713678Y-83158476D01*
X132707050Y-83155378D01*
X132635583Y-83140513D01*
X132631299Y-83139543D01*
X132560390Y-83122192D01*
X132554788Y-83121844D01*
X132554785Y-83121844D01*
X132549236Y-83121500D01*
X132549238Y-83121464D01*
X132545245Y-83121225D01*
X132541053Y-83120851D01*
X132533885Y-83119360D01*
X132467675Y-83121151D01*
X132456479Y-83121454D01*
X132453072Y-83121500D01*
X130795939Y-83121500D01*
X130727818Y-83101498D01*
X130690147Y-83063941D01*
X130682818Y-83052612D01*
X130680014Y-83048277D01*
X130529670Y-82883051D01*
X130525619Y-82879852D01*
X130525615Y-82879848D01*
X130454116Y-82823382D01*
X130413053Y-82765465D01*
X130409821Y-82694542D01*
X130445446Y-82633130D01*
X130508618Y-82600728D01*
X130532208Y-82598500D01*
X134559523Y-82598500D01*
X134627644Y-82618502D01*
X134648618Y-82635405D01*
X148944595Y-96931383D01*
X148978621Y-96993695D01*
X148981500Y-97020478D01*
X148981500Y-99624543D01*
X148977207Y-99657152D01*
X148946457Y-99771913D01*
X148926502Y-100000000D01*
X148946457Y-100228087D01*
X148947881Y-100233400D01*
X148947881Y-100233402D01*
X149002323Y-100436579D01*
X149005716Y-100449243D01*
X149008039Y-100454224D01*
X149008039Y-100454225D01*
X149100151Y-100651762D01*
X149100154Y-100651767D01*
X149102477Y-100656749D01*
X149233802Y-100844300D01*
X149395700Y-101006198D01*
X149400208Y-101009355D01*
X149400211Y-101009357D01*
X149441542Y-101038297D01*
X149583251Y-101137523D01*
X149588233Y-101139846D01*
X149588238Y-101139849D01*
X149623049Y-101156081D01*
X149676334Y-101202998D01*
X149695795Y-101271275D01*
X149675253Y-101339235D01*
X149623049Y-101384471D01*
X149588489Y-101400586D01*
X149578993Y-101406069D01*
X149400533Y-101531028D01*
X149392125Y-101538084D01*
X149238084Y-101692125D01*
X149231028Y-101700533D01*
X149106069Y-101878993D01*
X149100586Y-101888489D01*
X149008510Y-102085947D01*
X149004764Y-102096239D01*
X148958606Y-102268503D01*
X148958942Y-102282599D01*
X148966884Y-102286000D01*
X151507967Y-102286000D01*
X151521498Y-102282027D01*
X151522727Y-102273478D01*
X151475236Y-102096239D01*
X151471490Y-102085947D01*
X151379414Y-101888489D01*
X151373931Y-101878993D01*
X151248972Y-101700533D01*
X151241916Y-101692125D01*
X151087875Y-101538084D01*
X151079467Y-101531028D01*
X150901007Y-101406069D01*
X150891511Y-101400586D01*
X150856951Y-101384471D01*
X150803666Y-101337554D01*
X150784205Y-101269277D01*
X150804747Y-101201317D01*
X150856951Y-101156081D01*
X150891762Y-101139849D01*
X150891767Y-101139846D01*
X150896749Y-101137523D01*
X151038458Y-101038297D01*
X151079789Y-101009357D01*
X151079792Y-101009355D01*
X151084300Y-101006198D01*
X151246198Y-100844300D01*
X151377523Y-100656749D01*
X151379846Y-100651767D01*
X151379849Y-100651762D01*
X151471961Y-100454225D01*
X151471961Y-100454224D01*
X151474284Y-100449243D01*
X151477678Y-100436579D01*
X151532119Y-100233402D01*
X151532119Y-100233400D01*
X151533543Y-100228087D01*
X151553498Y-100000000D01*
X151533543Y-99771913D01*
X151502793Y-99657152D01*
X151498500Y-99624543D01*
X151498500Y-96769053D01*
X151505726Y-96726999D01*
X151509889Y-96715241D01*
X151523355Y-96633009D01*
X151524317Y-96627819D01*
X151540277Y-96550754D01*
X151540278Y-96550750D01*
X151541213Y-96546233D01*
X151542815Y-96518452D01*
X151544262Y-96505347D01*
X151545286Y-96499090D01*
X151545286Y-96499083D01*
X151546194Y-96493542D01*
X151546058Y-96484853D01*
X151544516Y-96386736D01*
X151544500Y-96384757D01*
X151544500Y-92919126D01*
X151564502Y-92851005D01*
X151618158Y-92804512D01*
X151626270Y-92801144D01*
X151699297Y-92773767D01*
X151707705Y-92770615D01*
X151824261Y-92683261D01*
X151911615Y-92566705D01*
X151962745Y-92430316D01*
X151969500Y-92368134D01*
X151969500Y-89501866D01*
X151962745Y-89439684D01*
X151911615Y-89303295D01*
X151824261Y-89186739D01*
X151707705Y-89099385D01*
X151571316Y-89048255D01*
X151509134Y-89041500D01*
X149062866Y-89041500D01*
X149000684Y-89048255D01*
X148864295Y-89099385D01*
X148747739Y-89186739D01*
X148660385Y-89303295D01*
X148609255Y-89439684D01*
X148602500Y-89501866D01*
X148602500Y-92368134D01*
X148609255Y-92430316D01*
X148660385Y-92566705D01*
X148747739Y-92683261D01*
X148864295Y-92770615D01*
X148872703Y-92773767D01*
X148945730Y-92801144D01*
X149002494Y-92843786D01*
X149027194Y-92910348D01*
X149027500Y-92919126D01*
X149027500Y-93150522D01*
X149007498Y-93218643D01*
X148953842Y-93265136D01*
X148883568Y-93275240D01*
X148818988Y-93245746D01*
X148812405Y-93239617D01*
X142797457Y-87224669D01*
X148603001Y-87224669D01*
X148603371Y-87231490D01*
X148608895Y-87282352D01*
X148612521Y-87297604D01*
X148657676Y-87418054D01*
X148666214Y-87433649D01*
X148742715Y-87535724D01*
X148755276Y-87548285D01*
X148857351Y-87624786D01*
X148872946Y-87633324D01*
X148993394Y-87678478D01*
X149008649Y-87682105D01*
X149059514Y-87687631D01*
X149066328Y-87688000D01*
X150013885Y-87688000D01*
X150029124Y-87683525D01*
X150030329Y-87682135D01*
X150032000Y-87674452D01*
X150032000Y-87669884D01*
X150540000Y-87669884D01*
X150544475Y-87685123D01*
X150545865Y-87686328D01*
X150553548Y-87687999D01*
X151505669Y-87687999D01*
X151512490Y-87687629D01*
X151563352Y-87682105D01*
X151578604Y-87678479D01*
X151699054Y-87633324D01*
X151714649Y-87624786D01*
X151816724Y-87548285D01*
X151829285Y-87535724D01*
X151905786Y-87433649D01*
X151914324Y-87418054D01*
X151959478Y-87297606D01*
X151963105Y-87282351D01*
X151968631Y-87231486D01*
X151969000Y-87224672D01*
X151969000Y-86067115D01*
X151964525Y-86051876D01*
X151963135Y-86050671D01*
X151955452Y-86049000D01*
X150558115Y-86049000D01*
X150542876Y-86053475D01*
X150541671Y-86054865D01*
X150540000Y-86062548D01*
X150540000Y-87669884D01*
X150032000Y-87669884D01*
X150032000Y-86067115D01*
X150027525Y-86051876D01*
X150026135Y-86050671D01*
X150018452Y-86049000D01*
X148621116Y-86049000D01*
X148605877Y-86053475D01*
X148604672Y-86054865D01*
X148603001Y-86062548D01*
X148603001Y-87224669D01*
X142797457Y-87224669D01*
X141095673Y-85522885D01*
X148603000Y-85522885D01*
X148607475Y-85538124D01*
X148608865Y-85539329D01*
X148616548Y-85541000D01*
X150013885Y-85541000D01*
X150029124Y-85536525D01*
X150030329Y-85535135D01*
X150032000Y-85527452D01*
X150032000Y-85522885D01*
X150540000Y-85522885D01*
X150544475Y-85538124D01*
X150545865Y-85539329D01*
X150553548Y-85541000D01*
X151950884Y-85541000D01*
X151966123Y-85536525D01*
X151967328Y-85535135D01*
X151968999Y-85527452D01*
X151968999Y-84365331D01*
X151968629Y-84358510D01*
X151963105Y-84307648D01*
X151959479Y-84292396D01*
X151914324Y-84171946D01*
X151905786Y-84156351D01*
X151829285Y-84054276D01*
X151816724Y-84041715D01*
X151714649Y-83965214D01*
X151699054Y-83956676D01*
X151578606Y-83911522D01*
X151563351Y-83907895D01*
X151512486Y-83902369D01*
X151505672Y-83902000D01*
X150558115Y-83902000D01*
X150542876Y-83906475D01*
X150541671Y-83907865D01*
X150540000Y-83915548D01*
X150540000Y-85522885D01*
X150032000Y-85522885D01*
X150032000Y-83920116D01*
X150027525Y-83904877D01*
X150026135Y-83903672D01*
X150018452Y-83902001D01*
X149066331Y-83902001D01*
X149059510Y-83902371D01*
X149008648Y-83907895D01*
X148993396Y-83911521D01*
X148872946Y-83956676D01*
X148857351Y-83965214D01*
X148755276Y-84041715D01*
X148742715Y-84054276D01*
X148666214Y-84156351D01*
X148657676Y-84171946D01*
X148612522Y-84292394D01*
X148608895Y-84307649D01*
X148603369Y-84358514D01*
X148603000Y-84365328D01*
X148603000Y-85522885D01*
X141095673Y-85522885D01*
X136087525Y-80514737D01*
X136076657Y-80502346D01*
X136066533Y-80489152D01*
X136063123Y-80484708D01*
X136002826Y-80429842D01*
X135998531Y-80425743D01*
X135982590Y-80409802D01*
X135980440Y-80408004D01*
X135962577Y-80393068D01*
X135958602Y-80389600D01*
X135901112Y-80337288D01*
X135901103Y-80337281D01*
X135896964Y-80333515D01*
X135881773Y-80323986D01*
X135867907Y-80313911D01*
X135858451Y-80306004D01*
X135858441Y-80305997D01*
X135854146Y-80302406D01*
X135781752Y-80261113D01*
X135777232Y-80258408D01*
X135767620Y-80252378D01*
X135726202Y-80226397D01*
X135711404Y-80217114D01*
X135711401Y-80217112D01*
X135706656Y-80214136D01*
X135701451Y-80212043D01*
X135701448Y-80212042D01*
X135690021Y-80207448D01*
X135674589Y-80199988D01*
X135663881Y-80193880D01*
X135663872Y-80193876D01*
X135659007Y-80191101D01*
X135653730Y-80189232D01*
X135653725Y-80189230D01*
X135580458Y-80163285D01*
X135575522Y-80161420D01*
X135503416Y-80132434D01*
X135498217Y-80130344D01*
X135492730Y-80129208D01*
X135492728Y-80129207D01*
X135480651Y-80126706D01*
X135464156Y-80122101D01*
X135447241Y-80116111D01*
X135364990Y-80102641D01*
X135359820Y-80101683D01*
X135297191Y-80088713D01*
X135282758Y-80085724D01*
X135282757Y-80085724D01*
X135278233Y-80084787D01*
X135273621Y-80084521D01*
X135273620Y-80084521D01*
X135250452Y-80083185D01*
X135237347Y-80081738D01*
X135231090Y-80080714D01*
X135231086Y-80080714D01*
X135225543Y-80079806D01*
X135219930Y-80079894D01*
X135219928Y-80079894D01*
X135118736Y-80081484D01*
X135116757Y-80081500D01*
X131010047Y-80081500D01*
X130941926Y-80061498D01*
X130895433Y-80007842D01*
X130885329Y-79937568D01*
X130899526Y-79894993D01*
X130903322Y-79888059D01*
X130948478Y-79767606D01*
X130952105Y-79752351D01*
X130957631Y-79701486D01*
X130958000Y-79694672D01*
X130958000Y-79072115D01*
X130953525Y-79056876D01*
X130952135Y-79055671D01*
X130944452Y-79054000D01*
X128260116Y-79054000D01*
X128244877Y-79058475D01*
X128243672Y-79059865D01*
X128242001Y-79067548D01*
X128242001Y-79694669D01*
X128242371Y-79701490D01*
X128247895Y-79752352D01*
X128251521Y-79767604D01*
X128296677Y-79888056D01*
X128306164Y-79905385D01*
X128321332Y-79974743D01*
X128296595Y-80041290D01*
X128239806Y-80083900D01*
X128223771Y-80088713D01*
X128208947Y-80092108D01*
X128192020Y-80094789D01*
X128174157Y-80096383D01*
X128168741Y-80097865D01*
X128168739Y-80097865D01*
X128093786Y-80118370D01*
X128088668Y-80119656D01*
X128012919Y-80137005D01*
X128012917Y-80137006D01*
X128007449Y-80138258D01*
X127996949Y-80142737D01*
X127990952Y-80145294D01*
X127974777Y-80150927D01*
X127962880Y-80154182D01*
X127962876Y-80154183D01*
X127957468Y-80155663D01*
X127952402Y-80158079D01*
X127952403Y-80158079D01*
X127882252Y-80191539D01*
X127877443Y-80193710D01*
X127805970Y-80224196D01*
X127800810Y-80226397D01*
X127785809Y-80236251D01*
X127770894Y-80244654D01*
X127754701Y-80252378D01*
X127750153Y-80255646D01*
X127750148Y-80255649D01*
X127687033Y-80301002D01*
X127682696Y-80303982D01*
X127613044Y-80349735D01*
X127592263Y-80368251D01*
X127581967Y-80376500D01*
X127572265Y-80383471D01*
X127544823Y-80411789D01*
X127497887Y-80460223D01*
X127496498Y-80461633D01*
X125330737Y-82627394D01*
X125318347Y-82638261D01*
X125300708Y-82651796D01*
X125261812Y-82694542D01*
X125245842Y-82712093D01*
X125241743Y-82716388D01*
X125225802Y-82732329D01*
X125224007Y-82734476D01*
X125224005Y-82734478D01*
X125209068Y-82752342D01*
X125205600Y-82756317D01*
X125153288Y-82813807D01*
X125153281Y-82813816D01*
X125149515Y-82817955D01*
X125146538Y-82822701D01*
X125146537Y-82822702D01*
X125139987Y-82833144D01*
X125129911Y-82847012D01*
X125122004Y-82856468D01*
X125121997Y-82856478D01*
X125118406Y-82860773D01*
X125107526Y-82879848D01*
X125077118Y-82933159D01*
X125074413Y-82937678D01*
X125030136Y-83008263D01*
X125028043Y-83013468D01*
X125028042Y-83013471D01*
X125023448Y-83024898D01*
X125015988Y-83040330D01*
X125009880Y-83051038D01*
X125009876Y-83051047D01*
X125007101Y-83055912D01*
X125005232Y-83061189D01*
X125005230Y-83061194D01*
X124979285Y-83134461D01*
X124977420Y-83139397D01*
X124946344Y-83216702D01*
X124945208Y-83222189D01*
X124945207Y-83222191D01*
X124942706Y-83234268D01*
X124938101Y-83250763D01*
X124932111Y-83267678D01*
X124923272Y-83321656D01*
X124918643Y-83349920D01*
X124917683Y-83355099D01*
X124900787Y-83436686D01*
X124900521Y-83441298D01*
X124900521Y-83441299D01*
X124899185Y-83464467D01*
X124897738Y-83477572D01*
X124896714Y-83483829D01*
X124895806Y-83489376D01*
X124895894Y-83494989D01*
X124895894Y-83494991D01*
X124897484Y-83596183D01*
X124897500Y-83598162D01*
X124897500Y-97544604D01*
X124896422Y-97561051D01*
X124893521Y-97583086D01*
X124893786Y-97588698D01*
X124897360Y-97664488D01*
X124897500Y-97670424D01*
X124897500Y-97692999D01*
X124897898Y-97697458D01*
X124899819Y-97718988D01*
X124900178Y-97724248D01*
X124904104Y-97807488D01*
X124905354Y-97812947D01*
X124905355Y-97812952D01*
X124908108Y-97824970D01*
X124910789Y-97841899D01*
X124912383Y-97859762D01*
X124913865Y-97865178D01*
X124913865Y-97865180D01*
X124934370Y-97940133D01*
X124935656Y-97945251D01*
X124954258Y-98026470D01*
X124956460Y-98031632D01*
X124961294Y-98042967D01*
X124966927Y-98059142D01*
X124971663Y-98076451D01*
X124974079Y-98081516D01*
X125007539Y-98151667D01*
X125009710Y-98156476D01*
X125042397Y-98233109D01*
X125052251Y-98248110D01*
X125060654Y-98263025D01*
X125068378Y-98279218D01*
X125071648Y-98283769D01*
X125071650Y-98283772D01*
X125116999Y-98346881D01*
X125119989Y-98351232D01*
X125163196Y-98417010D01*
X125163202Y-98417018D01*
X125165735Y-98420874D01*
X125184257Y-98441662D01*
X125192490Y-98451939D01*
X125199471Y-98461654D01*
X125203498Y-98465556D01*
X125276255Y-98536063D01*
X125277665Y-98537452D01*
X126685472Y-99945259D01*
X126696340Y-99957651D01*
X126706462Y-99970843D01*
X126706469Y-99970851D01*
X126709877Y-99975292D01*
X126747523Y-100009547D01*
X126770185Y-100030168D01*
X126774480Y-100034267D01*
X126790411Y-100050198D01*
X126810427Y-100066934D01*
X126814376Y-100070379D01*
X126871879Y-100122703D01*
X126871883Y-100122706D01*
X126876036Y-100126485D01*
X126880791Y-100129468D01*
X126880794Y-100129470D01*
X126891224Y-100136012D01*
X126905097Y-100146091D01*
X126914545Y-100153992D01*
X126914552Y-100153997D01*
X126918854Y-100157594D01*
X126923730Y-100160375D01*
X126991240Y-100198882D01*
X126995768Y-100201592D01*
X127061596Y-100242886D01*
X127061599Y-100242888D01*
X127066344Y-100245864D01*
X127071549Y-100247957D01*
X127071552Y-100247958D01*
X127082979Y-100252552D01*
X127098411Y-100260012D01*
X127109119Y-100266120D01*
X127109128Y-100266124D01*
X127113993Y-100268899D01*
X127119270Y-100270768D01*
X127119275Y-100270770D01*
X127192542Y-100296715D01*
X127197478Y-100298580D01*
X127274783Y-100329656D01*
X127280270Y-100330792D01*
X127280272Y-100330793D01*
X127292349Y-100333294D01*
X127308844Y-100337899D01*
X127325759Y-100343889D01*
X127408010Y-100357359D01*
X127413180Y-100358317D01*
X127494767Y-100375213D01*
X127499379Y-100375479D01*
X127499380Y-100375479D01*
X127522548Y-100376815D01*
X127535653Y-100378262D01*
X127541910Y-100379286D01*
X127541914Y-100379286D01*
X127547457Y-100380194D01*
X127553070Y-100380106D01*
X127553072Y-100380106D01*
X127654264Y-100378516D01*
X127656243Y-100378500D01*
X128667259Y-100378500D01*
X128735380Y-100398502D01*
X128781873Y-100452158D01*
X128791977Y-100522432D01*
X128762483Y-100587012D01*
X128742912Y-100605260D01*
X128699433Y-100637905D01*
X128691726Y-100644748D01*
X128544590Y-100798717D01*
X128538104Y-100806727D01*
X128418098Y-100982649D01*
X128413000Y-100991623D01*
X128323338Y-101184783D01*
X128319775Y-101194470D01*
X128264389Y-101394183D01*
X128265912Y-101402607D01*
X128278292Y-101406000D01*
X129728000Y-101406000D01*
X129796121Y-101426002D01*
X129842614Y-101479658D01*
X129854000Y-101532000D01*
X129854000Y-102978517D01*
X129858064Y-102992359D01*
X129871478Y-102994393D01*
X129878184Y-102993534D01*
X129888262Y-102991392D01*
X130092255Y-102930191D01*
X130101842Y-102926433D01*
X130293095Y-102832739D01*
X130301945Y-102827464D01*
X130475328Y-102703792D01*
X130483193Y-102697144D01*
X130516560Y-102663894D01*
X130578932Y-102629978D01*
X130649738Y-102635166D01*
X130706500Y-102677812D01*
X130731194Y-102744376D01*
X130731500Y-102753145D01*
X130731500Y-113062930D01*
X130730067Y-113081880D01*
X130726801Y-113103349D01*
X130727394Y-113110641D01*
X130727394Y-113110644D01*
X130731085Y-113156018D01*
X130731500Y-113166233D01*
X130731500Y-113174293D01*
X130731925Y-113177937D01*
X130734789Y-113202507D01*
X130735222Y-113206882D01*
X130736356Y-113220818D01*
X130741140Y-113279637D01*
X130743396Y-113286601D01*
X130744587Y-113292560D01*
X130745971Y-113298415D01*
X130746818Y-113305681D01*
X130771735Y-113374327D01*
X130773152Y-113378455D01*
X130793069Y-113439934D01*
X130795649Y-113447899D01*
X130799445Y-113454154D01*
X130801951Y-113459628D01*
X130804670Y-113465058D01*
X130807167Y-113471937D01*
X130811180Y-113478057D01*
X130811180Y-113478058D01*
X130847186Y-113532976D01*
X130849523Y-113536680D01*
X130887405Y-113599107D01*
X130891121Y-113603315D01*
X130891122Y-113603316D01*
X130894803Y-113607484D01*
X130894776Y-113607508D01*
X130897429Y-113610500D01*
X130900132Y-113613733D01*
X130904144Y-113619852D01*
X130909456Y-113624884D01*
X130960383Y-113673128D01*
X130962825Y-113675506D01*
X133016230Y-115728911D01*
X133028616Y-115743323D01*
X133037149Y-115754918D01*
X133037154Y-115754923D01*
X133041492Y-115760818D01*
X133047070Y-115765557D01*
X133047073Y-115765560D01*
X133081768Y-115795035D01*
X133089284Y-115801965D01*
X133094980Y-115807661D01*
X133097841Y-115809924D01*
X133097846Y-115809929D01*
X133117256Y-115825285D01*
X133120658Y-115828074D01*
X133176285Y-115875333D01*
X133182802Y-115878661D01*
X133187850Y-115882027D01*
X133192972Y-115885190D01*
X133198716Y-115889735D01*
X133264895Y-115920664D01*
X133268779Y-115922563D01*
X133333808Y-115955769D01*
X133340923Y-115957510D01*
X133346578Y-115959613D01*
X133352317Y-115961522D01*
X133358950Y-115964622D01*
X133430435Y-115979491D01*
X133434701Y-115980457D01*
X133505610Y-115997808D01*
X133511212Y-115998156D01*
X133511215Y-115998156D01*
X133516764Y-115998500D01*
X133516762Y-115998535D01*
X133520734Y-115998775D01*
X133524955Y-115999152D01*
X133532115Y-116000641D01*
X133609542Y-115998546D01*
X133612950Y-115998500D01*
X133868133Y-115998500D01*
X133936254Y-116018502D01*
X133971345Y-116052228D01*
X133993802Y-116084300D01*
X134155700Y-116246198D01*
X134160208Y-116249355D01*
X134160211Y-116249357D01*
X134235423Y-116302021D01*
X134343251Y-116377523D01*
X134348233Y-116379846D01*
X134348238Y-116379849D01*
X134382457Y-116395805D01*
X134435742Y-116442722D01*
X134455203Y-116510999D01*
X134434661Y-116578959D01*
X134382457Y-116624195D01*
X134348238Y-116640151D01*
X134348233Y-116640154D01*
X134343251Y-116642477D01*
X134238389Y-116715902D01*
X134160211Y-116770643D01*
X134160208Y-116770645D01*
X134155700Y-116773802D01*
X133993802Y-116935700D01*
X133862477Y-117123251D01*
X133860154Y-117128233D01*
X133860151Y-117128238D01*
X133857549Y-117133819D01*
X133765716Y-117330757D01*
X133706457Y-117551913D01*
X133686502Y-117780000D01*
X133706457Y-118008087D01*
X133765716Y-118229243D01*
X133768039Y-118234224D01*
X133768039Y-118234225D01*
X133860151Y-118431762D01*
X133860154Y-118431767D01*
X133862477Y-118436749D01*
X133993802Y-118624300D01*
X134155700Y-118786198D01*
X134160208Y-118789355D01*
X134160211Y-118789357D01*
X134238389Y-118844098D01*
X134343251Y-118917523D01*
X134348233Y-118919846D01*
X134348238Y-118919849D01*
X134382457Y-118935805D01*
X134435742Y-118982722D01*
X134455203Y-119050999D01*
X134434661Y-119118959D01*
X134382457Y-119164195D01*
X134348238Y-119180151D01*
X134348233Y-119180154D01*
X134343251Y-119182477D01*
X134238389Y-119255902D01*
X134160211Y-119310643D01*
X134160208Y-119310645D01*
X134155700Y-119313802D01*
X133993802Y-119475700D01*
X133990645Y-119480208D01*
X133990643Y-119480211D01*
X133971346Y-119507770D01*
X133862477Y-119663251D01*
X133860154Y-119668233D01*
X133860151Y-119668238D01*
X133768039Y-119865775D01*
X133765716Y-119870757D01*
X133706457Y-120091913D01*
X133686502Y-120320000D01*
X133706457Y-120548087D01*
X133707881Y-120553400D01*
X133707881Y-120553402D01*
X133762323Y-120756579D01*
X133765716Y-120769243D01*
X133768039Y-120774224D01*
X133768039Y-120774225D01*
X133860151Y-120971762D01*
X133860154Y-120971767D01*
X133862477Y-120976749D01*
X133993802Y-121164300D01*
X134155700Y-121326198D01*
X134160208Y-121329355D01*
X134160211Y-121329357D01*
X134238389Y-121384098D01*
X134343251Y-121457523D01*
X134348233Y-121459846D01*
X134348238Y-121459849D01*
X134382457Y-121475805D01*
X134435742Y-121522722D01*
X134455203Y-121590999D01*
X134434661Y-121658959D01*
X134382457Y-121704195D01*
X134348238Y-121720151D01*
X134348233Y-121720154D01*
X134343251Y-121722477D01*
X134238389Y-121795902D01*
X134160211Y-121850643D01*
X134160208Y-121850645D01*
X134155700Y-121853802D01*
X133993802Y-122015700D01*
X133990645Y-122020208D01*
X133990643Y-122020211D01*
X133971346Y-122047770D01*
X133862477Y-122203251D01*
X133860154Y-122208233D01*
X133860151Y-122208238D01*
X133768039Y-122405775D01*
X133765716Y-122410757D01*
X133764294Y-122416065D01*
X133764293Y-122416067D01*
X133733853Y-122529671D01*
X133706457Y-122631913D01*
X133686502Y-122860000D01*
X133706457Y-123088087D01*
X133707881Y-123093400D01*
X133707881Y-123093402D01*
X133756930Y-123276452D01*
X133765716Y-123309243D01*
X133768039Y-123314224D01*
X133768039Y-123314225D01*
X133860151Y-123511762D01*
X133860154Y-123511767D01*
X133862477Y-123516749D01*
X133993802Y-123704300D01*
X134155700Y-123866198D01*
X134160208Y-123869355D01*
X134160211Y-123869357D01*
X134238389Y-123924098D01*
X134343251Y-123997523D01*
X134348233Y-123999846D01*
X134348238Y-123999849D01*
X134382457Y-124015805D01*
X134435742Y-124062722D01*
X134455203Y-124130999D01*
X134434661Y-124198959D01*
X134382457Y-124244195D01*
X134348238Y-124260151D01*
X134348233Y-124260154D01*
X134343251Y-124262477D01*
X134238389Y-124335902D01*
X134160211Y-124390643D01*
X134160208Y-124390645D01*
X134155700Y-124393802D01*
X133993802Y-124555700D01*
X133862477Y-124743251D01*
X133860154Y-124748233D01*
X133860151Y-124748238D01*
X133769799Y-124942000D01*
X133765716Y-124950757D01*
X133764294Y-124956065D01*
X133764293Y-124956067D01*
X133707881Y-125166598D01*
X133706457Y-125171913D01*
X133686502Y-125400000D01*
X133706457Y-125628087D01*
X133707881Y-125633400D01*
X133707881Y-125633402D01*
X133717795Y-125670399D01*
X133765716Y-125849243D01*
X133768039Y-125854224D01*
X133768039Y-125854225D01*
X133860151Y-126051762D01*
X133860154Y-126051767D01*
X133862477Y-126056749D01*
X133993802Y-126244300D01*
X134155700Y-126406198D01*
X134160208Y-126409355D01*
X134160211Y-126409357D01*
X134238389Y-126464098D01*
X134343251Y-126537523D01*
X134348233Y-126539846D01*
X134348238Y-126539849D01*
X134382457Y-126555805D01*
X134435742Y-126602722D01*
X134455203Y-126670999D01*
X134434661Y-126738959D01*
X134382457Y-126784195D01*
X134348238Y-126800151D01*
X134348233Y-126800154D01*
X134343251Y-126802477D01*
X134281981Y-126845379D01*
X134160211Y-126930643D01*
X134160208Y-126930645D01*
X134155700Y-126933802D01*
X133993802Y-127095700D01*
X133990645Y-127100208D01*
X133990643Y-127100211D01*
X133971346Y-127127770D01*
X133862477Y-127283251D01*
X133860154Y-127288233D01*
X133860151Y-127288238D01*
X133769799Y-127482000D01*
X133765716Y-127490757D01*
X133764294Y-127496065D01*
X133764293Y-127496067D01*
X133733236Y-127611973D01*
X133706457Y-127711913D01*
X133686502Y-127940000D01*
X133706457Y-128168087D01*
X133707881Y-128173400D01*
X133707881Y-128173402D01*
X133762323Y-128376579D01*
X133765716Y-128389243D01*
X133768039Y-128394224D01*
X133768039Y-128394225D01*
X133860151Y-128591762D01*
X133860154Y-128591767D01*
X133862477Y-128596749D01*
X133993802Y-128784300D01*
X134155700Y-128946198D01*
X134160208Y-128949355D01*
X134160211Y-128949357D01*
X134238389Y-129004098D01*
X134343251Y-129077523D01*
X134348233Y-129079846D01*
X134348238Y-129079849D01*
X134382457Y-129095805D01*
X134435742Y-129142722D01*
X134455203Y-129210999D01*
X134434661Y-129278959D01*
X134382457Y-129324195D01*
X134348238Y-129340151D01*
X134348233Y-129340154D01*
X134343251Y-129342477D01*
X134238389Y-129415902D01*
X134160211Y-129470643D01*
X134160208Y-129470645D01*
X134155700Y-129473802D01*
X133993802Y-129635700D01*
X133990645Y-129640208D01*
X133990643Y-129640211D01*
X133962805Y-129679968D01*
X133862477Y-129823251D01*
X133860154Y-129828233D01*
X133860151Y-129828238D01*
X133768039Y-130025775D01*
X133765716Y-130030757D01*
X133706457Y-130251913D01*
X133686502Y-130480000D01*
X133706457Y-130708087D01*
X133707881Y-130713400D01*
X133707881Y-130713402D01*
X133710320Y-130722502D01*
X133765716Y-130929243D01*
X133768039Y-130934224D01*
X133768039Y-130934225D01*
X133860151Y-131131762D01*
X133860154Y-131131767D01*
X133862477Y-131136749D01*
X133993802Y-131324300D01*
X134155700Y-131486198D01*
X134160208Y-131489355D01*
X134160211Y-131489357D01*
X134163710Y-131491807D01*
X134343251Y-131617523D01*
X134348233Y-131619846D01*
X134348238Y-131619849D01*
X134382457Y-131635805D01*
X134435742Y-131682722D01*
X134455203Y-131750999D01*
X134434661Y-131818959D01*
X134382457Y-131864195D01*
X134348238Y-131880151D01*
X134348233Y-131880154D01*
X134343251Y-131882477D01*
X134238389Y-131955902D01*
X134160211Y-132010643D01*
X134160208Y-132010645D01*
X134155700Y-132013802D01*
X133993802Y-132175700D01*
X133862477Y-132363251D01*
X133860154Y-132368233D01*
X133860151Y-132368238D01*
X133790487Y-132517635D01*
X133765716Y-132570757D01*
X133764294Y-132576065D01*
X133764293Y-132576067D01*
X133707881Y-132786598D01*
X133706457Y-132791913D01*
X133686502Y-133020000D01*
X133706457Y-133248087D01*
X133707881Y-133253400D01*
X133707881Y-133253402D01*
X133749089Y-133407189D01*
X133765716Y-133469243D01*
X133768039Y-133474224D01*
X133768039Y-133474225D01*
X133860151Y-133671762D01*
X133860154Y-133671767D01*
X133862477Y-133676749D01*
X133993802Y-133864300D01*
X134155700Y-134026198D01*
X134160208Y-134029355D01*
X134160211Y-134029357D01*
X134223875Y-134073935D01*
X134343251Y-134157523D01*
X134348233Y-134159846D01*
X134348238Y-134159849D01*
X134382457Y-134175805D01*
X134435742Y-134222722D01*
X134455203Y-134290999D01*
X134434661Y-134358959D01*
X134382457Y-134404195D01*
X134348238Y-134420151D01*
X134348233Y-134420154D01*
X134343251Y-134422477D01*
X134310284Y-134445561D01*
X134160211Y-134550643D01*
X134160208Y-134550645D01*
X134155700Y-134553802D01*
X133993802Y-134715700D01*
X133862477Y-134903251D01*
X133860154Y-134908233D01*
X133860151Y-134908238D01*
X133768039Y-135105775D01*
X133765716Y-135110757D01*
X133764294Y-135116065D01*
X133764293Y-135116067D01*
X133726992Y-135255277D01*
X133706457Y-135331913D01*
X133686502Y-135560000D01*
X133706457Y-135788087D01*
X133765716Y-136009243D01*
X133768039Y-136014224D01*
X133768039Y-136014225D01*
X133860151Y-136211762D01*
X133860154Y-136211767D01*
X133862477Y-136216749D01*
X133993802Y-136404300D01*
X134155700Y-136566198D01*
X134160208Y-136569355D01*
X134160211Y-136569357D01*
X134189887Y-136590136D01*
X134343251Y-136697523D01*
X134348233Y-136699846D01*
X134348238Y-136699849D01*
X134544130Y-136791194D01*
X134550757Y-136794284D01*
X134556065Y-136795706D01*
X134556067Y-136795707D01*
X134766598Y-136852119D01*
X134766600Y-136852119D01*
X134771913Y-136853543D01*
X135000000Y-136873498D01*
X135228087Y-136853543D01*
X135233400Y-136852119D01*
X135233402Y-136852119D01*
X135443933Y-136795707D01*
X135443935Y-136795706D01*
X135449243Y-136794284D01*
X135455870Y-136791194D01*
X135651762Y-136699849D01*
X135651767Y-136699846D01*
X135656749Y-136697523D01*
X135810113Y-136590136D01*
X135839789Y-136569357D01*
X135839792Y-136569355D01*
X135844300Y-136566198D01*
X136006198Y-136404300D01*
X136137523Y-136216749D01*
X136139846Y-136211767D01*
X136139849Y-136211762D01*
X136231961Y-136014225D01*
X136231961Y-136014224D01*
X136234284Y-136009243D01*
X136293543Y-135788087D01*
X136313498Y-135560000D01*
X136293543Y-135331913D01*
X136273008Y-135255277D01*
X136235707Y-135116067D01*
X136235706Y-135116065D01*
X136234284Y-135110757D01*
X136231961Y-135105775D01*
X136139849Y-134908238D01*
X136139846Y-134908233D01*
X136137523Y-134903251D01*
X136006198Y-134715700D01*
X135844300Y-134553802D01*
X135839792Y-134550645D01*
X135839789Y-134550643D01*
X135689716Y-134445561D01*
X135656749Y-134422477D01*
X135651767Y-134420154D01*
X135651762Y-134420151D01*
X135617543Y-134404195D01*
X135564258Y-134357278D01*
X135544797Y-134289001D01*
X135565339Y-134221041D01*
X135617543Y-134175805D01*
X135651762Y-134159849D01*
X135651767Y-134159846D01*
X135656749Y-134157523D01*
X135776125Y-134073935D01*
X135839789Y-134029357D01*
X135839792Y-134029355D01*
X135844300Y-134026198D01*
X136006198Y-133864300D01*
X136137523Y-133676749D01*
X136139846Y-133671767D01*
X136139849Y-133671762D01*
X136231961Y-133474225D01*
X136231961Y-133474224D01*
X136234284Y-133469243D01*
X136250912Y-133407189D01*
X136292119Y-133253402D01*
X136292119Y-133253400D01*
X136293543Y-133248087D01*
X136313498Y-133020000D01*
X136293543Y-132791913D01*
X136292119Y-132786598D01*
X136235707Y-132576067D01*
X136235706Y-132576065D01*
X136234284Y-132570757D01*
X136209513Y-132517635D01*
X136139849Y-132368238D01*
X136139846Y-132368233D01*
X136137523Y-132363251D01*
X136006198Y-132175700D01*
X135844300Y-132013802D01*
X135839792Y-132010645D01*
X135839789Y-132010643D01*
X135761611Y-131955902D01*
X135656749Y-131882477D01*
X135651767Y-131880154D01*
X135651762Y-131880151D01*
X135617543Y-131864195D01*
X135564258Y-131817278D01*
X135544797Y-131749001D01*
X135565339Y-131681041D01*
X135617543Y-131635805D01*
X135651762Y-131619849D01*
X135651767Y-131619846D01*
X135656749Y-131617523D01*
X135836290Y-131491807D01*
X135839789Y-131489357D01*
X135839792Y-131489355D01*
X135844300Y-131486198D01*
X136006198Y-131324300D01*
X136137523Y-131136749D01*
X136139846Y-131131767D01*
X136139849Y-131131762D01*
X136231961Y-130934225D01*
X136231961Y-130934224D01*
X136234284Y-130929243D01*
X136289681Y-130722502D01*
X136292119Y-130713402D01*
X136292119Y-130713400D01*
X136293543Y-130708087D01*
X136313498Y-130480000D01*
X136293543Y-130251913D01*
X136234284Y-130030757D01*
X136231961Y-130025775D01*
X136139849Y-129828238D01*
X136139846Y-129828233D01*
X136137523Y-129823251D01*
X136037195Y-129679968D01*
X136009357Y-129640211D01*
X136009355Y-129640208D01*
X136006198Y-129635700D01*
X135844300Y-129473802D01*
X135839792Y-129470645D01*
X135839789Y-129470643D01*
X135761611Y-129415902D01*
X135656749Y-129342477D01*
X135651767Y-129340154D01*
X135651762Y-129340151D01*
X135617543Y-129324195D01*
X135564258Y-129277278D01*
X135544797Y-129209001D01*
X135565339Y-129141041D01*
X135617543Y-129095805D01*
X135651762Y-129079849D01*
X135651767Y-129079846D01*
X135656749Y-129077523D01*
X135761611Y-129004098D01*
X135839789Y-128949357D01*
X135839792Y-128949355D01*
X135844300Y-128946198D01*
X136006198Y-128784300D01*
X136137523Y-128596749D01*
X136139846Y-128591767D01*
X136139849Y-128591762D01*
X136231961Y-128394225D01*
X136231961Y-128394224D01*
X136234284Y-128389243D01*
X136237678Y-128376579D01*
X136292119Y-128173402D01*
X136292119Y-128173400D01*
X136293543Y-128168087D01*
X136313498Y-127940000D01*
X136293543Y-127711913D01*
X136266764Y-127611973D01*
X136235707Y-127496067D01*
X136235706Y-127496065D01*
X136234284Y-127490757D01*
X136230201Y-127482000D01*
X136139849Y-127288238D01*
X136139846Y-127288233D01*
X136137523Y-127283251D01*
X136028654Y-127127770D01*
X136009357Y-127100211D01*
X136009355Y-127100208D01*
X136006198Y-127095700D01*
X135844300Y-126933802D01*
X135839792Y-126930645D01*
X135839789Y-126930643D01*
X135718019Y-126845379D01*
X135656749Y-126802477D01*
X135651767Y-126800154D01*
X135651762Y-126800151D01*
X135617543Y-126784195D01*
X135564258Y-126737278D01*
X135544797Y-126669001D01*
X135565339Y-126601041D01*
X135617543Y-126555805D01*
X135651762Y-126539849D01*
X135651767Y-126539846D01*
X135656749Y-126537523D01*
X135761611Y-126464098D01*
X135839789Y-126409357D01*
X135839792Y-126409355D01*
X135844300Y-126406198D01*
X136006198Y-126244300D01*
X136137523Y-126056749D01*
X136139846Y-126051767D01*
X136139849Y-126051762D01*
X136231961Y-125854225D01*
X136231961Y-125854224D01*
X136234284Y-125849243D01*
X136282206Y-125670399D01*
X136292119Y-125633402D01*
X136292119Y-125633400D01*
X136293543Y-125628087D01*
X136313498Y-125400000D01*
X136293543Y-125171913D01*
X136292119Y-125166598D01*
X136235707Y-124956067D01*
X136235706Y-124956065D01*
X136234284Y-124950757D01*
X136230201Y-124942000D01*
X136139849Y-124748238D01*
X136139846Y-124748233D01*
X136137523Y-124743251D01*
X136006198Y-124555700D01*
X135844300Y-124393802D01*
X135839792Y-124390645D01*
X135839789Y-124390643D01*
X135761611Y-124335902D01*
X135656749Y-124262477D01*
X135651767Y-124260154D01*
X135651762Y-124260151D01*
X135617543Y-124244195D01*
X135564258Y-124197278D01*
X135544797Y-124129001D01*
X135565339Y-124061041D01*
X135617543Y-124015805D01*
X135651762Y-123999849D01*
X135651767Y-123999846D01*
X135656749Y-123997523D01*
X135761611Y-123924098D01*
X135839789Y-123869357D01*
X135839792Y-123869355D01*
X135844300Y-123866198D01*
X136006198Y-123704300D01*
X136137523Y-123516749D01*
X136139846Y-123511767D01*
X136139849Y-123511762D01*
X136231961Y-123314225D01*
X136231961Y-123314224D01*
X136234284Y-123309243D01*
X136243071Y-123276452D01*
X136292119Y-123093402D01*
X136292119Y-123093400D01*
X136293543Y-123088087D01*
X136313498Y-122860000D01*
X136293543Y-122631913D01*
X136266147Y-122529671D01*
X136235707Y-122416067D01*
X136235706Y-122416065D01*
X136234284Y-122410757D01*
X136231961Y-122405775D01*
X136139849Y-122208238D01*
X136139846Y-122208233D01*
X136137523Y-122203251D01*
X136028654Y-122047770D01*
X136009357Y-122020211D01*
X136009355Y-122020208D01*
X136006198Y-122015700D01*
X135844300Y-121853802D01*
X135839792Y-121850645D01*
X135839789Y-121850643D01*
X135761611Y-121795902D01*
X135656749Y-121722477D01*
X135651767Y-121720154D01*
X135651762Y-121720151D01*
X135617543Y-121704195D01*
X135564258Y-121657278D01*
X135544797Y-121589001D01*
X135565339Y-121521041D01*
X135617543Y-121475805D01*
X135651762Y-121459849D01*
X135651767Y-121459846D01*
X135656749Y-121457523D01*
X135761611Y-121384098D01*
X135839789Y-121329357D01*
X135839792Y-121329355D01*
X135844300Y-121326198D01*
X136006198Y-121164300D01*
X136137523Y-120976749D01*
X136139846Y-120971767D01*
X136139849Y-120971762D01*
X136231961Y-120774225D01*
X136231961Y-120774224D01*
X136234284Y-120769243D01*
X136237678Y-120756579D01*
X136292119Y-120553402D01*
X136292119Y-120553400D01*
X136293543Y-120548087D01*
X136313498Y-120320000D01*
X136293543Y-120091913D01*
X136234284Y-119870757D01*
X136231961Y-119865775D01*
X136139849Y-119668238D01*
X136139846Y-119668233D01*
X136137523Y-119663251D01*
X136028654Y-119507770D01*
X136009357Y-119480211D01*
X136009355Y-119480208D01*
X136006198Y-119475700D01*
X135844300Y-119313802D01*
X135839792Y-119310645D01*
X135839789Y-119310643D01*
X135761611Y-119255902D01*
X135656749Y-119182477D01*
X135651767Y-119180154D01*
X135651762Y-119180151D01*
X135617543Y-119164195D01*
X135564258Y-119117278D01*
X135544797Y-119049001D01*
X135565339Y-118981041D01*
X135617543Y-118935805D01*
X135651762Y-118919849D01*
X135651767Y-118919846D01*
X135656749Y-118917523D01*
X135761611Y-118844098D01*
X135839789Y-118789357D01*
X135839792Y-118789355D01*
X135844300Y-118786198D01*
X136006198Y-118624300D01*
X136137523Y-118436749D01*
X136139846Y-118431767D01*
X136139849Y-118431762D01*
X136231961Y-118234225D01*
X136231961Y-118234224D01*
X136234284Y-118229243D01*
X136293543Y-118008087D01*
X136313498Y-117780000D01*
X136293543Y-117551913D01*
X136234284Y-117330757D01*
X136142451Y-117133819D01*
X136139849Y-117128238D01*
X136139846Y-117128233D01*
X136137523Y-117123251D01*
X136006198Y-116935700D01*
X135844300Y-116773802D01*
X135839792Y-116770645D01*
X135839789Y-116770643D01*
X135761611Y-116715902D01*
X135656749Y-116642477D01*
X135651767Y-116640154D01*
X135651762Y-116640151D01*
X135617543Y-116624195D01*
X135564258Y-116577278D01*
X135544797Y-116509001D01*
X135565339Y-116441041D01*
X135617543Y-116395805D01*
X135651762Y-116379849D01*
X135651767Y-116379846D01*
X135656749Y-116377523D01*
X135764577Y-116302021D01*
X135839789Y-116249357D01*
X135839792Y-116249355D01*
X135844300Y-116246198D01*
X136006198Y-116084300D01*
X136137523Y-115896749D01*
X136139846Y-115891767D01*
X136139849Y-115891762D01*
X136231961Y-115694225D01*
X136231961Y-115694224D01*
X136234284Y-115689243D01*
X136293543Y-115468087D01*
X136313498Y-115240000D01*
X136293543Y-115011913D01*
X136291559Y-115004508D01*
X136235707Y-114796067D01*
X136235706Y-114796065D01*
X136234284Y-114790757D01*
X136193214Y-114702681D01*
X136139849Y-114588238D01*
X136139846Y-114588233D01*
X136137523Y-114583251D01*
X136052270Y-114461498D01*
X136009357Y-114400211D01*
X136009355Y-114400208D01*
X136006198Y-114395700D01*
X135844300Y-114233802D01*
X135839792Y-114230645D01*
X135839789Y-114230643D01*
X135739798Y-114160629D01*
X135656749Y-114102477D01*
X135651767Y-114100154D01*
X135651762Y-114100151D01*
X135617543Y-114084195D01*
X135564258Y-114037278D01*
X135544797Y-113969001D01*
X135565339Y-113901041D01*
X135617543Y-113855805D01*
X135651762Y-113839849D01*
X135651767Y-113839846D01*
X135656749Y-113837523D01*
X135761611Y-113764098D01*
X135839789Y-113709357D01*
X135839792Y-113709355D01*
X135844300Y-113706198D01*
X136006198Y-113544300D01*
X136137523Y-113356749D01*
X136139846Y-113351767D01*
X136139849Y-113351762D01*
X136231961Y-113154225D01*
X136231961Y-113154224D01*
X136234284Y-113149243D01*
X136246582Y-113103349D01*
X136292119Y-112933402D01*
X136292119Y-112933400D01*
X136293543Y-112928087D01*
X136313498Y-112700000D01*
X136293543Y-112471913D01*
X136234284Y-112250757D01*
X136231961Y-112245775D01*
X136139849Y-112048238D01*
X136139846Y-112048233D01*
X136137523Y-112043251D01*
X136055877Y-111926649D01*
X136009357Y-111860211D01*
X136009355Y-111860208D01*
X136006198Y-111855700D01*
X135844300Y-111693802D01*
X135839792Y-111690645D01*
X135839789Y-111690643D01*
X135761611Y-111635902D01*
X135656749Y-111562477D01*
X135651767Y-111560154D01*
X135651762Y-111560151D01*
X135617543Y-111544195D01*
X135564258Y-111497278D01*
X135544797Y-111429001D01*
X135565339Y-111361041D01*
X135617543Y-111315805D01*
X135651762Y-111299849D01*
X135651767Y-111299846D01*
X135656749Y-111297523D01*
X135761611Y-111224098D01*
X135839789Y-111169357D01*
X135839792Y-111169355D01*
X135844300Y-111166198D01*
X136006198Y-111004300D01*
X136137523Y-110816749D01*
X136139846Y-110811767D01*
X136139849Y-110811762D01*
X136231961Y-110614225D01*
X136231961Y-110614224D01*
X136234284Y-110609243D01*
X136293543Y-110388087D01*
X136313498Y-110160000D01*
X136293543Y-109931913D01*
X136234284Y-109710757D01*
X136231001Y-109703717D01*
X136139849Y-109508238D01*
X136139846Y-109508233D01*
X136137523Y-109503251D01*
X136036062Y-109358350D01*
X136009357Y-109320211D01*
X136009355Y-109320208D01*
X136006198Y-109315700D01*
X135844300Y-109153802D01*
X135839792Y-109150645D01*
X135839789Y-109150643D01*
X135761611Y-109095902D01*
X135656749Y-109022477D01*
X135651767Y-109020154D01*
X135651762Y-109020151D01*
X135616951Y-109003919D01*
X135563666Y-108957002D01*
X135544205Y-108888725D01*
X135564747Y-108820765D01*
X135616951Y-108775529D01*
X135651511Y-108759414D01*
X135661007Y-108753931D01*
X135839467Y-108628972D01*
X135847875Y-108621916D01*
X136001916Y-108467875D01*
X136008972Y-108459467D01*
X136133931Y-108281007D01*
X136139414Y-108271511D01*
X136231490Y-108074053D01*
X136235236Y-108063761D01*
X136281394Y-107891497D01*
X136281058Y-107877401D01*
X136273116Y-107874000D01*
X134872000Y-107874000D01*
X134803879Y-107853998D01*
X134757386Y-107800342D01*
X134746000Y-107748000D01*
X134746000Y-107492000D01*
X134766002Y-107423879D01*
X134819658Y-107377386D01*
X134872000Y-107366000D01*
X136267967Y-107366000D01*
X136281498Y-107362027D01*
X136282727Y-107353478D01*
X136235236Y-107176239D01*
X136231490Y-107165947D01*
X136139414Y-106968489D01*
X136133931Y-106958993D01*
X136008972Y-106780533D01*
X136001916Y-106772125D01*
X135847875Y-106618084D01*
X135839467Y-106611028D01*
X135661007Y-106486069D01*
X135651511Y-106480586D01*
X135616951Y-106464471D01*
X135563666Y-106417554D01*
X135544205Y-106349277D01*
X135564747Y-106281317D01*
X135616951Y-106236081D01*
X135651762Y-106219849D01*
X135651767Y-106219846D01*
X135656749Y-106217523D01*
X135791743Y-106122999D01*
X135839789Y-106089357D01*
X135839792Y-106089355D01*
X135844300Y-106086198D01*
X136006198Y-105924300D01*
X136040889Y-105874757D01*
X136134366Y-105741257D01*
X136137523Y-105736749D01*
X136139846Y-105731767D01*
X136139849Y-105731762D01*
X136231961Y-105534225D01*
X136231961Y-105534224D01*
X136234284Y-105529243D01*
X136282206Y-105350399D01*
X136292119Y-105313402D01*
X136292119Y-105313400D01*
X136293543Y-105308087D01*
X136313498Y-105080000D01*
X136293543Y-104851913D01*
X136292119Y-104846598D01*
X136235707Y-104636067D01*
X136235706Y-104636065D01*
X136234284Y-104630757D01*
X136230201Y-104622000D01*
X136139849Y-104428238D01*
X136139846Y-104428233D01*
X136137523Y-104423251D01*
X136006198Y-104235700D01*
X135844300Y-104073802D01*
X135839792Y-104070645D01*
X135839789Y-104070643D01*
X135761611Y-104015902D01*
X135656749Y-103942477D01*
X135651767Y-103940154D01*
X135651762Y-103940151D01*
X135617543Y-103924195D01*
X135564258Y-103877278D01*
X135544797Y-103809001D01*
X135565339Y-103741041D01*
X135617543Y-103695805D01*
X135651762Y-103679849D01*
X135651767Y-103679846D01*
X135656749Y-103677523D01*
X135775763Y-103594188D01*
X135839789Y-103549357D01*
X135839792Y-103549355D01*
X135844300Y-103546198D01*
X136006198Y-103384300D01*
X136137523Y-103196749D01*
X136139846Y-103191767D01*
X136139849Y-103191762D01*
X136231961Y-102994225D01*
X136231961Y-102994224D01*
X136234284Y-102989243D01*
X136243071Y-102956452D01*
X136292119Y-102773402D01*
X136292119Y-102773400D01*
X136293543Y-102768087D01*
X136313498Y-102540000D01*
X136293543Y-102311913D01*
X136266147Y-102209671D01*
X136235707Y-102096067D01*
X136235706Y-102096065D01*
X136234284Y-102090757D01*
X136225666Y-102072275D01*
X136139849Y-101888238D01*
X136139846Y-101888233D01*
X136137523Y-101883251D01*
X136060785Y-101773658D01*
X136009357Y-101700211D01*
X136009355Y-101700208D01*
X136006198Y-101695700D01*
X135844300Y-101533802D01*
X135839789Y-101530643D01*
X135835576Y-101527108D01*
X135836527Y-101525974D01*
X135796529Y-101475929D01*
X135789224Y-101405310D01*
X135821258Y-101341951D01*
X135882462Y-101305970D01*
X135899517Y-101302918D01*
X135910316Y-101301745D01*
X136046705Y-101250615D01*
X136163261Y-101163261D01*
X136250615Y-101046705D01*
X136301745Y-100910316D01*
X136308500Y-100848134D01*
X136308500Y-99151866D01*
X136301745Y-99089684D01*
X136250615Y-98953295D01*
X136163261Y-98836739D01*
X136046705Y-98749385D01*
X135910316Y-98698255D01*
X135848134Y-98691500D01*
X134151866Y-98691500D01*
X134089684Y-98698255D01*
X134082287Y-98701028D01*
X134082283Y-98701029D01*
X134069727Y-98705736D01*
X133998920Y-98710918D01*
X133936552Y-98676995D01*
X133902424Y-98614739D01*
X133899500Y-98587753D01*
X133899500Y-93512063D01*
X133900933Y-93493114D01*
X133900964Y-93492907D01*
X133904198Y-93471651D01*
X133902821Y-93454712D01*
X133899915Y-93418991D01*
X133899500Y-93408777D01*
X133899500Y-93400707D01*
X133899078Y-93397087D01*
X133899077Y-93397069D01*
X133896208Y-93372461D01*
X133895775Y-93368086D01*
X133890454Y-93302661D01*
X133890453Y-93302658D01*
X133889860Y-93295363D01*
X133887604Y-93288399D01*
X133886413Y-93282440D01*
X133885029Y-93276585D01*
X133884182Y-93269319D01*
X133859265Y-93200673D01*
X133857848Y-93196545D01*
X133837607Y-93134064D01*
X133837606Y-93134062D01*
X133835351Y-93127101D01*
X133831555Y-93120846D01*
X133829049Y-93115372D01*
X133826330Y-93109942D01*
X133823833Y-93103063D01*
X133783809Y-93042016D01*
X133781472Y-93038312D01*
X133746509Y-92980693D01*
X133746505Y-92980688D01*
X133743595Y-92975892D01*
X133736197Y-92967516D01*
X133736223Y-92967493D01*
X133733574Y-92964503D01*
X133730866Y-92961264D01*
X133726856Y-92955148D01*
X133721549Y-92950121D01*
X133721546Y-92950117D01*
X133670617Y-92901872D01*
X133668175Y-92899494D01*
X131779770Y-91011089D01*
X131767384Y-90996677D01*
X131758851Y-90985082D01*
X131758846Y-90985077D01*
X131754508Y-90979182D01*
X131748930Y-90974443D01*
X131748927Y-90974440D01*
X131714232Y-90944965D01*
X131706716Y-90938035D01*
X131701021Y-90932340D01*
X131694880Y-90927482D01*
X131678749Y-90914719D01*
X131675345Y-90911928D01*
X131625297Y-90869409D01*
X131625295Y-90869408D01*
X131619715Y-90864667D01*
X131613199Y-90861339D01*
X131608150Y-90857972D01*
X131603021Y-90854805D01*
X131597284Y-90850266D01*
X131531125Y-90819345D01*
X131527225Y-90817439D01*
X131462192Y-90784231D01*
X131455084Y-90782492D01*
X131449441Y-90780393D01*
X131443678Y-90778476D01*
X131437050Y-90775378D01*
X131365583Y-90760513D01*
X131361299Y-90759543D01*
X131290390Y-90742192D01*
X131284788Y-90741844D01*
X131284785Y-90741844D01*
X131279236Y-90741500D01*
X131279238Y-90741464D01*
X131275245Y-90741225D01*
X131271053Y-90740851D01*
X131263885Y-90739360D01*
X131197675Y-90741151D01*
X131186479Y-90741454D01*
X131183072Y-90741500D01*
X130795939Y-90741500D01*
X130727818Y-90721498D01*
X130690147Y-90683941D01*
X130682818Y-90672612D01*
X130680014Y-90668277D01*
X130529670Y-90503051D01*
X130525619Y-90499852D01*
X130525615Y-90499848D01*
X130358414Y-90367800D01*
X130358410Y-90367798D01*
X130354359Y-90364598D01*
X130312569Y-90341529D01*
X130262598Y-90291097D01*
X130247826Y-90221654D01*
X130272942Y-90155248D01*
X130300294Y-90128641D01*
X130475328Y-90003792D01*
X130483200Y-89997139D01*
X130634052Y-89846812D01*
X130640730Y-89838965D01*
X130765003Y-89666020D01*
X130770313Y-89657183D01*
X130864670Y-89466267D01*
X130868469Y-89456672D01*
X130930377Y-89252910D01*
X130932555Y-89242837D01*
X130933986Y-89231962D01*
X130931775Y-89217778D01*
X130918617Y-89214000D01*
X128283225Y-89214000D01*
X128269694Y-89217973D01*
X128268257Y-89227966D01*
X128298565Y-89362446D01*
X128301645Y-89372275D01*
X128381770Y-89569603D01*
X128386413Y-89578794D01*
X128497694Y-89760388D01*
X128503777Y-89768699D01*
X128643213Y-89929667D01*
X128650580Y-89936883D01*
X128814434Y-90072916D01*
X128822881Y-90078831D01*
X128891969Y-90119203D01*
X128940693Y-90170842D01*
X128953764Y-90240625D01*
X128927033Y-90306396D01*
X128886584Y-90339752D01*
X128873607Y-90346507D01*
X128869474Y-90349610D01*
X128869471Y-90349612D01*
X128845247Y-90367800D01*
X128694965Y-90480635D01*
X128540629Y-90642138D01*
X128414743Y-90826680D01*
X128403795Y-90850266D01*
X128329144Y-91011089D01*
X128320688Y-91029305D01*
X128260989Y-91244570D01*
X128237251Y-91466695D01*
X128250110Y-91689715D01*
X128251247Y-91694761D01*
X128251248Y-91694767D01*
X128274862Y-91799545D01*
X128299222Y-91907639D01*
X128383266Y-92114616D01*
X128499987Y-92305088D01*
X128646250Y-92473938D01*
X128818126Y-92616632D01*
X128888595Y-92657811D01*
X128891445Y-92659476D01*
X128940169Y-92711114D01*
X128953240Y-92780897D01*
X128926509Y-92846669D01*
X128886055Y-92880027D01*
X128873607Y-92886507D01*
X128869474Y-92889610D01*
X128869471Y-92889612D01*
X128699100Y-93017530D01*
X128694965Y-93020635D01*
X128676605Y-93039848D01*
X128571735Y-93149588D01*
X128540629Y-93182138D01*
X128537715Y-93186410D01*
X128537714Y-93186411D01*
X128486493Y-93261498D01*
X128414743Y-93366680D01*
X128394909Y-93409409D01*
X128329144Y-93551089D01*
X128320688Y-93569305D01*
X128260989Y-93784570D01*
X128237251Y-94006695D01*
X128237548Y-94011848D01*
X128237548Y-94011851D01*
X128249449Y-94218243D01*
X128250110Y-94229715D01*
X128251247Y-94234761D01*
X128251248Y-94234767D01*
X128275304Y-94341508D01*
X128299222Y-94447639D01*
X128383266Y-94654616D01*
X128499987Y-94845088D01*
X128646250Y-95013938D01*
X128818126Y-95156632D01*
X128888595Y-95197811D01*
X128891445Y-95199476D01*
X128940169Y-95251114D01*
X128953240Y-95320897D01*
X128926509Y-95386669D01*
X128886055Y-95420027D01*
X128873607Y-95426507D01*
X128869474Y-95429610D01*
X128869471Y-95429612D01*
X128845247Y-95447800D01*
X128694965Y-95560635D01*
X128540629Y-95722138D01*
X128414743Y-95906680D01*
X128412564Y-95911375D01*
X128329144Y-96091089D01*
X128320688Y-96109305D01*
X128260989Y-96324570D01*
X128237251Y-96546695D01*
X128237548Y-96551848D01*
X128237548Y-96551851D01*
X128242228Y-96633009D01*
X128250110Y-96769715D01*
X128251247Y-96774761D01*
X128251248Y-96774767D01*
X128275304Y-96881508D01*
X128299222Y-96987639D01*
X128383266Y-97194616D01*
X128499987Y-97385088D01*
X128646250Y-97553938D01*
X128654818Y-97561051D01*
X128748173Y-97638556D01*
X128787808Y-97697458D01*
X128789306Y-97768439D01*
X128752191Y-97828962D01*
X128688247Y-97859811D01*
X128667688Y-97861500D01*
X128213478Y-97861500D01*
X128145357Y-97841498D01*
X128124382Y-97824595D01*
X127451404Y-97151616D01*
X127417379Y-97089304D01*
X127414500Y-97062521D01*
X127414500Y-84155396D01*
X127434502Y-84087275D01*
X127451401Y-84066305D01*
X128063746Y-83453960D01*
X128126057Y-83419936D01*
X128196873Y-83425001D01*
X128253708Y-83467548D01*
X128278519Y-83534068D01*
X128274257Y-83576726D01*
X128260989Y-83624570D01*
X128237251Y-83846695D01*
X128237548Y-83851848D01*
X128237548Y-83851851D01*
X128248496Y-84041715D01*
X128250110Y-84069715D01*
X128251247Y-84074761D01*
X128251248Y-84074767D01*
X128273149Y-84171946D01*
X128299222Y-84287639D01*
X128336760Y-84380084D01*
X128377675Y-84480846D01*
X128383266Y-84494616D01*
X128385965Y-84499020D01*
X128473308Y-84641551D01*
X128499987Y-84685088D01*
X128646250Y-84853938D01*
X128818126Y-84996632D01*
X128888595Y-85037811D01*
X128891445Y-85039476D01*
X128940169Y-85091114D01*
X128953240Y-85160897D01*
X128926509Y-85226669D01*
X128886055Y-85260027D01*
X128873607Y-85266507D01*
X128869474Y-85269610D01*
X128869471Y-85269612D01*
X128699100Y-85397530D01*
X128694965Y-85400635D01*
X128540629Y-85562138D01*
X128414743Y-85746680D01*
X128403795Y-85770266D01*
X128324608Y-85940861D01*
X128320688Y-85949305D01*
X128260989Y-86164570D01*
X128237251Y-86386695D01*
X128250110Y-86609715D01*
X128251247Y-86614761D01*
X128251248Y-86614767D01*
X128275304Y-86721508D01*
X128299222Y-86827639D01*
X128383266Y-87034616D01*
X128385965Y-87039020D01*
X128445995Y-87136980D01*
X128499987Y-87225088D01*
X128646250Y-87393938D01*
X128818126Y-87536632D01*
X128838068Y-87548285D01*
X128891955Y-87579774D01*
X128940679Y-87631412D01*
X128953750Y-87701195D01*
X128927019Y-87766967D01*
X128886562Y-87800327D01*
X128878457Y-87804546D01*
X128869738Y-87810036D01*
X128699433Y-87937905D01*
X128691726Y-87944748D01*
X128544590Y-88098717D01*
X128538104Y-88106727D01*
X128418098Y-88282649D01*
X128413000Y-88291623D01*
X128323338Y-88484783D01*
X128319775Y-88494470D01*
X128264389Y-88694183D01*
X128265912Y-88702607D01*
X128278292Y-88706000D01*
X130918344Y-88706000D01*
X130931875Y-88702027D01*
X130933180Y-88692947D01*
X130891214Y-88525875D01*
X130887894Y-88516124D01*
X130802972Y-88320814D01*
X130798105Y-88311739D01*
X130682426Y-88132926D01*
X130676136Y-88124757D01*
X130532806Y-87967240D01*
X130525273Y-87960215D01*
X130358139Y-87828222D01*
X130349556Y-87822520D01*
X130312602Y-87802120D01*
X130262631Y-87751687D01*
X130247859Y-87682245D01*
X130272975Y-87615839D01*
X130300327Y-87589232D01*
X130357733Y-87548285D01*
X130479860Y-87461173D01*
X130507481Y-87433649D01*
X130634435Y-87307137D01*
X130638096Y-87303489D01*
X130642324Y-87297606D01*
X130690203Y-87230974D01*
X130746198Y-87187326D01*
X130792526Y-87178500D01*
X131845629Y-87178500D01*
X131913750Y-87198502D01*
X131934724Y-87215405D01*
X137806595Y-93087276D01*
X137840621Y-93149588D01*
X137843500Y-93176371D01*
X137843500Y-114459930D01*
X137842067Y-114478880D01*
X137838801Y-114500349D01*
X137839394Y-114507641D01*
X137839394Y-114507644D01*
X137843085Y-114553018D01*
X137843500Y-114563233D01*
X137843500Y-114571293D01*
X137843925Y-114574937D01*
X137846789Y-114599507D01*
X137847222Y-114603882D01*
X137853140Y-114676637D01*
X137855396Y-114683601D01*
X137856587Y-114689560D01*
X137857971Y-114695415D01*
X137858818Y-114702681D01*
X137883735Y-114771327D01*
X137885152Y-114775455D01*
X137907649Y-114844899D01*
X137911445Y-114851154D01*
X137913951Y-114856628D01*
X137916670Y-114862058D01*
X137919167Y-114868937D01*
X137923180Y-114875057D01*
X137923180Y-114875058D01*
X137959186Y-114929976D01*
X137961523Y-114933680D01*
X137999405Y-114996107D01*
X138003121Y-115000315D01*
X138003122Y-115000316D01*
X138006803Y-115004484D01*
X138006776Y-115004508D01*
X138009429Y-115007500D01*
X138012132Y-115010733D01*
X138016144Y-115016852D01*
X138021456Y-115021884D01*
X138072383Y-115070128D01*
X138074825Y-115072506D01*
X141271230Y-118268911D01*
X141283616Y-118283323D01*
X141292149Y-118294918D01*
X141292154Y-118294923D01*
X141296492Y-118300818D01*
X141302070Y-118305557D01*
X141302073Y-118305560D01*
X141336768Y-118335035D01*
X141344284Y-118341965D01*
X141349980Y-118347661D01*
X141352841Y-118349924D01*
X141352846Y-118349929D01*
X141372266Y-118365293D01*
X141375667Y-118368082D01*
X141431285Y-118415333D01*
X141437798Y-118418659D01*
X141442837Y-118422020D01*
X141447979Y-118425196D01*
X141453716Y-118429734D01*
X141519875Y-118460655D01*
X141523769Y-118462558D01*
X141588808Y-118495769D01*
X141595917Y-118497508D01*
X141601551Y-118499604D01*
X141607321Y-118501523D01*
X141613950Y-118504622D01*
X141621113Y-118506112D01*
X141621116Y-118506113D01*
X141671830Y-118516661D01*
X141685435Y-118519491D01*
X141689701Y-118520457D01*
X141760610Y-118537808D01*
X141766212Y-118538156D01*
X141766215Y-118538156D01*
X141771764Y-118538500D01*
X141771762Y-118538535D01*
X141775734Y-118538775D01*
X141779955Y-118539152D01*
X141787115Y-118540641D01*
X141864542Y-118538546D01*
X141867950Y-118538500D01*
X149108133Y-118538500D01*
X149176254Y-118558502D01*
X149211345Y-118592228D01*
X149233802Y-118624300D01*
X149395700Y-118786198D01*
X149400208Y-118789355D01*
X149400211Y-118789357D01*
X149478389Y-118844098D01*
X149583251Y-118917523D01*
X149588233Y-118919846D01*
X149588238Y-118919849D01*
X149622457Y-118935805D01*
X149675742Y-118982722D01*
X149695203Y-119050999D01*
X149674661Y-119118959D01*
X149622457Y-119164195D01*
X149588238Y-119180151D01*
X149588233Y-119180154D01*
X149583251Y-119182477D01*
X149478389Y-119255902D01*
X149400211Y-119310643D01*
X149400208Y-119310645D01*
X149395700Y-119313802D01*
X149233802Y-119475700D01*
X149230645Y-119480208D01*
X149230643Y-119480211D01*
X149211346Y-119507770D01*
X149102477Y-119663251D01*
X149100154Y-119668233D01*
X149100151Y-119668238D01*
X149008039Y-119865775D01*
X149005716Y-119870757D01*
X148946457Y-120091913D01*
X148926502Y-120320000D01*
X148946457Y-120548087D01*
X148947881Y-120553400D01*
X148947881Y-120553402D01*
X149002323Y-120756579D01*
X149005716Y-120769243D01*
X149008039Y-120774224D01*
X149008039Y-120774225D01*
X149100151Y-120971762D01*
X149100154Y-120971767D01*
X149102477Y-120976749D01*
X149233802Y-121164300D01*
X149395700Y-121326198D01*
X149400208Y-121329355D01*
X149400211Y-121329357D01*
X149478389Y-121384098D01*
X149583251Y-121457523D01*
X149588233Y-121459846D01*
X149588238Y-121459849D01*
X149622457Y-121475805D01*
X149675742Y-121522722D01*
X149695203Y-121590999D01*
X149674661Y-121658959D01*
X149622457Y-121704195D01*
X149588238Y-121720151D01*
X149588233Y-121720154D01*
X149583251Y-121722477D01*
X149478389Y-121795902D01*
X149400211Y-121850643D01*
X149400208Y-121850645D01*
X149395700Y-121853802D01*
X149233802Y-122015700D01*
X149230645Y-122020208D01*
X149230643Y-122020211D01*
X149211346Y-122047770D01*
X149102477Y-122203251D01*
X149100154Y-122208233D01*
X149100151Y-122208238D01*
X149008039Y-122405775D01*
X149005716Y-122410757D01*
X149004294Y-122416065D01*
X149004293Y-122416067D01*
X148973853Y-122529671D01*
X148946457Y-122631913D01*
X148926502Y-122860000D01*
X148946457Y-123088087D01*
X148947881Y-123093400D01*
X148947881Y-123093402D01*
X148996930Y-123276452D01*
X149005716Y-123309243D01*
X149008039Y-123314224D01*
X149008039Y-123314225D01*
X149100151Y-123511762D01*
X149100154Y-123511767D01*
X149102477Y-123516749D01*
X149233802Y-123704300D01*
X149395700Y-123866198D01*
X149400208Y-123869355D01*
X149400211Y-123869357D01*
X149478389Y-123924098D01*
X149583251Y-123997523D01*
X149588233Y-123999846D01*
X149588238Y-123999849D01*
X149622457Y-124015805D01*
X149675742Y-124062722D01*
X149695203Y-124130999D01*
X149674661Y-124198959D01*
X149622457Y-124244195D01*
X149588238Y-124260151D01*
X149588233Y-124260154D01*
X149583251Y-124262477D01*
X149478389Y-124335902D01*
X149400211Y-124390643D01*
X149400208Y-124390645D01*
X149395700Y-124393802D01*
X149233802Y-124555700D01*
X149102477Y-124743251D01*
X149100154Y-124748233D01*
X149100151Y-124748238D01*
X149009799Y-124942000D01*
X149005716Y-124950757D01*
X149004294Y-124956065D01*
X149004293Y-124956067D01*
X148947881Y-125166598D01*
X148946457Y-125171913D01*
X148926502Y-125400000D01*
X148946457Y-125628087D01*
X148947881Y-125633400D01*
X148947881Y-125633402D01*
X148957795Y-125670399D01*
X149005716Y-125849243D01*
X149008039Y-125854224D01*
X149008039Y-125854225D01*
X149100151Y-126051762D01*
X149100154Y-126051767D01*
X149102477Y-126056749D01*
X149233802Y-126244300D01*
X149395700Y-126406198D01*
X149400208Y-126409355D01*
X149400211Y-126409357D01*
X149478389Y-126464098D01*
X149583251Y-126537523D01*
X149588233Y-126539846D01*
X149588238Y-126539849D01*
X149622457Y-126555805D01*
X149675742Y-126602722D01*
X149695203Y-126670999D01*
X149674661Y-126738959D01*
X149622457Y-126784195D01*
X149588238Y-126800151D01*
X149588233Y-126800154D01*
X149583251Y-126802477D01*
X149521981Y-126845379D01*
X149400211Y-126930643D01*
X149400208Y-126930645D01*
X149395700Y-126933802D01*
X149233802Y-127095700D01*
X149230645Y-127100208D01*
X149230643Y-127100211D01*
X149211346Y-127127770D01*
X149102477Y-127283251D01*
X149100154Y-127288233D01*
X149100151Y-127288238D01*
X149009799Y-127482000D01*
X149005716Y-127490757D01*
X149004294Y-127496065D01*
X149004293Y-127496067D01*
X148973236Y-127611973D01*
X148946457Y-127711913D01*
X148926502Y-127940000D01*
X148946457Y-128168087D01*
X148947881Y-128173400D01*
X148947881Y-128173402D01*
X149002323Y-128376579D01*
X149005716Y-128389243D01*
X149008039Y-128394224D01*
X149008039Y-128394225D01*
X149100151Y-128591762D01*
X149100154Y-128591767D01*
X149102477Y-128596749D01*
X149233802Y-128784300D01*
X149395700Y-128946198D01*
X149400208Y-128949355D01*
X149400211Y-128949357D01*
X149478389Y-129004098D01*
X149583251Y-129077523D01*
X149588233Y-129079846D01*
X149588238Y-129079849D01*
X149622457Y-129095805D01*
X149675742Y-129142722D01*
X149695203Y-129210999D01*
X149674661Y-129278959D01*
X149622457Y-129324195D01*
X149588238Y-129340151D01*
X149588233Y-129340154D01*
X149583251Y-129342477D01*
X149478389Y-129415902D01*
X149400211Y-129470643D01*
X149400208Y-129470645D01*
X149395700Y-129473802D01*
X149233802Y-129635700D01*
X149230645Y-129640208D01*
X149230643Y-129640211D01*
X149202805Y-129679968D01*
X149102477Y-129823251D01*
X149100154Y-129828233D01*
X149100151Y-129828238D01*
X149008039Y-130025775D01*
X149005716Y-130030757D01*
X148946457Y-130251913D01*
X148926502Y-130480000D01*
X148946457Y-130708087D01*
X148947881Y-130713400D01*
X148947881Y-130713402D01*
X148950320Y-130722502D01*
X149005716Y-130929243D01*
X149008039Y-130934224D01*
X149008039Y-130934225D01*
X149100151Y-131131762D01*
X149100154Y-131131767D01*
X149102477Y-131136749D01*
X149233802Y-131324300D01*
X149395700Y-131486198D01*
X149400208Y-131489355D01*
X149400211Y-131489357D01*
X149403710Y-131491807D01*
X149583251Y-131617523D01*
X149588233Y-131619846D01*
X149588238Y-131619849D01*
X149622457Y-131635805D01*
X149675742Y-131682722D01*
X149695203Y-131750999D01*
X149674661Y-131818959D01*
X149622457Y-131864195D01*
X149588238Y-131880151D01*
X149588233Y-131880154D01*
X149583251Y-131882477D01*
X149478389Y-131955902D01*
X149400211Y-132010643D01*
X149400208Y-132010645D01*
X149395700Y-132013802D01*
X149233802Y-132175700D01*
X149102477Y-132363251D01*
X149100154Y-132368233D01*
X149100151Y-132368238D01*
X149030487Y-132517635D01*
X149005716Y-132570757D01*
X149004294Y-132576065D01*
X149004293Y-132576067D01*
X148947881Y-132786598D01*
X148946457Y-132791913D01*
X148926502Y-133020000D01*
X148946457Y-133248087D01*
X148947881Y-133253400D01*
X148947881Y-133253402D01*
X148989089Y-133407189D01*
X149005716Y-133469243D01*
X149008039Y-133474224D01*
X149008039Y-133474225D01*
X149100151Y-133671762D01*
X149100154Y-133671767D01*
X149102477Y-133676749D01*
X149233802Y-133864300D01*
X149395700Y-134026198D01*
X149400208Y-134029355D01*
X149400211Y-134029357D01*
X149463875Y-134073935D01*
X149583251Y-134157523D01*
X149588233Y-134159846D01*
X149588238Y-134159849D01*
X149622457Y-134175805D01*
X149675742Y-134222722D01*
X149695203Y-134290999D01*
X149674661Y-134358959D01*
X149622457Y-134404195D01*
X149588238Y-134420151D01*
X149588233Y-134420154D01*
X149583251Y-134422477D01*
X149550284Y-134445561D01*
X149400211Y-134550643D01*
X149400208Y-134550645D01*
X149395700Y-134553802D01*
X149233802Y-134715700D01*
X149102477Y-134903251D01*
X149100154Y-134908233D01*
X149100151Y-134908238D01*
X149008039Y-135105775D01*
X149005716Y-135110757D01*
X149004294Y-135116065D01*
X149004293Y-135116067D01*
X148966992Y-135255277D01*
X148946457Y-135331913D01*
X148926502Y-135560000D01*
X148946457Y-135788087D01*
X149005716Y-136009243D01*
X149008039Y-136014224D01*
X149008039Y-136014225D01*
X149100151Y-136211762D01*
X149100154Y-136211767D01*
X149102477Y-136216749D01*
X149233802Y-136404300D01*
X149395700Y-136566198D01*
X149400208Y-136569355D01*
X149400211Y-136569357D01*
X149429887Y-136590136D01*
X149583251Y-136697523D01*
X149588233Y-136699846D01*
X149588238Y-136699849D01*
X149784130Y-136791194D01*
X149790757Y-136794284D01*
X149796065Y-136795706D01*
X149796067Y-136795707D01*
X150006598Y-136852119D01*
X150006600Y-136852119D01*
X150011913Y-136853543D01*
X150240000Y-136873498D01*
X150468087Y-136853543D01*
X150473400Y-136852119D01*
X150473402Y-136852119D01*
X150683933Y-136795707D01*
X150683935Y-136795706D01*
X150689243Y-136794284D01*
X150695870Y-136791194D01*
X150891762Y-136699849D01*
X150891767Y-136699846D01*
X150896749Y-136697523D01*
X151050113Y-136590136D01*
X151079789Y-136569357D01*
X151079792Y-136569355D01*
X151084300Y-136566198D01*
X151246198Y-136404300D01*
X151377523Y-136216749D01*
X151379846Y-136211767D01*
X151379849Y-136211762D01*
X151471961Y-136014225D01*
X151471961Y-136014224D01*
X151474284Y-136009243D01*
X151533543Y-135788087D01*
X151553498Y-135560000D01*
X151533543Y-135331913D01*
X151513008Y-135255277D01*
X151475707Y-135116067D01*
X151475706Y-135116065D01*
X151474284Y-135110757D01*
X151471961Y-135105775D01*
X151379849Y-134908238D01*
X151379846Y-134908233D01*
X151377523Y-134903251D01*
X151246198Y-134715700D01*
X151084300Y-134553802D01*
X151079792Y-134550645D01*
X151079789Y-134550643D01*
X150929716Y-134445561D01*
X150896749Y-134422477D01*
X150891767Y-134420154D01*
X150891762Y-134420151D01*
X150857543Y-134404195D01*
X150804258Y-134357278D01*
X150784797Y-134289001D01*
X150805339Y-134221041D01*
X150857543Y-134175805D01*
X150891762Y-134159849D01*
X150891767Y-134159846D01*
X150896749Y-134157523D01*
X151016125Y-134073935D01*
X151079789Y-134029357D01*
X151079792Y-134029355D01*
X151084300Y-134026198D01*
X151246198Y-133864300D01*
X151377523Y-133676749D01*
X151379846Y-133671767D01*
X151379849Y-133671762D01*
X151471961Y-133474225D01*
X151471961Y-133474224D01*
X151474284Y-133469243D01*
X151490912Y-133407189D01*
X151532119Y-133253402D01*
X151532119Y-133253400D01*
X151533543Y-133248087D01*
X151553498Y-133020000D01*
X151533543Y-132791913D01*
X151532119Y-132786598D01*
X151475707Y-132576067D01*
X151475706Y-132576065D01*
X151474284Y-132570757D01*
X151449513Y-132517635D01*
X151379849Y-132368238D01*
X151379846Y-132368233D01*
X151377523Y-132363251D01*
X151246198Y-132175700D01*
X151084300Y-132013802D01*
X151079792Y-132010645D01*
X151079789Y-132010643D01*
X151001611Y-131955902D01*
X150896749Y-131882477D01*
X150891767Y-131880154D01*
X150891762Y-131880151D01*
X150857543Y-131864195D01*
X150804258Y-131817278D01*
X150784797Y-131749001D01*
X150805339Y-131681041D01*
X150857543Y-131635805D01*
X150891762Y-131619849D01*
X150891767Y-131619846D01*
X150896749Y-131617523D01*
X151076290Y-131491807D01*
X151079789Y-131489357D01*
X151079792Y-131489355D01*
X151084300Y-131486198D01*
X151246198Y-131324300D01*
X151377523Y-131136749D01*
X151379846Y-131131767D01*
X151379849Y-131131762D01*
X151471961Y-130934225D01*
X151471961Y-130934224D01*
X151474284Y-130929243D01*
X151529681Y-130722502D01*
X151532119Y-130713402D01*
X151532119Y-130713400D01*
X151533543Y-130708087D01*
X151553498Y-130480000D01*
X151533543Y-130251913D01*
X151474284Y-130030757D01*
X151471961Y-130025775D01*
X151379849Y-129828238D01*
X151379846Y-129828233D01*
X151377523Y-129823251D01*
X151277195Y-129679968D01*
X151249357Y-129640211D01*
X151249355Y-129640208D01*
X151246198Y-129635700D01*
X151084300Y-129473802D01*
X151079792Y-129470645D01*
X151079789Y-129470643D01*
X151001611Y-129415902D01*
X150896749Y-129342477D01*
X150891767Y-129340154D01*
X150891762Y-129340151D01*
X150857543Y-129324195D01*
X150804258Y-129277278D01*
X150784797Y-129209001D01*
X150805339Y-129141041D01*
X150857543Y-129095805D01*
X150891762Y-129079849D01*
X150891767Y-129079846D01*
X150896749Y-129077523D01*
X151001611Y-129004098D01*
X151079789Y-128949357D01*
X151079792Y-128949355D01*
X151084300Y-128946198D01*
X151246198Y-128784300D01*
X151268655Y-128752229D01*
X151324110Y-128707901D01*
X151371867Y-128698500D01*
X164491930Y-128698500D01*
X164510880Y-128699933D01*
X164525115Y-128702099D01*
X164525119Y-128702099D01*
X164532349Y-128703199D01*
X164539641Y-128702606D01*
X164539644Y-128702606D01*
X164585018Y-128698915D01*
X164595233Y-128698500D01*
X164603293Y-128698500D01*
X164616583Y-128696951D01*
X164631507Y-128695211D01*
X164635882Y-128694778D01*
X164701339Y-128689454D01*
X164701342Y-128689453D01*
X164708637Y-128688860D01*
X164715601Y-128686604D01*
X164721560Y-128685413D01*
X164727415Y-128684029D01*
X164734681Y-128683182D01*
X164803327Y-128658265D01*
X164807455Y-128656848D01*
X164869936Y-128636607D01*
X164869938Y-128636606D01*
X164876899Y-128634351D01*
X164883154Y-128630555D01*
X164888628Y-128628049D01*
X164894058Y-128625330D01*
X164900937Y-128622833D01*
X164933846Y-128601257D01*
X164961976Y-128582814D01*
X164965680Y-128580477D01*
X165028107Y-128542595D01*
X165036484Y-128535197D01*
X165036508Y-128535224D01*
X165039500Y-128532571D01*
X165042733Y-128529868D01*
X165048852Y-128525856D01*
X165102128Y-128469617D01*
X165104506Y-128467175D01*
X166692276Y-126879405D01*
X166754588Y-126845379D01*
X166781371Y-126842500D01*
X169921002Y-126842500D01*
X169989123Y-126862502D01*
X170035616Y-126916158D01*
X170045720Y-126986432D01*
X170041999Y-127003654D01*
X170019061Y-127082605D01*
X170019101Y-127096706D01*
X170026370Y-127100000D01*
X171672000Y-127100000D01*
X171740121Y-127120002D01*
X171786614Y-127173658D01*
X171798000Y-127226000D01*
X171798000Y-127482000D01*
X171777998Y-127550121D01*
X171724342Y-127596614D01*
X171672000Y-127608000D01*
X170032122Y-127608000D01*
X170018591Y-127611973D01*
X170017456Y-127619871D01*
X170058107Y-127759790D01*
X170064352Y-127774221D01*
X170140911Y-127903677D01*
X170146871Y-127911360D01*
X170172820Y-127977444D01*
X170158922Y-128047067D01*
X170148579Y-128063161D01*
X170144547Y-128067193D01*
X170059855Y-128210399D01*
X170013438Y-128370169D01*
X170012934Y-128376574D01*
X170012933Y-128376579D01*
X170010693Y-128405042D01*
X170010500Y-128407498D01*
X170010500Y-128840502D01*
X170013438Y-128877831D01*
X170059855Y-129037601D01*
X170144547Y-129180807D01*
X170147229Y-129183489D01*
X170172502Y-129247861D01*
X170158600Y-129317484D01*
X170148428Y-129333312D01*
X170144547Y-129337193D01*
X170059855Y-129480399D01*
X170013438Y-129640169D01*
X170010500Y-129677498D01*
X170010500Y-130110502D01*
X170013438Y-130147831D01*
X170059855Y-130307601D01*
X170063892Y-130314427D01*
X170140509Y-130443980D01*
X170140511Y-130443983D01*
X170144547Y-130450807D01*
X170262193Y-130568453D01*
X170269017Y-130572489D01*
X170269020Y-130572491D01*
X170376589Y-130636107D01*
X170405399Y-130653145D01*
X170413010Y-130655356D01*
X170413012Y-130655357D01*
X170465231Y-130670528D01*
X170565169Y-130699562D01*
X170571574Y-130700066D01*
X170571579Y-130700067D01*
X170600042Y-130702307D01*
X170600050Y-130702307D01*
X170602498Y-130702500D01*
X172354993Y-130702500D01*
X172423114Y-130722502D01*
X172469607Y-130776158D01*
X172480992Y-130828009D01*
X172510507Y-138403509D01*
X172490771Y-138471707D01*
X172437296Y-138518409D01*
X172384508Y-138530000D01*
X125140213Y-138530000D01*
X125072515Y-138510268D01*
X125028418Y-138482175D01*
X125019422Y-138475876D01*
X124717284Y-138244038D01*
X124708863Y-138236972D01*
X124428086Y-137979686D01*
X124420314Y-137971914D01*
X124163028Y-137691137D01*
X124155962Y-137682716D01*
X123924126Y-137380581D01*
X123917822Y-137371577D01*
X123888080Y-137324892D01*
X123868347Y-137257356D01*
X123867785Y-136824218D01*
X123865141Y-134788434D01*
X124286661Y-134788434D01*
X124304792Y-135146340D01*
X124305329Y-135149695D01*
X124305330Y-135149701D01*
X124344582Y-135394757D01*
X124361470Y-135500195D01*
X124456033Y-135845859D01*
X124587374Y-136179288D01*
X124607041Y-136216749D01*
X124703140Y-136399789D01*
X124753957Y-136496582D01*
X124755858Y-136499411D01*
X124755864Y-136499421D01*
X124890547Y-136699849D01*
X124953834Y-136794029D01*
X125184665Y-137068150D01*
X125443751Y-137315738D01*
X125728061Y-137533897D01*
X125760056Y-137553350D01*
X126031355Y-137718303D01*
X126031360Y-137718306D01*
X126034270Y-137720075D01*
X126037358Y-137721521D01*
X126037357Y-137721521D01*
X126355710Y-137870649D01*
X126355720Y-137870653D01*
X126358794Y-137872093D01*
X126362012Y-137873195D01*
X126362015Y-137873196D01*
X126694615Y-137987071D01*
X126694623Y-137987073D01*
X126697838Y-137988174D01*
X127047435Y-138066959D01*
X127099728Y-138072917D01*
X127400114Y-138107142D01*
X127400122Y-138107142D01*
X127403497Y-138107527D01*
X127406901Y-138107545D01*
X127406904Y-138107545D01*
X127601227Y-138108562D01*
X127761857Y-138109403D01*
X127765243Y-138109053D01*
X127765245Y-138109053D01*
X128114932Y-138072917D01*
X128114941Y-138072916D01*
X128118324Y-138072566D01*
X128121657Y-138071852D01*
X128121660Y-138071851D01*
X128294186Y-138034864D01*
X128468727Y-137997446D01*
X128808968Y-137884922D01*
X129135066Y-137736311D01*
X129229052Y-137680506D01*
X129440262Y-137555099D01*
X129440267Y-137555096D01*
X129443207Y-137553350D01*
X129729786Y-137338180D01*
X129991451Y-137093319D01*
X130225140Y-136821630D01*
X130331750Y-136666512D01*
X130426190Y-136529101D01*
X130426195Y-136529094D01*
X130428120Y-136526292D01*
X130429732Y-136523298D01*
X130429737Y-136523290D01*
X130596395Y-136213772D01*
X130598017Y-136210760D01*
X130732842Y-135878724D01*
X130743142Y-135842568D01*
X130822074Y-135565475D01*
X130831020Y-135534070D01*
X130864639Y-135337393D01*
X130890829Y-135184175D01*
X130890829Y-135184173D01*
X130891401Y-135180828D01*
X130893511Y-135146340D01*
X130913168Y-134824928D01*
X130913278Y-134823131D01*
X130913359Y-134800000D01*
X130893979Y-134442159D01*
X130836066Y-134088505D01*
X130740297Y-133743173D01*
X130737243Y-133735497D01*
X130609052Y-133413369D01*
X130607793Y-133410205D01*
X130521956Y-133248087D01*
X130441702Y-133096513D01*
X130441698Y-133096506D01*
X130440103Y-133093494D01*
X130239190Y-132796746D01*
X130235092Y-132791913D01*
X130143506Y-132683919D01*
X130007403Y-132523432D01*
X129747454Y-132276750D01*
X129462384Y-132059585D01*
X129459472Y-132057828D01*
X129459467Y-132057825D01*
X129158443Y-131876236D01*
X129158437Y-131876233D01*
X129155528Y-131874478D01*
X128830475Y-131723593D01*
X128660752Y-131666145D01*
X128494255Y-131609789D01*
X128494250Y-131609788D01*
X128491028Y-131608697D01*
X128292681Y-131564724D01*
X128144493Y-131531871D01*
X128144487Y-131531870D01*
X128141158Y-131531132D01*
X128137769Y-131530758D01*
X128137764Y-131530757D01*
X127788338Y-131492180D01*
X127788333Y-131492180D01*
X127784957Y-131491807D01*
X127781558Y-131491801D01*
X127781557Y-131491801D01*
X127612080Y-131491505D01*
X127426592Y-131491182D01*
X127313413Y-131503277D01*
X127073639Y-131528901D01*
X127073631Y-131528902D01*
X127070256Y-131529263D01*
X126720117Y-131605606D01*
X126380271Y-131719317D01*
X126377178Y-131720739D01*
X126377177Y-131720740D01*
X126195090Y-131804491D01*
X126054694Y-131869066D01*
X126051760Y-131870822D01*
X126051758Y-131870823D01*
X125806346Y-132017699D01*
X125747193Y-132053101D01*
X125744467Y-132055163D01*
X125744465Y-132055164D01*
X125579124Y-132180211D01*
X125461367Y-132269270D01*
X125200559Y-132515043D01*
X124967819Y-132787546D01*
X124965900Y-132790358D01*
X124965897Y-132790363D01*
X124872624Y-132927097D01*
X124765871Y-133083591D01*
X124597077Y-133399714D01*
X124463411Y-133732218D01*
X124462491Y-133735492D01*
X124462489Y-133735497D01*
X124379889Y-134029357D01*
X124366437Y-134077213D01*
X124365875Y-134080570D01*
X124365875Y-134080571D01*
X124308132Y-134425634D01*
X124307290Y-134430663D01*
X124286661Y-134788434D01*
X123865141Y-134788434D01*
X123844789Y-119117278D01*
X123822465Y-101927966D01*
X128268257Y-101927966D01*
X128298565Y-102062446D01*
X128301645Y-102072275D01*
X128381770Y-102269603D01*
X128386413Y-102278794D01*
X128497694Y-102460388D01*
X128503777Y-102468699D01*
X128643213Y-102629667D01*
X128650580Y-102636883D01*
X128814434Y-102772916D01*
X128822881Y-102778831D01*
X129006756Y-102886279D01*
X129016042Y-102890729D01*
X129215001Y-102966703D01*
X129224899Y-102969579D01*
X129328250Y-102990606D01*
X129342299Y-102989410D01*
X129346000Y-102979065D01*
X129346000Y-101932115D01*
X129341525Y-101916876D01*
X129340135Y-101915671D01*
X129332452Y-101914000D01*
X128283225Y-101914000D01*
X128269694Y-101917973D01*
X128268257Y-101927966D01*
X123822465Y-101927966D01*
X123792075Y-78527885D01*
X128242000Y-78527885D01*
X128246475Y-78543124D01*
X128247865Y-78544329D01*
X128255548Y-78546000D01*
X129327885Y-78546000D01*
X129343124Y-78541525D01*
X129344329Y-78540135D01*
X129346000Y-78532452D01*
X129346000Y-78527885D01*
X129854000Y-78527885D01*
X129858475Y-78543124D01*
X129859865Y-78544329D01*
X129867548Y-78546000D01*
X130939884Y-78546000D01*
X130955123Y-78541525D01*
X130956328Y-78540135D01*
X130957999Y-78532452D01*
X130957999Y-77905331D01*
X130957629Y-77898510D01*
X130952105Y-77847648D01*
X130948479Y-77832396D01*
X130903324Y-77711946D01*
X130894786Y-77696351D01*
X130818285Y-77594276D01*
X130805724Y-77581715D01*
X130703649Y-77505214D01*
X130688054Y-77496676D01*
X130567606Y-77451522D01*
X130552351Y-77447895D01*
X130501486Y-77442369D01*
X130494672Y-77442000D01*
X129872115Y-77442000D01*
X129856876Y-77446475D01*
X129855671Y-77447865D01*
X129854000Y-77455548D01*
X129854000Y-78527885D01*
X129346000Y-78527885D01*
X129346000Y-77460116D01*
X129341525Y-77444877D01*
X129340135Y-77443672D01*
X129332452Y-77442001D01*
X128705331Y-77442001D01*
X128698510Y-77442371D01*
X128647648Y-77447895D01*
X128632396Y-77451521D01*
X128511946Y-77496676D01*
X128496351Y-77505214D01*
X128394276Y-77581715D01*
X128381715Y-77594276D01*
X128305214Y-77696351D01*
X128296676Y-77711946D01*
X128251522Y-77832394D01*
X128247895Y-77847649D01*
X128242369Y-77898514D01*
X128242000Y-77905328D01*
X128242000Y-78527885D01*
X123792075Y-78527885D01*
X123748258Y-44788434D01*
X124286661Y-44788434D01*
X124304792Y-45146340D01*
X124305329Y-45149695D01*
X124305330Y-45149701D01*
X124327120Y-45285738D01*
X124361470Y-45500195D01*
X124456033Y-45845859D01*
X124587374Y-46179288D01*
X124753957Y-46496582D01*
X124755858Y-46499411D01*
X124755864Y-46499421D01*
X124939569Y-46772800D01*
X124953834Y-46794029D01*
X125184665Y-47068150D01*
X125443751Y-47315738D01*
X125728061Y-47533897D01*
X125760056Y-47553350D01*
X126031355Y-47718303D01*
X126031360Y-47718306D01*
X126034270Y-47720075D01*
X126037358Y-47721521D01*
X126037357Y-47721521D01*
X126355710Y-47870649D01*
X126355720Y-47870653D01*
X126358794Y-47872093D01*
X126362012Y-47873195D01*
X126362015Y-47873196D01*
X126694615Y-47987071D01*
X126694623Y-47987073D01*
X126697838Y-47988174D01*
X127047435Y-48066959D01*
X127099728Y-48072917D01*
X127400114Y-48107142D01*
X127400122Y-48107142D01*
X127403497Y-48107527D01*
X127406901Y-48107545D01*
X127406904Y-48107545D01*
X127601227Y-48108562D01*
X127761857Y-48109403D01*
X127765243Y-48109053D01*
X127765245Y-48109053D01*
X128114932Y-48072917D01*
X128114941Y-48072916D01*
X128118324Y-48072566D01*
X128121657Y-48071852D01*
X128121660Y-48071851D01*
X128294186Y-48034864D01*
X128468727Y-47997446D01*
X128808968Y-47884922D01*
X129135066Y-47736311D01*
X129229052Y-47680506D01*
X129440262Y-47555099D01*
X129440267Y-47555096D01*
X129443207Y-47553350D01*
X129729786Y-47338180D01*
X129991451Y-47093319D01*
X130225140Y-46821630D01*
X130331750Y-46666512D01*
X130426190Y-46529101D01*
X130426195Y-46529094D01*
X130428120Y-46526292D01*
X130429732Y-46523298D01*
X130429737Y-46523290D01*
X130596395Y-46213772D01*
X130598017Y-46210760D01*
X130732842Y-45878724D01*
X130743142Y-45842568D01*
X130802688Y-45633529D01*
X130831020Y-45534070D01*
X130891401Y-45180828D01*
X130893511Y-45146340D01*
X130913168Y-44824928D01*
X130913278Y-44823131D01*
X130913359Y-44800000D01*
X130893979Y-44442159D01*
X130836066Y-44088505D01*
X130740297Y-43743173D01*
X130737243Y-43735497D01*
X130609616Y-43414786D01*
X130607793Y-43410205D01*
X130577768Y-43353498D01*
X130441702Y-43096513D01*
X130441698Y-43096506D01*
X130440103Y-43093494D01*
X130239190Y-42796746D01*
X130007403Y-42523432D01*
X129747454Y-42276750D01*
X129462384Y-42059585D01*
X129459472Y-42057828D01*
X129459467Y-42057825D01*
X129158443Y-41876236D01*
X129158437Y-41876233D01*
X129155528Y-41874478D01*
X128830475Y-41723593D01*
X128536328Y-41624030D01*
X128494255Y-41609789D01*
X128494250Y-41609788D01*
X128491028Y-41608697D01*
X128292681Y-41564724D01*
X128144493Y-41531871D01*
X128144487Y-41531870D01*
X128141158Y-41531132D01*
X128137769Y-41530758D01*
X128137764Y-41530757D01*
X127788338Y-41492180D01*
X127788333Y-41492180D01*
X127784957Y-41491807D01*
X127781558Y-41491801D01*
X127781557Y-41491801D01*
X127612080Y-41491505D01*
X127426592Y-41491182D01*
X127313413Y-41503277D01*
X127073639Y-41528901D01*
X127073631Y-41528902D01*
X127070256Y-41529263D01*
X126720117Y-41605606D01*
X126380271Y-41719317D01*
X126377178Y-41720739D01*
X126377177Y-41720740D01*
X126370974Y-41723593D01*
X126054694Y-41869066D01*
X126051760Y-41870822D01*
X126051758Y-41870823D01*
X125981421Y-41912919D01*
X125747193Y-42053101D01*
X125744467Y-42055163D01*
X125744465Y-42055164D01*
X125527278Y-42219422D01*
X125461367Y-42269270D01*
X125200559Y-42515043D01*
X125198347Y-42517633D01*
X125198345Y-42517635D01*
X125167073Y-42554250D01*
X124967819Y-42787546D01*
X124965900Y-42790358D01*
X124965897Y-42790363D01*
X124889873Y-42901810D01*
X124765871Y-43083591D01*
X124597077Y-43399714D01*
X124463411Y-43732218D01*
X124462491Y-43735492D01*
X124462489Y-43735497D01*
X124388159Y-43999936D01*
X124366437Y-44077213D01*
X124307290Y-44430663D01*
X124286661Y-44788434D01*
X123748258Y-44788434D01*
X123745333Y-42536066D01*
X123765066Y-42468202D01*
X123917820Y-42228426D01*
X123924124Y-42219422D01*
X124155962Y-41917284D01*
X124163028Y-41908863D01*
X124420314Y-41628086D01*
X124428086Y-41620314D01*
X124708863Y-41363028D01*
X124717284Y-41355962D01*
X125019422Y-41124124D01*
X125028426Y-41117820D01*
X125349613Y-40913201D01*
X125359133Y-40907705D01*
X125653943Y-40754237D01*
X125712123Y-40740000D01*
X172004490Y-40740000D01*
X172072611Y-40760002D01*
G37*
%TD.AperFunction*%
%TA.AperFunction,Conductor*%
G36*
X169354123Y-106542502D02*
G01*
X169400616Y-106596158D01*
X169410720Y-106666432D01*
X169406999Y-106683654D01*
X169384061Y-106762605D01*
X169384101Y-106776706D01*
X169391370Y-106780000D01*
X171037000Y-106780000D01*
X171105121Y-106800002D01*
X171151614Y-106853658D01*
X171163000Y-106906000D01*
X171163000Y-107162000D01*
X171142998Y-107230121D01*
X171089342Y-107276614D01*
X171037000Y-107288000D01*
X169397122Y-107288000D01*
X169383591Y-107291973D01*
X169382456Y-107299871D01*
X169423107Y-107439790D01*
X169429352Y-107454221D01*
X169505911Y-107583677D01*
X169511871Y-107591360D01*
X169537820Y-107657444D01*
X169523922Y-107727067D01*
X169513579Y-107743161D01*
X169509547Y-107747193D01*
X169424855Y-107890399D01*
X169378438Y-108050169D01*
X169377934Y-108056574D01*
X169377933Y-108056579D01*
X169375693Y-108085042D01*
X169375500Y-108087498D01*
X169375500Y-108520502D01*
X169378438Y-108557831D01*
X169424855Y-108717601D01*
X169509547Y-108860807D01*
X169512229Y-108863489D01*
X169537502Y-108927861D01*
X169523600Y-108997484D01*
X169513428Y-109013312D01*
X169509547Y-109017193D01*
X169424855Y-109160399D01*
X169378438Y-109320169D01*
X169375500Y-109357498D01*
X169375500Y-109790502D01*
X169378438Y-109827831D01*
X169424855Y-109987601D01*
X169428892Y-109994427D01*
X169505509Y-110123980D01*
X169505511Y-110123983D01*
X169509547Y-110130807D01*
X169627193Y-110248453D01*
X169634017Y-110252489D01*
X169634020Y-110252491D01*
X169741589Y-110316107D01*
X169770399Y-110333145D01*
X169778010Y-110335356D01*
X169778012Y-110335357D01*
X169796486Y-110340724D01*
X169930169Y-110379562D01*
X169936574Y-110380066D01*
X169936579Y-110380067D01*
X169965042Y-110382307D01*
X169965050Y-110382307D01*
X169967498Y-110382500D01*
X171850502Y-110382500D01*
X171852950Y-110382307D01*
X171852958Y-110382307D01*
X171881421Y-110380067D01*
X171881426Y-110380066D01*
X171887831Y-110379562D01*
X172021514Y-110340724D01*
X172039988Y-110335357D01*
X172039990Y-110335356D01*
X172047601Y-110333145D01*
X172190807Y-110248453D01*
X172196417Y-110242843D01*
X172197946Y-110241657D01*
X172264031Y-110215710D01*
X172333653Y-110229609D01*
X172384709Y-110278943D01*
X172401172Y-110340724D01*
X172432985Y-118506113D01*
X172439074Y-120069009D01*
X172419338Y-120137207D01*
X172365863Y-120183909D01*
X172313075Y-120195500D01*
X170602498Y-120195500D01*
X170600050Y-120195693D01*
X170600042Y-120195693D01*
X170571579Y-120197933D01*
X170571574Y-120197934D01*
X170565169Y-120198438D01*
X170465231Y-120227472D01*
X170413012Y-120242643D01*
X170413010Y-120242644D01*
X170405399Y-120244855D01*
X170398572Y-120248892D01*
X170398573Y-120248892D01*
X170269020Y-120325509D01*
X170269017Y-120325511D01*
X170262193Y-120329547D01*
X170144547Y-120447193D01*
X170140511Y-120454017D01*
X170140509Y-120454020D01*
X170088119Y-120542607D01*
X170059855Y-120590399D01*
X170013438Y-120750169D01*
X170012934Y-120756574D01*
X170012933Y-120756579D01*
X170010693Y-120785042D01*
X170010500Y-120787498D01*
X170010500Y-121220502D01*
X170013438Y-121257831D01*
X170059855Y-121417601D01*
X170063892Y-121424427D01*
X170122024Y-121522722D01*
X170144547Y-121560807D01*
X170147487Y-121563747D01*
X170172820Y-121628266D01*
X170158921Y-121697889D01*
X170146874Y-121716636D01*
X170140910Y-121724324D01*
X170064352Y-121853779D01*
X170058107Y-121868210D01*
X170019061Y-122002605D01*
X170019101Y-122016706D01*
X170026370Y-122020000D01*
X171672000Y-122020000D01*
X171740121Y-122040002D01*
X171786614Y-122093658D01*
X171798000Y-122146000D01*
X171798000Y-124942000D01*
X171777998Y-125010121D01*
X171724342Y-125056614D01*
X171672000Y-125068000D01*
X170032122Y-125068000D01*
X170018591Y-125071973D01*
X170017456Y-125079870D01*
X170041999Y-125164346D01*
X170041797Y-125235342D01*
X170003243Y-125294959D01*
X169938578Y-125324268D01*
X169921002Y-125325500D01*
X166482063Y-125325500D01*
X166463114Y-125324067D01*
X166462907Y-125324036D01*
X166441651Y-125320802D01*
X166434359Y-125321395D01*
X166434356Y-125321395D01*
X166393920Y-125324684D01*
X166391819Y-125324855D01*
X166388991Y-125325085D01*
X166378777Y-125325500D01*
X166370707Y-125325500D01*
X166367087Y-125325922D01*
X166367069Y-125325923D01*
X166342461Y-125328792D01*
X166338100Y-125329224D01*
X166312981Y-125331267D01*
X166272661Y-125334546D01*
X166272658Y-125334547D01*
X166265363Y-125335140D01*
X166258399Y-125337396D01*
X166252440Y-125338587D01*
X166246585Y-125339971D01*
X166239319Y-125340818D01*
X166170673Y-125365735D01*
X166166545Y-125367152D01*
X166104064Y-125387393D01*
X166104062Y-125387394D01*
X166097101Y-125389649D01*
X166090846Y-125393445D01*
X166085372Y-125395951D01*
X166079942Y-125398670D01*
X166073063Y-125401167D01*
X166012016Y-125441191D01*
X166008327Y-125443518D01*
X165988135Y-125455771D01*
X165950693Y-125478491D01*
X165950688Y-125478495D01*
X165945892Y-125481405D01*
X165937516Y-125488803D01*
X165937493Y-125488777D01*
X165934503Y-125491426D01*
X165931264Y-125494134D01*
X165925148Y-125498144D01*
X165920121Y-125503451D01*
X165920117Y-125503454D01*
X165871872Y-125554383D01*
X165869494Y-125556825D01*
X164281724Y-127144595D01*
X164219412Y-127178621D01*
X164192629Y-127181500D01*
X151371867Y-127181500D01*
X151303746Y-127161498D01*
X151268655Y-127127772D01*
X151246198Y-127095700D01*
X151084300Y-126933802D01*
X151079792Y-126930645D01*
X151079789Y-126930643D01*
X150958019Y-126845379D01*
X150896749Y-126802477D01*
X150891767Y-126800154D01*
X150891762Y-126800151D01*
X150857543Y-126784195D01*
X150804258Y-126737278D01*
X150784797Y-126669001D01*
X150805339Y-126601041D01*
X150857543Y-126555805D01*
X150891762Y-126539849D01*
X150891767Y-126539846D01*
X150896749Y-126537523D01*
X151001611Y-126464098D01*
X151079789Y-126409357D01*
X151079792Y-126409355D01*
X151084300Y-126406198D01*
X151246198Y-126244300D01*
X151268655Y-126212229D01*
X151324110Y-126167901D01*
X151371867Y-126158500D01*
X161316930Y-126158500D01*
X161335880Y-126159933D01*
X161350115Y-126162099D01*
X161350119Y-126162099D01*
X161357349Y-126163199D01*
X161364641Y-126162606D01*
X161364644Y-126162606D01*
X161410018Y-126158915D01*
X161420233Y-126158500D01*
X161428293Y-126158500D01*
X161441583Y-126156951D01*
X161456507Y-126155211D01*
X161460882Y-126154778D01*
X161526339Y-126149454D01*
X161526342Y-126149453D01*
X161533637Y-126148860D01*
X161540601Y-126146604D01*
X161546560Y-126145413D01*
X161552415Y-126144029D01*
X161559681Y-126143182D01*
X161628327Y-126118265D01*
X161632455Y-126116848D01*
X161694936Y-126096607D01*
X161694938Y-126096606D01*
X161701899Y-126094351D01*
X161708154Y-126090555D01*
X161713628Y-126088049D01*
X161719058Y-126085330D01*
X161725937Y-126082833D01*
X161758846Y-126061257D01*
X161786976Y-126042814D01*
X161790680Y-126040477D01*
X161853107Y-126002595D01*
X161861484Y-125995197D01*
X161861508Y-125995224D01*
X161864500Y-125992571D01*
X161867733Y-125989868D01*
X161873852Y-125985856D01*
X161927128Y-125929617D01*
X161929506Y-125927175D01*
X164046810Y-123809871D01*
X170017456Y-123809871D01*
X170058107Y-123949790D01*
X170064352Y-123964221D01*
X170140912Y-124093678D01*
X170147189Y-124101770D01*
X170173139Y-124167854D01*
X170159241Y-124237477D01*
X170147189Y-124256230D01*
X170140912Y-124264322D01*
X170064352Y-124393779D01*
X170058107Y-124408210D01*
X170019061Y-124542605D01*
X170019101Y-124556706D01*
X170026370Y-124560000D01*
X171271885Y-124560000D01*
X171287124Y-124555525D01*
X171288329Y-124554135D01*
X171290000Y-124546452D01*
X171290000Y-123816115D01*
X171285525Y-123800876D01*
X171284135Y-123799671D01*
X171276452Y-123798000D01*
X170032122Y-123798000D01*
X170018591Y-123801973D01*
X170017456Y-123809871D01*
X164046810Y-123809871D01*
X165316810Y-122539871D01*
X170017456Y-122539871D01*
X170058107Y-122679790D01*
X170064352Y-122694221D01*
X170140912Y-122823678D01*
X170147189Y-122831770D01*
X170173139Y-122897854D01*
X170159241Y-122967477D01*
X170147189Y-122986230D01*
X170140912Y-122994322D01*
X170064352Y-123123779D01*
X170058107Y-123138210D01*
X170019061Y-123272605D01*
X170019101Y-123286706D01*
X170026370Y-123290000D01*
X171271885Y-123290000D01*
X171287124Y-123285525D01*
X171288329Y-123284135D01*
X171290000Y-123276452D01*
X171290000Y-122546115D01*
X171285525Y-122530876D01*
X171284135Y-122529671D01*
X171276452Y-122528000D01*
X170032122Y-122528000D01*
X170018591Y-122531973D01*
X170017456Y-122539871D01*
X165316810Y-122539871D01*
X168046911Y-119809770D01*
X168061323Y-119797384D01*
X168072918Y-119788851D01*
X168072923Y-119788846D01*
X168078818Y-119784508D01*
X168083557Y-119778930D01*
X168083560Y-119778927D01*
X168113035Y-119744232D01*
X168119965Y-119736716D01*
X168125661Y-119731020D01*
X168127924Y-119728159D01*
X168127929Y-119728154D01*
X168143293Y-119708734D01*
X168146082Y-119705333D01*
X168188592Y-119655296D01*
X168188594Y-119655294D01*
X168193333Y-119649715D01*
X168196662Y-119643195D01*
X168200028Y-119638148D01*
X168203193Y-119633024D01*
X168207735Y-119627283D01*
X168238637Y-119561164D01*
X168240565Y-119557218D01*
X168270442Y-119498708D01*
X168270443Y-119498706D01*
X168273769Y-119492192D01*
X168275508Y-119485086D01*
X168277609Y-119479436D01*
X168279524Y-119473679D01*
X168282622Y-119467050D01*
X168297491Y-119395565D01*
X168298461Y-119391282D01*
X168314473Y-119325844D01*
X168315808Y-119320390D01*
X168316500Y-119309236D01*
X168316535Y-119309238D01*
X168316775Y-119305266D01*
X168317152Y-119301045D01*
X168318641Y-119293885D01*
X168316546Y-119216458D01*
X168316500Y-119213050D01*
X168316500Y-107146371D01*
X168336502Y-107078250D01*
X168353405Y-107057276D01*
X168851276Y-106559405D01*
X168913588Y-106525379D01*
X168940371Y-106522500D01*
X169286002Y-106522500D01*
X169354123Y-106542502D01*
G37*
%TD.AperFunction*%
%TA.AperFunction,Conductor*%
G36*
X172092853Y-45955502D02*
G01*
X172139346Y-46009158D01*
X172150731Y-46061009D01*
X172179301Y-53394009D01*
X172159565Y-53462207D01*
X172106090Y-53508909D01*
X172053302Y-53520500D01*
X170221498Y-53520500D01*
X170219050Y-53520693D01*
X170219042Y-53520693D01*
X170190579Y-53522933D01*
X170190574Y-53522934D01*
X170184169Y-53523438D01*
X170084231Y-53552472D01*
X170032012Y-53567643D01*
X170032010Y-53567644D01*
X170024399Y-53569855D01*
X170017572Y-53573892D01*
X170017573Y-53573892D01*
X169888020Y-53650509D01*
X169888017Y-53650511D01*
X169881193Y-53654547D01*
X169763547Y-53772193D01*
X169759511Y-53779017D01*
X169759509Y-53779020D01*
X169695893Y-53886589D01*
X169678855Y-53915399D01*
X169632438Y-54075169D01*
X169629500Y-54112498D01*
X169629500Y-54545502D01*
X169632438Y-54582831D01*
X169678855Y-54742601D01*
X169763547Y-54885807D01*
X169766487Y-54888747D01*
X169791820Y-54953266D01*
X169777921Y-55022889D01*
X169765874Y-55041636D01*
X169759910Y-55049324D01*
X169683352Y-55178779D01*
X169677107Y-55193210D01*
X169638061Y-55327605D01*
X169638101Y-55341706D01*
X169645370Y-55345000D01*
X171291000Y-55345000D01*
X171359121Y-55365002D01*
X171405614Y-55418658D01*
X171417000Y-55471000D01*
X171417000Y-58267000D01*
X171396998Y-58335121D01*
X171343342Y-58381614D01*
X171291000Y-58393000D01*
X169651122Y-58393000D01*
X169637591Y-58396973D01*
X169636456Y-58404870D01*
X169660999Y-58489346D01*
X169660797Y-58560342D01*
X169622243Y-58619959D01*
X169557578Y-58649268D01*
X169540002Y-58650500D01*
X167244069Y-58650500D01*
X167225121Y-58649067D01*
X167217780Y-58647950D01*
X167210883Y-58646901D01*
X167210881Y-58646901D01*
X167203651Y-58645801D01*
X167196359Y-58646394D01*
X167196356Y-58646394D01*
X167150982Y-58650085D01*
X167140767Y-58650500D01*
X167132707Y-58650500D01*
X167119417Y-58652049D01*
X167104493Y-58653789D01*
X167100118Y-58654222D01*
X167034661Y-58659546D01*
X167034658Y-58659547D01*
X167027363Y-58660140D01*
X167020399Y-58662396D01*
X167014440Y-58663587D01*
X167008585Y-58664971D01*
X167001319Y-58665818D01*
X166932673Y-58690735D01*
X166928545Y-58692152D01*
X166866064Y-58712393D01*
X166866062Y-58712394D01*
X166859101Y-58714649D01*
X166852846Y-58718445D01*
X166847372Y-58720951D01*
X166841942Y-58723670D01*
X166835063Y-58726167D01*
X166774016Y-58766191D01*
X166770327Y-58768518D01*
X166750135Y-58780771D01*
X166712693Y-58803491D01*
X166712688Y-58803495D01*
X166707892Y-58806405D01*
X166699516Y-58813803D01*
X166699493Y-58813777D01*
X166696503Y-58816426D01*
X166693264Y-58819134D01*
X166687148Y-58823144D01*
X166682121Y-58828451D01*
X166682117Y-58828454D01*
X166633872Y-58879383D01*
X166631494Y-58881825D01*
X164275089Y-61238230D01*
X164260677Y-61250616D01*
X164249082Y-61259149D01*
X164249077Y-61259154D01*
X164243182Y-61263492D01*
X164238443Y-61269070D01*
X164238440Y-61269073D01*
X164208965Y-61303768D01*
X164202035Y-61311284D01*
X164196340Y-61316979D01*
X164194060Y-61319861D01*
X164178719Y-61339251D01*
X164175928Y-61342655D01*
X164133409Y-61392703D01*
X164128667Y-61398285D01*
X164125339Y-61404801D01*
X164121972Y-61409850D01*
X164118805Y-61414979D01*
X164114266Y-61420716D01*
X164083345Y-61486875D01*
X164081442Y-61490769D01*
X164048231Y-61555808D01*
X164046492Y-61562916D01*
X164044393Y-61568559D01*
X164042476Y-61574322D01*
X164039378Y-61580950D01*
X164037888Y-61588112D01*
X164037888Y-61588113D01*
X164024514Y-61652412D01*
X164023544Y-61656696D01*
X164006192Y-61727610D01*
X164005844Y-61733212D01*
X164005844Y-61733215D01*
X164005500Y-61738762D01*
X164005500Y-61738764D01*
X164005464Y-61738762D01*
X164005225Y-61742755D01*
X164004851Y-61746947D01*
X164003360Y-61754115D01*
X164003558Y-61761432D01*
X164005454Y-61831521D01*
X164005500Y-61834928D01*
X164005500Y-115430629D01*
X163985498Y-115498750D01*
X163968595Y-115519724D01*
X159963724Y-119524595D01*
X159901412Y-119558621D01*
X159874629Y-119561500D01*
X151371867Y-119561500D01*
X151303746Y-119541498D01*
X151268655Y-119507772D01*
X151246198Y-119475700D01*
X151084300Y-119313802D01*
X151079792Y-119310645D01*
X151079789Y-119310643D01*
X151001611Y-119255902D01*
X150896749Y-119182477D01*
X150891767Y-119180154D01*
X150891762Y-119180151D01*
X150857543Y-119164195D01*
X150804258Y-119117278D01*
X150784797Y-119049001D01*
X150805339Y-118981041D01*
X150857543Y-118935805D01*
X150891762Y-118919849D01*
X150891767Y-118919846D01*
X150896749Y-118917523D01*
X151001611Y-118844098D01*
X151079789Y-118789357D01*
X151079792Y-118789355D01*
X151084300Y-118786198D01*
X151246198Y-118624300D01*
X151377523Y-118436749D01*
X151379846Y-118431767D01*
X151379849Y-118431762D01*
X151471961Y-118234225D01*
X151471961Y-118234224D01*
X151474284Y-118229243D01*
X151533543Y-118008087D01*
X151553498Y-117780000D01*
X151533543Y-117551913D01*
X151474284Y-117330757D01*
X151382451Y-117133819D01*
X151379849Y-117128238D01*
X151379846Y-117128233D01*
X151377523Y-117123251D01*
X151246198Y-116935700D01*
X151084300Y-116773802D01*
X151079792Y-116770645D01*
X151079789Y-116770643D01*
X151001611Y-116715902D01*
X150896749Y-116642477D01*
X150891767Y-116640154D01*
X150891762Y-116640151D01*
X150857543Y-116624195D01*
X150804258Y-116577278D01*
X150784797Y-116509001D01*
X150805339Y-116441041D01*
X150857543Y-116395805D01*
X150891762Y-116379849D01*
X150891767Y-116379846D01*
X150896749Y-116377523D01*
X151004577Y-116302021D01*
X151079789Y-116249357D01*
X151079792Y-116249355D01*
X151084300Y-116246198D01*
X151246198Y-116084300D01*
X151377523Y-115896749D01*
X151379846Y-115891767D01*
X151379849Y-115891762D01*
X151471961Y-115694225D01*
X151471961Y-115694224D01*
X151474284Y-115689243D01*
X151533543Y-115468087D01*
X151553498Y-115240000D01*
X151533543Y-115011913D01*
X151531559Y-115004508D01*
X151488462Y-114843669D01*
X152540001Y-114843669D01*
X152540371Y-114850490D01*
X152545895Y-114901352D01*
X152549521Y-114916604D01*
X152594676Y-115037054D01*
X152603214Y-115052649D01*
X152679715Y-115154724D01*
X152692276Y-115167285D01*
X152794351Y-115243786D01*
X152809946Y-115252324D01*
X152930394Y-115297478D01*
X152945649Y-115301105D01*
X152996514Y-115306631D01*
X153003328Y-115307000D01*
X153950885Y-115307000D01*
X153966124Y-115302525D01*
X153967329Y-115301135D01*
X153969000Y-115293452D01*
X153969000Y-115288884D01*
X154477000Y-115288884D01*
X154481475Y-115304123D01*
X154482865Y-115305328D01*
X154490548Y-115306999D01*
X155442669Y-115306999D01*
X155449490Y-115306629D01*
X155500352Y-115301105D01*
X155515604Y-115297479D01*
X155636054Y-115252324D01*
X155651649Y-115243786D01*
X155753724Y-115167285D01*
X155766285Y-115154724D01*
X155842786Y-115052649D01*
X155851324Y-115037054D01*
X155896478Y-114916606D01*
X155900105Y-114901351D01*
X155905631Y-114850486D01*
X155906000Y-114843672D01*
X155906000Y-113686115D01*
X155901525Y-113670876D01*
X155900135Y-113669671D01*
X155892452Y-113668000D01*
X154495115Y-113668000D01*
X154479876Y-113672475D01*
X154478671Y-113673865D01*
X154477000Y-113681548D01*
X154477000Y-115288884D01*
X153969000Y-115288884D01*
X153969000Y-113686115D01*
X153964525Y-113670876D01*
X153963135Y-113669671D01*
X153955452Y-113668000D01*
X152558116Y-113668000D01*
X152542877Y-113672475D01*
X152541672Y-113673865D01*
X152540001Y-113681548D01*
X152540001Y-114843669D01*
X151488462Y-114843669D01*
X151475707Y-114796067D01*
X151475706Y-114796065D01*
X151474284Y-114790757D01*
X151433214Y-114702681D01*
X151379849Y-114588238D01*
X151379846Y-114588233D01*
X151377523Y-114583251D01*
X151292270Y-114461498D01*
X151249357Y-114400211D01*
X151249355Y-114400208D01*
X151246198Y-114395700D01*
X151084300Y-114233802D01*
X151079792Y-114230645D01*
X151079789Y-114230643D01*
X150979798Y-114160629D01*
X150896749Y-114102477D01*
X150891767Y-114100154D01*
X150891762Y-114100151D01*
X150857543Y-114084195D01*
X150804258Y-114037278D01*
X150784797Y-113969001D01*
X150805339Y-113901041D01*
X150857543Y-113855805D01*
X150891762Y-113839849D01*
X150891767Y-113839846D01*
X150896749Y-113837523D01*
X151001611Y-113764098D01*
X151079789Y-113709357D01*
X151079792Y-113709355D01*
X151084300Y-113706198D01*
X151246198Y-113544300D01*
X151377523Y-113356749D01*
X151379846Y-113351767D01*
X151379849Y-113351762D01*
X151471961Y-113154225D01*
X151471961Y-113154224D01*
X151474284Y-113149243D01*
X151476256Y-113141885D01*
X152540000Y-113141885D01*
X152544475Y-113157124D01*
X152545865Y-113158329D01*
X152553548Y-113160000D01*
X153950885Y-113160000D01*
X153966124Y-113155525D01*
X153967329Y-113154135D01*
X153969000Y-113146452D01*
X153969000Y-113141885D01*
X154477000Y-113141885D01*
X154481475Y-113157124D01*
X154482865Y-113158329D01*
X154490548Y-113160000D01*
X155887884Y-113160000D01*
X155903123Y-113155525D01*
X155904328Y-113154135D01*
X155905999Y-113146452D01*
X155905999Y-111984331D01*
X155905629Y-111977510D01*
X155900105Y-111926648D01*
X155896479Y-111911396D01*
X155851324Y-111790946D01*
X155842786Y-111775351D01*
X155766285Y-111673276D01*
X155753724Y-111660715D01*
X155651649Y-111584214D01*
X155636054Y-111575676D01*
X155515606Y-111530522D01*
X155500351Y-111526895D01*
X155449486Y-111521369D01*
X155442672Y-111521000D01*
X154495115Y-111521000D01*
X154479876Y-111525475D01*
X154478671Y-111526865D01*
X154477000Y-111534548D01*
X154477000Y-113141885D01*
X153969000Y-113141885D01*
X153969000Y-111539116D01*
X153964525Y-111523877D01*
X153963135Y-111522672D01*
X153955452Y-111521001D01*
X153003331Y-111521001D01*
X152996510Y-111521371D01*
X152945648Y-111526895D01*
X152930396Y-111530521D01*
X152809946Y-111575676D01*
X152794351Y-111584214D01*
X152692276Y-111660715D01*
X152679715Y-111673276D01*
X152603214Y-111775351D01*
X152594676Y-111790946D01*
X152549522Y-111911394D01*
X152545895Y-111926649D01*
X152540369Y-111977514D01*
X152540000Y-111984328D01*
X152540000Y-113141885D01*
X151476256Y-113141885D01*
X151486582Y-113103349D01*
X151532119Y-112933402D01*
X151532119Y-112933400D01*
X151533543Y-112928087D01*
X151553498Y-112700000D01*
X151533543Y-112471913D01*
X151474284Y-112250757D01*
X151471961Y-112245775D01*
X151379849Y-112048238D01*
X151379846Y-112048233D01*
X151377523Y-112043251D01*
X151295877Y-111926649D01*
X151249357Y-111860211D01*
X151249355Y-111860208D01*
X151246198Y-111855700D01*
X151084300Y-111693802D01*
X151079792Y-111690645D01*
X151079789Y-111690643D01*
X151001611Y-111635902D01*
X150896749Y-111562477D01*
X150891767Y-111560154D01*
X150891762Y-111560151D01*
X150857543Y-111544195D01*
X150804258Y-111497278D01*
X150784797Y-111429001D01*
X150805339Y-111361041D01*
X150857543Y-111315805D01*
X150891762Y-111299849D01*
X150891767Y-111299846D01*
X150896749Y-111297523D01*
X151001611Y-111224098D01*
X151079789Y-111169357D01*
X151079792Y-111169355D01*
X151084300Y-111166198D01*
X151246198Y-111004300D01*
X151377523Y-110816749D01*
X151379846Y-110811767D01*
X151379849Y-110811762D01*
X151471961Y-110614225D01*
X151471961Y-110614224D01*
X151474284Y-110609243D01*
X151533543Y-110388087D01*
X151553498Y-110160000D01*
X151533543Y-109931913D01*
X151474284Y-109710757D01*
X151471001Y-109703717D01*
X151379849Y-109508238D01*
X151379846Y-109508233D01*
X151377523Y-109503251D01*
X151276062Y-109358350D01*
X151249357Y-109320211D01*
X151249355Y-109320208D01*
X151246198Y-109315700D01*
X151084300Y-109153802D01*
X151079792Y-109150645D01*
X151079789Y-109150643D01*
X151018478Y-109107713D01*
X150974150Y-109052256D01*
X150966841Y-108981637D01*
X150998872Y-108918276D01*
X151060073Y-108882291D01*
X151090749Y-108878500D01*
X152413500Y-108878500D01*
X152481621Y-108898502D01*
X152528114Y-108952158D01*
X152539500Y-109004500D01*
X152539500Y-109707134D01*
X152546255Y-109769316D01*
X152597385Y-109905705D01*
X152684739Y-110022261D01*
X152801295Y-110109615D01*
X152937684Y-110160745D01*
X152999866Y-110167500D01*
X155446134Y-110167500D01*
X155508316Y-110160745D01*
X155644705Y-110109615D01*
X155761261Y-110022261D01*
X155848615Y-109905705D01*
X155899745Y-109769316D01*
X155906500Y-109707134D01*
X155906500Y-109658500D01*
X155926502Y-109590379D01*
X155980158Y-109543886D01*
X156032500Y-109532500D01*
X156828604Y-109532500D01*
X156845051Y-109533578D01*
X156861516Y-109535746D01*
X156861520Y-109535746D01*
X156867086Y-109536479D01*
X156948489Y-109532640D01*
X156954424Y-109532500D01*
X156976999Y-109532500D01*
X157002989Y-109530181D01*
X157008248Y-109529822D01*
X157091488Y-109525896D01*
X157096947Y-109524646D01*
X157096952Y-109524645D01*
X157108970Y-109521892D01*
X157125899Y-109519211D01*
X157143762Y-109517617D01*
X157149178Y-109516135D01*
X157149180Y-109516135D01*
X157224133Y-109495630D01*
X157229251Y-109494344D01*
X157305000Y-109476995D01*
X157305002Y-109476994D01*
X157310470Y-109475742D01*
X157320970Y-109471263D01*
X157326967Y-109468706D01*
X157343142Y-109463073D01*
X157355039Y-109459818D01*
X157355043Y-109459817D01*
X157360451Y-109458337D01*
X157435667Y-109422461D01*
X157440476Y-109420290D01*
X157511949Y-109389804D01*
X157511950Y-109389804D01*
X157517109Y-109387603D01*
X157532110Y-109377749D01*
X157547025Y-109369346D01*
X157563218Y-109361622D01*
X157567769Y-109358352D01*
X157567772Y-109358350D01*
X157600996Y-109334476D01*
X157630892Y-109312994D01*
X157635232Y-109310011D01*
X157701010Y-109266804D01*
X157701018Y-109266798D01*
X157704874Y-109264265D01*
X157725662Y-109245743D01*
X157735939Y-109237510D01*
X157745654Y-109230529D01*
X157820063Y-109153745D01*
X157821452Y-109152335D01*
X160128259Y-106845528D01*
X160140651Y-106834660D01*
X160153843Y-106824538D01*
X160153851Y-106824531D01*
X160158292Y-106821123D01*
X160213168Y-106760815D01*
X160217267Y-106756520D01*
X160233198Y-106740589D01*
X160249934Y-106720573D01*
X160253379Y-106716624D01*
X160305703Y-106659121D01*
X160305706Y-106659117D01*
X160309485Y-106654964D01*
X160319013Y-106639775D01*
X160329091Y-106625903D01*
X160336992Y-106616455D01*
X160336997Y-106616448D01*
X160340594Y-106612146D01*
X160381887Y-106539752D01*
X160384592Y-106535232D01*
X160393923Y-106520358D01*
X160417685Y-106482477D01*
X160425886Y-106469404D01*
X160425888Y-106469401D01*
X160428864Y-106464656D01*
X160435552Y-106448021D01*
X160443012Y-106432589D01*
X160449120Y-106421881D01*
X160449124Y-106421872D01*
X160451899Y-106417007D01*
X160453768Y-106411730D01*
X160453770Y-106411725D01*
X160479715Y-106338458D01*
X160481580Y-106333522D01*
X160510566Y-106261416D01*
X160512656Y-106256217D01*
X160516294Y-106238650D01*
X160520899Y-106222156D01*
X160526889Y-106205241D01*
X160540359Y-106122990D01*
X160541319Y-106117811D01*
X160557276Y-106040758D01*
X160557276Y-106040757D01*
X160558213Y-106036233D01*
X160558479Y-106031620D01*
X160559815Y-106008452D01*
X160561262Y-105995347D01*
X160562286Y-105989090D01*
X160562286Y-105989086D01*
X160563194Y-105983543D01*
X160562325Y-105928197D01*
X160561516Y-105876736D01*
X160561500Y-105874757D01*
X160561500Y-57134871D01*
X169636456Y-57134871D01*
X169677107Y-57274790D01*
X169683352Y-57289221D01*
X169759912Y-57418678D01*
X169766189Y-57426770D01*
X169792139Y-57492854D01*
X169778241Y-57562477D01*
X169766189Y-57581230D01*
X169759912Y-57589322D01*
X169683352Y-57718779D01*
X169677107Y-57733210D01*
X169638061Y-57867605D01*
X169638101Y-57881706D01*
X169645370Y-57885000D01*
X170890885Y-57885000D01*
X170906124Y-57880525D01*
X170907329Y-57879135D01*
X170909000Y-57871452D01*
X170909000Y-57141115D01*
X170904525Y-57125876D01*
X170903135Y-57124671D01*
X170895452Y-57123000D01*
X169651122Y-57123000D01*
X169637591Y-57126973D01*
X169636456Y-57134871D01*
X160561500Y-57134871D01*
X160561500Y-55864871D01*
X169636456Y-55864871D01*
X169677107Y-56004790D01*
X169683352Y-56019221D01*
X169759912Y-56148678D01*
X169766189Y-56156770D01*
X169792139Y-56222854D01*
X169778241Y-56292477D01*
X169766189Y-56311230D01*
X169759912Y-56319322D01*
X169683352Y-56448779D01*
X169677107Y-56463210D01*
X169638061Y-56597605D01*
X169638101Y-56611706D01*
X169645370Y-56615000D01*
X170890885Y-56615000D01*
X170906124Y-56610525D01*
X170907329Y-56609135D01*
X170909000Y-56601452D01*
X170909000Y-55871115D01*
X170904525Y-55855876D01*
X170903135Y-55854671D01*
X170895452Y-55853000D01*
X169651122Y-55853000D01*
X169637591Y-55856973D01*
X169636456Y-55864871D01*
X160561500Y-55864871D01*
X160561500Y-49568477D01*
X160581502Y-49500356D01*
X160598405Y-49479382D01*
X164105383Y-45972405D01*
X164167695Y-45938379D01*
X164194478Y-45935500D01*
X172024732Y-45935500D01*
X172092853Y-45955502D01*
G37*
%TD.AperFunction*%
%TA.AperFunction,Conductor*%
G36*
X169608123Y-83555502D02*
G01*
X169654616Y-83609158D01*
X169664720Y-83679432D01*
X169660999Y-83696654D01*
X169638061Y-83775605D01*
X169638101Y-83789706D01*
X169645370Y-83793000D01*
X171291000Y-83793000D01*
X171359121Y-83813002D01*
X171405614Y-83866658D01*
X171417000Y-83919000D01*
X171417000Y-84175000D01*
X171396998Y-84243121D01*
X171343342Y-84289614D01*
X171291000Y-84301000D01*
X169651122Y-84301000D01*
X169637591Y-84304973D01*
X169636456Y-84312871D01*
X169677107Y-84452790D01*
X169683352Y-84467221D01*
X169759911Y-84596677D01*
X169765871Y-84604360D01*
X169791820Y-84670444D01*
X169777922Y-84740067D01*
X169767579Y-84756161D01*
X169763547Y-84760193D01*
X169678855Y-84903399D01*
X169632438Y-85063169D01*
X169631934Y-85069574D01*
X169631933Y-85069579D01*
X169629693Y-85098042D01*
X169629500Y-85100498D01*
X169629500Y-85533502D01*
X169629693Y-85535950D01*
X169629693Y-85535958D01*
X169631754Y-85562138D01*
X169632438Y-85570831D01*
X169658158Y-85659360D01*
X169664304Y-85680514D01*
X169678855Y-85730601D01*
X169763547Y-85873807D01*
X169766229Y-85876489D01*
X169791502Y-85940861D01*
X169777600Y-86010484D01*
X169767428Y-86026312D01*
X169763547Y-86030193D01*
X169678855Y-86173399D01*
X169632438Y-86333169D01*
X169629500Y-86370498D01*
X169629500Y-86803502D01*
X169629693Y-86805950D01*
X169629693Y-86805958D01*
X169631400Y-86827639D01*
X169632438Y-86840831D01*
X169678855Y-87000601D01*
X169682892Y-87007427D01*
X169759509Y-87136980D01*
X169759511Y-87136983D01*
X169763547Y-87143807D01*
X169881193Y-87261453D01*
X169888017Y-87265489D01*
X169888020Y-87265491D01*
X169958440Y-87307137D01*
X170024399Y-87346145D01*
X170032010Y-87348356D01*
X170032012Y-87348357D01*
X170084231Y-87363528D01*
X170184169Y-87392562D01*
X170190574Y-87393066D01*
X170190579Y-87393067D01*
X170219042Y-87395307D01*
X170219050Y-87395307D01*
X170221498Y-87395500D01*
X172104502Y-87395500D01*
X172106950Y-87395307D01*
X172106958Y-87395307D01*
X172135421Y-87393067D01*
X172135426Y-87393066D01*
X172141831Y-87392562D01*
X172150543Y-87390031D01*
X172151077Y-87389876D01*
X172152860Y-87389881D01*
X172154345Y-87389610D01*
X172154395Y-87389886D01*
X172222073Y-87390082D01*
X172281688Y-87428639D01*
X172310993Y-87493305D01*
X172312222Y-87510373D01*
X172335810Y-93564610D01*
X172360448Y-99888481D01*
X172340712Y-99956679D01*
X172287237Y-100003381D01*
X172217003Y-100013758D01*
X172170310Y-99997425D01*
X172101412Y-99956679D01*
X172047601Y-99924855D01*
X172039990Y-99922644D01*
X172039988Y-99922643D01*
X171987769Y-99907472D01*
X171887831Y-99878438D01*
X171881426Y-99877934D01*
X171881421Y-99877933D01*
X171852958Y-99875693D01*
X171852950Y-99875693D01*
X171850502Y-99875500D01*
X169967498Y-99875500D01*
X169965050Y-99875693D01*
X169965042Y-99875693D01*
X169936579Y-99877933D01*
X169936574Y-99877934D01*
X169930169Y-99878438D01*
X169830231Y-99907472D01*
X169778012Y-99922643D01*
X169778010Y-99922644D01*
X169770399Y-99924855D01*
X169763572Y-99928892D01*
X169763573Y-99928892D01*
X169634020Y-100005509D01*
X169634017Y-100005511D01*
X169627193Y-100009547D01*
X169509547Y-100127193D01*
X169505511Y-100134017D01*
X169505509Y-100134020D01*
X169489923Y-100160375D01*
X169424855Y-100270399D01*
X169422644Y-100278010D01*
X169422643Y-100278012D01*
X169416953Y-100297597D01*
X169378438Y-100430169D01*
X169377934Y-100436574D01*
X169377933Y-100436579D01*
X169375693Y-100465042D01*
X169375500Y-100467498D01*
X169375500Y-100900502D01*
X169375693Y-100902950D01*
X169375693Y-100902958D01*
X169376855Y-100917715D01*
X169378438Y-100937831D01*
X169424855Y-101097601D01*
X169509547Y-101240807D01*
X169512487Y-101243747D01*
X169537820Y-101308266D01*
X169523921Y-101377889D01*
X169511874Y-101396636D01*
X169505910Y-101404324D01*
X169429352Y-101533779D01*
X169423107Y-101548210D01*
X169384061Y-101682605D01*
X169384101Y-101696706D01*
X169391370Y-101700000D01*
X171037000Y-101700000D01*
X171105121Y-101720002D01*
X171151614Y-101773658D01*
X171163000Y-101826000D01*
X171163000Y-104622000D01*
X171142998Y-104690121D01*
X171089342Y-104736614D01*
X171037000Y-104748000D01*
X169397122Y-104748000D01*
X169383591Y-104751973D01*
X169382456Y-104759870D01*
X169406999Y-104844346D01*
X169406797Y-104915342D01*
X169368243Y-104974959D01*
X169303578Y-105004268D01*
X169286002Y-105005500D01*
X168641070Y-105005500D01*
X168622120Y-105004067D01*
X168607885Y-105001901D01*
X168607881Y-105001901D01*
X168600651Y-105000801D01*
X168593359Y-105001394D01*
X168593356Y-105001394D01*
X168547982Y-105005085D01*
X168537767Y-105005500D01*
X168529707Y-105005500D01*
X168516417Y-105007049D01*
X168501493Y-105008789D01*
X168497118Y-105009222D01*
X168431661Y-105014546D01*
X168431658Y-105014547D01*
X168424363Y-105015140D01*
X168417399Y-105017396D01*
X168411440Y-105018587D01*
X168405585Y-105019971D01*
X168398319Y-105020818D01*
X168329673Y-105045735D01*
X168325545Y-105047152D01*
X168263064Y-105067393D01*
X168263062Y-105067394D01*
X168256101Y-105069649D01*
X168249846Y-105073445D01*
X168244372Y-105075951D01*
X168238942Y-105078670D01*
X168232063Y-105081167D01*
X168225943Y-105085180D01*
X168225942Y-105085180D01*
X168171024Y-105121186D01*
X168167320Y-105123523D01*
X168104893Y-105161405D01*
X168096516Y-105168803D01*
X168096492Y-105168776D01*
X168093500Y-105171429D01*
X168090267Y-105174132D01*
X168084148Y-105178144D01*
X168030872Y-105234383D01*
X168028494Y-105236825D01*
X167261595Y-106003724D01*
X167199283Y-106037750D01*
X167128468Y-106032685D01*
X167071632Y-105990138D01*
X167046821Y-105923618D01*
X167046500Y-105914629D01*
X167046500Y-103489871D01*
X169382456Y-103489871D01*
X169423107Y-103629790D01*
X169429352Y-103644221D01*
X169505912Y-103773678D01*
X169512189Y-103781770D01*
X169538139Y-103847854D01*
X169524241Y-103917477D01*
X169512189Y-103936230D01*
X169505912Y-103944322D01*
X169429352Y-104073779D01*
X169423107Y-104088210D01*
X169384061Y-104222605D01*
X169384101Y-104236706D01*
X169391370Y-104240000D01*
X170636885Y-104240000D01*
X170652124Y-104235525D01*
X170653329Y-104234135D01*
X170655000Y-104226452D01*
X170655000Y-103496115D01*
X170650525Y-103480876D01*
X170649135Y-103479671D01*
X170641452Y-103478000D01*
X169397122Y-103478000D01*
X169383591Y-103481973D01*
X169382456Y-103489871D01*
X167046500Y-103489871D01*
X167046500Y-102219871D01*
X169382456Y-102219871D01*
X169423107Y-102359790D01*
X169429352Y-102374221D01*
X169505912Y-102503678D01*
X169512189Y-102511770D01*
X169538139Y-102577854D01*
X169524241Y-102647477D01*
X169512189Y-102666230D01*
X169505912Y-102674322D01*
X169429352Y-102803779D01*
X169423107Y-102818210D01*
X169384061Y-102952605D01*
X169384101Y-102966706D01*
X169391370Y-102970000D01*
X170636885Y-102970000D01*
X170652124Y-102965525D01*
X170653329Y-102964135D01*
X170655000Y-102956452D01*
X170655000Y-102226115D01*
X170650525Y-102210876D01*
X170649135Y-102209671D01*
X170641452Y-102208000D01*
X169397122Y-102208000D01*
X169383591Y-102211973D01*
X169382456Y-102219871D01*
X167046500Y-102219871D01*
X167046500Y-85175371D01*
X167066502Y-85107250D01*
X167083405Y-85086276D01*
X168597276Y-83572405D01*
X168659588Y-83538379D01*
X168686371Y-83535500D01*
X169540002Y-83535500D01*
X169608123Y-83555502D01*
G37*
%TD.AperFunction*%
%TA.AperFunction,Conductor*%
G36*
X169608123Y-60187502D02*
G01*
X169654616Y-60241158D01*
X169664720Y-60311432D01*
X169660999Y-60328654D01*
X169638061Y-60407605D01*
X169638101Y-60421706D01*
X169645370Y-60425000D01*
X171291000Y-60425000D01*
X171359121Y-60445002D01*
X171405614Y-60498658D01*
X171417000Y-60551000D01*
X171417000Y-60807000D01*
X171396998Y-60875121D01*
X171343342Y-60921614D01*
X171291000Y-60933000D01*
X169651122Y-60933000D01*
X169637591Y-60936973D01*
X169636456Y-60944871D01*
X169677107Y-61084790D01*
X169683352Y-61099221D01*
X169759911Y-61228677D01*
X169765871Y-61236360D01*
X169791820Y-61302444D01*
X169777922Y-61372067D01*
X169767579Y-61388161D01*
X169763547Y-61392193D01*
X169678855Y-61535399D01*
X169632438Y-61695169D01*
X169631934Y-61701574D01*
X169631933Y-61701579D01*
X169629693Y-61730042D01*
X169629500Y-61732498D01*
X169629500Y-62165502D01*
X169629693Y-62167950D01*
X169629693Y-62167958D01*
X169631300Y-62188371D01*
X169632438Y-62202831D01*
X169678855Y-62362601D01*
X169763547Y-62505807D01*
X169766229Y-62508489D01*
X169791502Y-62572861D01*
X169777600Y-62642484D01*
X169767428Y-62658312D01*
X169763547Y-62662193D01*
X169678855Y-62805399D01*
X169632438Y-62965169D01*
X169629500Y-63002498D01*
X169629500Y-63435502D01*
X169632438Y-63472831D01*
X169678855Y-63632601D01*
X169682892Y-63639427D01*
X169759509Y-63768980D01*
X169759511Y-63768983D01*
X169763547Y-63775807D01*
X169881193Y-63893453D01*
X169888017Y-63897489D01*
X169888020Y-63897491D01*
X169995589Y-63961107D01*
X170024399Y-63978145D01*
X170032010Y-63980356D01*
X170032012Y-63980357D01*
X170084231Y-63995528D01*
X170184169Y-64024562D01*
X170190574Y-64025066D01*
X170190579Y-64025067D01*
X170219042Y-64027307D01*
X170219050Y-64027307D01*
X170221498Y-64027500D01*
X172095221Y-64027500D01*
X172163342Y-64047502D01*
X172209835Y-64101158D01*
X172221220Y-64153009D01*
X172270356Y-76764756D01*
X172250620Y-76832954D01*
X172197145Y-76879656D01*
X172134470Y-76890858D01*
X172106981Y-76888694D01*
X172106953Y-76888693D01*
X172104502Y-76888500D01*
X170221498Y-76888500D01*
X170219050Y-76888693D01*
X170219042Y-76888693D01*
X170190579Y-76890933D01*
X170190574Y-76890934D01*
X170184169Y-76891438D01*
X170084231Y-76920472D01*
X170032012Y-76935643D01*
X170032010Y-76935644D01*
X170024399Y-76937855D01*
X170017572Y-76941892D01*
X170017573Y-76941892D01*
X169888020Y-77018509D01*
X169888017Y-77018511D01*
X169881193Y-77022547D01*
X169763547Y-77140193D01*
X169759511Y-77147017D01*
X169759509Y-77147020D01*
X169695893Y-77254589D01*
X169678855Y-77283399D01*
X169632438Y-77443169D01*
X169631934Y-77449574D01*
X169631933Y-77449579D01*
X169631104Y-77460116D01*
X169629500Y-77480498D01*
X169629500Y-77913502D01*
X169632438Y-77950831D01*
X169678855Y-78110601D01*
X169763547Y-78253807D01*
X169766487Y-78256747D01*
X169791820Y-78321266D01*
X169777921Y-78390889D01*
X169765874Y-78409636D01*
X169759910Y-78417324D01*
X169683352Y-78546779D01*
X169677107Y-78561210D01*
X169638061Y-78695605D01*
X169638101Y-78709706D01*
X169645370Y-78713000D01*
X171291000Y-78713000D01*
X171359121Y-78733002D01*
X171405614Y-78786658D01*
X171417000Y-78839000D01*
X171417000Y-81635000D01*
X171396998Y-81703121D01*
X171343342Y-81749614D01*
X171291000Y-81761000D01*
X169651122Y-81761000D01*
X169637591Y-81764973D01*
X169636456Y-81772870D01*
X169660999Y-81857346D01*
X169660797Y-81928342D01*
X169622243Y-81987959D01*
X169557578Y-82017268D01*
X169540002Y-82018500D01*
X168387070Y-82018500D01*
X168368120Y-82017067D01*
X168353885Y-82014901D01*
X168353881Y-82014901D01*
X168346651Y-82013801D01*
X168339359Y-82014394D01*
X168339356Y-82014394D01*
X168293982Y-82018085D01*
X168283767Y-82018500D01*
X168275707Y-82018500D01*
X168272073Y-82018924D01*
X168272067Y-82018924D01*
X168259042Y-82020443D01*
X168247480Y-82021791D01*
X168243132Y-82022221D01*
X168170364Y-82028140D01*
X168163403Y-82030395D01*
X168157463Y-82031582D01*
X168151588Y-82032971D01*
X168144319Y-82033818D01*
X168075670Y-82058736D01*
X168071542Y-82060153D01*
X168009064Y-82080393D01*
X168009062Y-82080394D01*
X168002101Y-82082649D01*
X167995846Y-82086445D01*
X167990372Y-82088951D01*
X167984942Y-82091670D01*
X167978063Y-82094167D01*
X167971943Y-82098180D01*
X167971942Y-82098180D01*
X167917024Y-82134186D01*
X167913320Y-82136523D01*
X167850893Y-82174405D01*
X167842516Y-82181803D01*
X167842492Y-82181776D01*
X167839500Y-82184429D01*
X167836267Y-82187132D01*
X167830148Y-82191144D01*
X167776872Y-82247383D01*
X167774494Y-82249825D01*
X165799089Y-84225230D01*
X165784677Y-84237616D01*
X165773082Y-84246149D01*
X165773077Y-84246154D01*
X165767182Y-84250492D01*
X165762443Y-84256070D01*
X165762440Y-84256073D01*
X165744525Y-84277161D01*
X165685176Y-84316126D01*
X165614183Y-84316819D01*
X165554085Y-84279020D01*
X165523963Y-84214730D01*
X165522500Y-84195582D01*
X165522500Y-80502871D01*
X169636456Y-80502871D01*
X169677107Y-80642790D01*
X169683352Y-80657221D01*
X169759912Y-80786678D01*
X169766189Y-80794770D01*
X169792139Y-80860854D01*
X169778241Y-80930477D01*
X169766189Y-80949230D01*
X169759912Y-80957322D01*
X169683352Y-81086779D01*
X169677107Y-81101210D01*
X169638061Y-81235605D01*
X169638101Y-81249706D01*
X169645370Y-81253000D01*
X170890885Y-81253000D01*
X170906124Y-81248525D01*
X170907329Y-81247135D01*
X170909000Y-81239452D01*
X170909000Y-80509115D01*
X170904525Y-80493876D01*
X170903135Y-80492671D01*
X170895452Y-80491000D01*
X169651122Y-80491000D01*
X169637591Y-80494973D01*
X169636456Y-80502871D01*
X165522500Y-80502871D01*
X165522500Y-79232871D01*
X169636456Y-79232871D01*
X169677107Y-79372790D01*
X169683352Y-79387221D01*
X169759912Y-79516678D01*
X169766189Y-79524770D01*
X169792139Y-79590854D01*
X169778241Y-79660477D01*
X169766189Y-79679230D01*
X169759912Y-79687322D01*
X169683352Y-79816779D01*
X169677107Y-79831210D01*
X169638061Y-79965605D01*
X169638101Y-79979706D01*
X169645370Y-79983000D01*
X170890885Y-79983000D01*
X170906124Y-79978525D01*
X170907329Y-79977135D01*
X170909000Y-79969452D01*
X170909000Y-79239115D01*
X170904525Y-79223876D01*
X170903135Y-79222671D01*
X170895452Y-79221000D01*
X169651122Y-79221000D01*
X169637591Y-79224973D01*
X169636456Y-79232871D01*
X165522500Y-79232871D01*
X165522500Y-62188371D01*
X165542502Y-62120250D01*
X165559405Y-62099276D01*
X167454276Y-60204405D01*
X167516588Y-60170379D01*
X167543371Y-60167500D01*
X169540002Y-60167500D01*
X169608123Y-60187502D01*
G37*
%TD.AperFunction*%
%TD*%
%TA.AperFunction,Conductor*%
%TO.N,Net-(J2-Pad1)*%
G36*
X186135121Y-125850002D02*
G01*
X186181614Y-125903658D01*
X186193000Y-125956000D01*
X186193000Y-126700885D01*
X186197475Y-126716124D01*
X186198865Y-126717329D01*
X186206548Y-126719000D01*
X189290884Y-126719000D01*
X189306123Y-126714525D01*
X189307328Y-126713135D01*
X189308999Y-126705452D01*
X189308999Y-125956000D01*
X189329001Y-125887879D01*
X189382657Y-125841386D01*
X189434999Y-125830000D01*
X189784000Y-125830000D01*
X189852121Y-125850002D01*
X189898614Y-125903658D01*
X189910000Y-125956000D01*
X189910000Y-130276000D01*
X189889998Y-130344121D01*
X189836342Y-130390614D01*
X189784000Y-130402000D01*
X182468015Y-130402000D01*
X182399894Y-130381998D01*
X182353401Y-130328342D01*
X182343297Y-130258068D01*
X182347018Y-130240846D01*
X182368939Y-130165395D01*
X182368899Y-130151294D01*
X182361630Y-130148000D01*
X180716000Y-130148000D01*
X180647879Y-130127998D01*
X180601386Y-130074342D01*
X180590000Y-130022000D01*
X180590000Y-129621885D01*
X181098000Y-129621885D01*
X181102475Y-129637124D01*
X181103865Y-129638329D01*
X181111548Y-129640000D01*
X182355878Y-129640000D01*
X182369409Y-129636027D01*
X182370544Y-129628129D01*
X182329893Y-129488210D01*
X182323648Y-129473779D01*
X182247088Y-129344322D01*
X182240811Y-129336230D01*
X182214861Y-129270146D01*
X182228759Y-129200523D01*
X182240811Y-129181770D01*
X182247088Y-129173678D01*
X182323648Y-129044221D01*
X182329893Y-129029790D01*
X182368939Y-128895395D01*
X182368899Y-128881294D01*
X182361630Y-128878000D01*
X181116115Y-128878000D01*
X181100876Y-128882475D01*
X181099671Y-128883865D01*
X181098000Y-128891548D01*
X181098000Y-129621885D01*
X180590000Y-129621885D01*
X180590000Y-128351885D01*
X181098000Y-128351885D01*
X181102475Y-128367124D01*
X181103865Y-128368329D01*
X181111548Y-128370000D01*
X182355878Y-128370000D01*
X182369409Y-128366027D01*
X182370544Y-128358129D01*
X182329893Y-128218210D01*
X182323648Y-128203779D01*
X182247088Y-128074322D01*
X182241927Y-128067669D01*
X186193001Y-128067669D01*
X186193371Y-128074490D01*
X186198895Y-128125352D01*
X186202521Y-128140604D01*
X186247676Y-128261054D01*
X186256214Y-128276649D01*
X186332715Y-128378724D01*
X186345276Y-128391285D01*
X186447351Y-128467786D01*
X186462946Y-128476324D01*
X186583394Y-128521478D01*
X186598649Y-128525105D01*
X186649514Y-128530631D01*
X186656328Y-128531000D01*
X187478885Y-128531000D01*
X187494124Y-128526525D01*
X187495329Y-128525135D01*
X187497000Y-128517452D01*
X187497000Y-128512884D01*
X188005000Y-128512884D01*
X188009475Y-128528123D01*
X188010865Y-128529328D01*
X188018548Y-128530999D01*
X188845669Y-128530999D01*
X188852490Y-128530629D01*
X188903352Y-128525105D01*
X188918604Y-128521479D01*
X189039054Y-128476324D01*
X189054649Y-128467786D01*
X189156724Y-128391285D01*
X189169285Y-128378724D01*
X189245786Y-128276649D01*
X189254324Y-128261054D01*
X189299478Y-128140606D01*
X189303105Y-128125351D01*
X189308631Y-128074486D01*
X189309000Y-128067672D01*
X189309000Y-127245115D01*
X189304525Y-127229876D01*
X189303135Y-127228671D01*
X189295452Y-127227000D01*
X188023115Y-127227000D01*
X188007876Y-127231475D01*
X188006671Y-127232865D01*
X188005000Y-127240548D01*
X188005000Y-128512884D01*
X187497000Y-128512884D01*
X187497000Y-127245115D01*
X187492525Y-127229876D01*
X187491135Y-127228671D01*
X187483452Y-127227000D01*
X186211116Y-127227000D01*
X186195877Y-127231475D01*
X186194672Y-127232865D01*
X186193001Y-127240548D01*
X186193001Y-128067669D01*
X182241927Y-128067669D01*
X182240811Y-128066230D01*
X182214861Y-128000146D01*
X182228759Y-127930523D01*
X182240811Y-127911770D01*
X182247088Y-127903678D01*
X182323648Y-127774221D01*
X182329893Y-127759790D01*
X182368939Y-127625395D01*
X182368899Y-127611294D01*
X182361630Y-127608000D01*
X181116115Y-127608000D01*
X181100876Y-127612475D01*
X181099671Y-127613865D01*
X181098000Y-127621548D01*
X181098000Y-128351885D01*
X180590000Y-128351885D01*
X180590000Y-127081885D01*
X181098000Y-127081885D01*
X181102475Y-127097124D01*
X181103865Y-127098329D01*
X181111548Y-127100000D01*
X182355878Y-127100000D01*
X182369409Y-127096027D01*
X182370544Y-127088129D01*
X182329893Y-126948210D01*
X182323648Y-126933779D01*
X182247088Y-126804322D01*
X182240811Y-126796230D01*
X182214861Y-126730146D01*
X182228759Y-126660523D01*
X182240811Y-126641770D01*
X182247088Y-126633678D01*
X182323648Y-126504221D01*
X182329893Y-126489790D01*
X182368939Y-126355395D01*
X182368899Y-126341294D01*
X182361630Y-126338000D01*
X181116115Y-126338000D01*
X181100876Y-126342475D01*
X181099671Y-126343865D01*
X181098000Y-126351548D01*
X181098000Y-127081885D01*
X180590000Y-127081885D01*
X180590000Y-125956000D01*
X180610002Y-125887879D01*
X180663658Y-125841386D01*
X180716000Y-125830000D01*
X186067000Y-125830000D01*
X186135121Y-125850002D01*
G37*
%TD.AperFunction*%
%TD*%
%TA.AperFunction,Conductor*%
%TO.N,Net-(J2-Pad2)*%
G36*
X189852121Y-120516002D02*
G01*
X189898614Y-120569658D01*
X189910000Y-120622000D01*
X189910000Y-124942000D01*
X189889998Y-125010121D01*
X189836342Y-125056614D01*
X189784000Y-125068000D01*
X189360652Y-125068000D01*
X189292531Y-125047998D01*
X189246038Y-124994342D01*
X189235934Y-124924068D01*
X189238133Y-124912586D01*
X189293422Y-124682292D01*
X189294965Y-124672545D01*
X189313430Y-124437930D01*
X189313430Y-124428070D01*
X189294965Y-124193455D01*
X189293422Y-124183708D01*
X189238483Y-123954875D01*
X189235434Y-123945490D01*
X189145375Y-123728067D01*
X189140893Y-123719272D01*
X189029928Y-123538195D01*
X189019470Y-123528733D01*
X189010694Y-123532516D01*
X187840095Y-124703115D01*
X187777783Y-124737141D01*
X187706968Y-124732076D01*
X187661905Y-124703115D01*
X186494350Y-123535560D01*
X186481970Y-123528800D01*
X186474320Y-123534527D01*
X186361107Y-123719272D01*
X186356625Y-123728067D01*
X186266566Y-123945490D01*
X186263517Y-123954875D01*
X186208578Y-124183708D01*
X186207035Y-124193455D01*
X186188570Y-124428070D01*
X186188570Y-124437930D01*
X186207035Y-124672545D01*
X186208578Y-124682292D01*
X186263867Y-124912586D01*
X186260320Y-124983494D01*
X186219000Y-125041228D01*
X186153026Y-125067458D01*
X186141348Y-125068000D01*
X180716000Y-125068000D01*
X180647879Y-125047998D01*
X180601386Y-124994342D01*
X180590000Y-124942000D01*
X180590000Y-124541885D01*
X181098000Y-124541885D01*
X181102475Y-124557124D01*
X181103865Y-124558329D01*
X181111548Y-124560000D01*
X182355878Y-124560000D01*
X182369409Y-124556027D01*
X182370544Y-124548129D01*
X182329893Y-124408210D01*
X182323648Y-124393779D01*
X182247088Y-124264322D01*
X182240811Y-124256230D01*
X182214861Y-124190146D01*
X182228759Y-124120523D01*
X182240811Y-124101770D01*
X182247088Y-124093678D01*
X182323648Y-123964221D01*
X182329893Y-123949790D01*
X182368939Y-123815395D01*
X182368899Y-123801294D01*
X182361630Y-123798000D01*
X181116115Y-123798000D01*
X181100876Y-123802475D01*
X181099671Y-123803865D01*
X181098000Y-123811548D01*
X181098000Y-124541885D01*
X180590000Y-124541885D01*
X180590000Y-123271885D01*
X181098000Y-123271885D01*
X181102475Y-123287124D01*
X181103865Y-123288329D01*
X181111548Y-123290000D01*
X182355878Y-123290000D01*
X182369409Y-123286027D01*
X182370544Y-123278129D01*
X182337540Y-123164530D01*
X186846733Y-123164530D01*
X186850516Y-123173306D01*
X187738188Y-124060978D01*
X187752132Y-124068592D01*
X187753965Y-124068461D01*
X187760580Y-124064210D01*
X188648440Y-123176350D01*
X188655200Y-123163970D01*
X188649473Y-123156320D01*
X188464728Y-123043107D01*
X188455933Y-123038625D01*
X188238510Y-122948566D01*
X188229125Y-122945517D01*
X188000292Y-122890578D01*
X187990545Y-122889035D01*
X187755930Y-122870570D01*
X187746070Y-122870570D01*
X187511455Y-122889035D01*
X187501708Y-122890578D01*
X187272875Y-122945517D01*
X187263490Y-122948566D01*
X187046067Y-123038625D01*
X187037272Y-123043107D01*
X186856195Y-123154072D01*
X186846733Y-123164530D01*
X182337540Y-123164530D01*
X182329893Y-123138210D01*
X182323648Y-123123779D01*
X182247088Y-122994322D01*
X182240811Y-122986230D01*
X182214861Y-122920146D01*
X182228759Y-122850523D01*
X182240811Y-122831770D01*
X182247088Y-122823678D01*
X182323648Y-122694221D01*
X182329893Y-122679790D01*
X182368939Y-122545395D01*
X182368899Y-122531294D01*
X182361630Y-122528000D01*
X181116115Y-122528000D01*
X181100876Y-122532475D01*
X181099671Y-122533865D01*
X181098000Y-122541548D01*
X181098000Y-123271885D01*
X180590000Y-123271885D01*
X180590000Y-122001885D01*
X181098000Y-122001885D01*
X181102475Y-122017124D01*
X181103865Y-122018329D01*
X181111548Y-122020000D01*
X182355878Y-122020000D01*
X182369409Y-122016027D01*
X182370544Y-122008129D01*
X182329893Y-121868210D01*
X182323648Y-121853779D01*
X182247088Y-121724322D01*
X182240811Y-121716230D01*
X182214861Y-121650146D01*
X182228759Y-121580523D01*
X182240811Y-121561770D01*
X182247088Y-121553678D01*
X182323648Y-121424221D01*
X182329893Y-121409790D01*
X182368939Y-121275395D01*
X182368899Y-121261294D01*
X182361630Y-121258000D01*
X181116115Y-121258000D01*
X181100876Y-121262475D01*
X181099671Y-121263865D01*
X181098000Y-121271548D01*
X181098000Y-122001885D01*
X180590000Y-122001885D01*
X180590000Y-120876000D01*
X180610002Y-120807879D01*
X180663658Y-120761386D01*
X180716000Y-120750000D01*
X182355878Y-120750000D01*
X182369409Y-120746027D01*
X182370544Y-120738130D01*
X182347018Y-120657154D01*
X182347220Y-120586157D01*
X182385774Y-120526541D01*
X182450439Y-120497232D01*
X182468015Y-120496000D01*
X189784000Y-120496000D01*
X189852121Y-120516002D01*
G37*
%TD.AperFunction*%
%TD*%
%TA.AperFunction,Conductor*%
%TO.N,Net-(J3-Pad1)*%
G36*
X186135121Y-82543002D02*
G01*
X186181614Y-82596658D01*
X186193000Y-82649000D01*
X186193000Y-83266885D01*
X186197475Y-83282124D01*
X186198865Y-83283329D01*
X186206548Y-83285000D01*
X189290884Y-83285000D01*
X189306123Y-83280525D01*
X189307328Y-83279135D01*
X189308999Y-83271452D01*
X189308999Y-82649000D01*
X189329001Y-82580879D01*
X189382657Y-82534386D01*
X189434999Y-82523000D01*
X189784000Y-82523000D01*
X189852121Y-82543002D01*
X189898614Y-82596658D01*
X189910000Y-82649000D01*
X189910000Y-86969000D01*
X189889998Y-87037121D01*
X189836342Y-87083614D01*
X189784000Y-87095000D01*
X182087015Y-87095000D01*
X182018894Y-87074998D01*
X181972401Y-87021342D01*
X181962297Y-86951068D01*
X181966018Y-86933846D01*
X181987939Y-86858395D01*
X181987899Y-86844294D01*
X181980630Y-86841000D01*
X180335000Y-86841000D01*
X180266879Y-86820998D01*
X180220386Y-86767342D01*
X180209000Y-86715000D01*
X180209000Y-86314885D01*
X180717000Y-86314885D01*
X180721475Y-86330124D01*
X180722865Y-86331329D01*
X180730548Y-86333000D01*
X181974878Y-86333000D01*
X181988409Y-86329027D01*
X181989544Y-86321129D01*
X181948893Y-86181210D01*
X181942648Y-86166779D01*
X181866088Y-86037322D01*
X181859811Y-86029230D01*
X181833861Y-85963146D01*
X181847759Y-85893523D01*
X181859811Y-85874770D01*
X181866088Y-85866678D01*
X181942648Y-85737221D01*
X181948893Y-85722790D01*
X181987939Y-85588395D01*
X181987899Y-85574294D01*
X181980630Y-85571000D01*
X180735115Y-85571000D01*
X180719876Y-85575475D01*
X180718671Y-85576865D01*
X180717000Y-85584548D01*
X180717000Y-86314885D01*
X180209000Y-86314885D01*
X180209000Y-85044885D01*
X180717000Y-85044885D01*
X180721475Y-85060124D01*
X180722865Y-85061329D01*
X180730548Y-85063000D01*
X181974878Y-85063000D01*
X181988409Y-85059027D01*
X181989544Y-85051129D01*
X181948893Y-84911210D01*
X181942648Y-84896779D01*
X181866088Y-84767322D01*
X181859811Y-84759230D01*
X181833861Y-84693146D01*
X181845734Y-84633669D01*
X186193001Y-84633669D01*
X186193371Y-84640490D01*
X186198895Y-84691352D01*
X186202521Y-84706604D01*
X186247676Y-84827054D01*
X186256214Y-84842649D01*
X186332715Y-84944724D01*
X186345276Y-84957285D01*
X186447351Y-85033786D01*
X186462946Y-85042324D01*
X186583394Y-85087478D01*
X186598649Y-85091105D01*
X186649514Y-85096631D01*
X186656328Y-85097000D01*
X187478885Y-85097000D01*
X187494124Y-85092525D01*
X187495329Y-85091135D01*
X187497000Y-85083452D01*
X187497000Y-85078884D01*
X188005000Y-85078884D01*
X188009475Y-85094123D01*
X188010865Y-85095328D01*
X188018548Y-85096999D01*
X188845669Y-85096999D01*
X188852490Y-85096629D01*
X188903352Y-85091105D01*
X188918604Y-85087479D01*
X189039054Y-85042324D01*
X189054649Y-85033786D01*
X189156724Y-84957285D01*
X189169285Y-84944724D01*
X189245786Y-84842649D01*
X189254324Y-84827054D01*
X189299478Y-84706606D01*
X189303105Y-84691351D01*
X189308631Y-84640486D01*
X189309000Y-84633672D01*
X189309000Y-83811115D01*
X189304525Y-83795876D01*
X189303135Y-83794671D01*
X189295452Y-83793000D01*
X188023115Y-83793000D01*
X188007876Y-83797475D01*
X188006671Y-83798865D01*
X188005000Y-83806548D01*
X188005000Y-85078884D01*
X187497000Y-85078884D01*
X187497000Y-83811115D01*
X187492525Y-83795876D01*
X187491135Y-83794671D01*
X187483452Y-83793000D01*
X186211116Y-83793000D01*
X186195877Y-83797475D01*
X186194672Y-83798865D01*
X186193001Y-83806548D01*
X186193001Y-84633669D01*
X181845734Y-84633669D01*
X181847759Y-84623523D01*
X181859811Y-84604770D01*
X181866088Y-84596678D01*
X181942648Y-84467221D01*
X181948893Y-84452790D01*
X181987939Y-84318395D01*
X181987899Y-84304294D01*
X181980630Y-84301000D01*
X180735115Y-84301000D01*
X180719876Y-84305475D01*
X180718671Y-84306865D01*
X180717000Y-84314548D01*
X180717000Y-85044885D01*
X180209000Y-85044885D01*
X180209000Y-83774885D01*
X180717000Y-83774885D01*
X180721475Y-83790124D01*
X180722865Y-83791329D01*
X180730548Y-83793000D01*
X181974878Y-83793000D01*
X181988409Y-83789027D01*
X181989544Y-83781129D01*
X181948893Y-83641210D01*
X181942648Y-83626779D01*
X181866088Y-83497322D01*
X181859811Y-83489230D01*
X181833861Y-83423146D01*
X181847759Y-83353523D01*
X181859811Y-83334770D01*
X181866088Y-83326678D01*
X181942648Y-83197221D01*
X181948893Y-83182790D01*
X181987939Y-83048395D01*
X181987899Y-83034294D01*
X181980630Y-83031000D01*
X180735115Y-83031000D01*
X180719876Y-83035475D01*
X180718671Y-83036865D01*
X180717000Y-83044548D01*
X180717000Y-83774885D01*
X180209000Y-83774885D01*
X180209000Y-82649000D01*
X180229002Y-82580879D01*
X180282658Y-82534386D01*
X180335000Y-82523000D01*
X186067000Y-82523000D01*
X186135121Y-82543002D01*
G37*
%TD.AperFunction*%
%TD*%
%TA.AperFunction,Conductor*%
%TO.N,Net-(J3-Pad2)*%
G36*
X189852121Y-77082002D02*
G01*
X189898614Y-77135658D01*
X189910000Y-77188000D01*
X189910000Y-81635000D01*
X189889998Y-81703121D01*
X189836342Y-81749614D01*
X189784000Y-81761000D01*
X189310309Y-81761000D01*
X189242188Y-81740998D01*
X189195695Y-81687342D01*
X189185591Y-81617068D01*
X189193900Y-81586782D01*
X189235434Y-81486510D01*
X189238483Y-81477125D01*
X189293422Y-81248292D01*
X189294965Y-81238545D01*
X189313430Y-81003930D01*
X189313430Y-80994070D01*
X189294965Y-80759455D01*
X189293422Y-80749708D01*
X189238483Y-80520875D01*
X189235434Y-80511490D01*
X189145375Y-80294067D01*
X189140893Y-80285272D01*
X189029928Y-80104195D01*
X189019470Y-80094733D01*
X189010694Y-80098516D01*
X187840095Y-81269115D01*
X187777783Y-81303141D01*
X187706968Y-81298076D01*
X187661905Y-81269115D01*
X186494350Y-80101560D01*
X186481970Y-80094800D01*
X186474320Y-80100527D01*
X186361107Y-80285272D01*
X186356625Y-80294067D01*
X186266566Y-80511490D01*
X186263517Y-80520875D01*
X186208578Y-80749708D01*
X186207035Y-80759455D01*
X186188570Y-80994070D01*
X186188570Y-81003930D01*
X186207035Y-81238545D01*
X186208578Y-81248292D01*
X186263517Y-81477125D01*
X186266566Y-81486510D01*
X186308100Y-81586782D01*
X186315689Y-81657372D01*
X186283910Y-81720859D01*
X186222851Y-81757086D01*
X186191691Y-81761000D01*
X180335000Y-81761000D01*
X180266879Y-81740998D01*
X180220386Y-81687342D01*
X180209000Y-81635000D01*
X180209000Y-81234885D01*
X180717000Y-81234885D01*
X180721475Y-81250124D01*
X180722865Y-81251329D01*
X180730548Y-81253000D01*
X181974878Y-81253000D01*
X181988409Y-81249027D01*
X181989544Y-81241129D01*
X181948893Y-81101210D01*
X181942648Y-81086779D01*
X181866088Y-80957322D01*
X181859811Y-80949230D01*
X181833861Y-80883146D01*
X181847759Y-80813523D01*
X181859811Y-80794770D01*
X181866088Y-80786678D01*
X181942648Y-80657221D01*
X181948893Y-80642790D01*
X181987939Y-80508395D01*
X181987899Y-80494294D01*
X181980630Y-80491000D01*
X180735115Y-80491000D01*
X180719876Y-80495475D01*
X180718671Y-80496865D01*
X180717000Y-80504548D01*
X180717000Y-81234885D01*
X180209000Y-81234885D01*
X180209000Y-79964885D01*
X180717000Y-79964885D01*
X180721475Y-79980124D01*
X180722865Y-79981329D01*
X180730548Y-79983000D01*
X181974878Y-79983000D01*
X181988409Y-79979027D01*
X181989544Y-79971129D01*
X181948893Y-79831210D01*
X181942648Y-79816779D01*
X181891641Y-79730530D01*
X186846733Y-79730530D01*
X186850516Y-79739306D01*
X187738188Y-80626978D01*
X187752132Y-80634592D01*
X187753965Y-80634461D01*
X187760580Y-80630210D01*
X188648440Y-79742350D01*
X188655200Y-79729970D01*
X188649473Y-79722320D01*
X188464728Y-79609107D01*
X188455933Y-79604625D01*
X188238510Y-79514566D01*
X188229125Y-79511517D01*
X188000292Y-79456578D01*
X187990545Y-79455035D01*
X187755930Y-79436570D01*
X187746070Y-79436570D01*
X187511455Y-79455035D01*
X187501708Y-79456578D01*
X187272875Y-79511517D01*
X187263490Y-79514566D01*
X187046067Y-79604625D01*
X187037272Y-79609107D01*
X186856195Y-79720072D01*
X186846733Y-79730530D01*
X181891641Y-79730530D01*
X181866088Y-79687322D01*
X181859811Y-79679230D01*
X181833861Y-79613146D01*
X181847759Y-79543523D01*
X181859811Y-79524770D01*
X181866088Y-79516678D01*
X181942648Y-79387221D01*
X181948893Y-79372790D01*
X181987939Y-79238395D01*
X181987899Y-79224294D01*
X181980630Y-79221000D01*
X180735115Y-79221000D01*
X180719876Y-79225475D01*
X180718671Y-79226865D01*
X180717000Y-79234548D01*
X180717000Y-79964885D01*
X180209000Y-79964885D01*
X180209000Y-78694885D01*
X180717000Y-78694885D01*
X180721475Y-78710124D01*
X180722865Y-78711329D01*
X180730548Y-78713000D01*
X181974878Y-78713000D01*
X181988409Y-78709027D01*
X181989544Y-78701129D01*
X181948893Y-78561210D01*
X181942648Y-78546779D01*
X181866088Y-78417322D01*
X181859811Y-78409230D01*
X181833861Y-78343146D01*
X181847759Y-78273523D01*
X181859811Y-78254770D01*
X181866088Y-78246678D01*
X181942648Y-78117221D01*
X181948893Y-78102790D01*
X181987939Y-77968395D01*
X181987899Y-77954294D01*
X181980630Y-77951000D01*
X180735115Y-77951000D01*
X180719876Y-77955475D01*
X180718671Y-77956865D01*
X180717000Y-77964548D01*
X180717000Y-78694885D01*
X180209000Y-78694885D01*
X180209000Y-77569000D01*
X180229002Y-77500879D01*
X180282658Y-77454386D01*
X180335000Y-77443000D01*
X181974878Y-77443000D01*
X181988409Y-77439027D01*
X181989544Y-77431129D01*
X181948893Y-77291210D01*
X181942645Y-77276773D01*
X181928077Y-77252139D01*
X181910617Y-77183323D01*
X181933134Y-77115992D01*
X181988478Y-77071522D01*
X182036530Y-77062000D01*
X189784000Y-77062000D01*
X189852121Y-77082002D01*
G37*
%TD.AperFunction*%
%TD*%
%TA.AperFunction,Conductor*%
%TO.N,Net-(J4-Pad1)*%
G36*
X186389121Y-105657002D02*
G01*
X186435614Y-105710658D01*
X186447000Y-105763000D01*
X186447000Y-106380885D01*
X186451475Y-106396124D01*
X186452865Y-106397329D01*
X186460548Y-106399000D01*
X189544884Y-106399000D01*
X189560123Y-106394525D01*
X189561328Y-106393135D01*
X189562999Y-106385452D01*
X189562999Y-105763000D01*
X189583001Y-105694879D01*
X189636657Y-105648386D01*
X189688999Y-105637000D01*
X189784000Y-105637000D01*
X189852121Y-105657002D01*
X189898614Y-105710658D01*
X189910000Y-105763000D01*
X189910000Y-109956000D01*
X189889998Y-110024121D01*
X189836342Y-110070614D01*
X189784000Y-110082000D01*
X181833015Y-110082000D01*
X181764894Y-110061998D01*
X181718401Y-110008342D01*
X181708297Y-109938068D01*
X181712018Y-109920846D01*
X181733939Y-109845395D01*
X181733899Y-109831294D01*
X181726630Y-109828000D01*
X180081000Y-109828000D01*
X180012879Y-109807998D01*
X179966386Y-109754342D01*
X179955000Y-109702000D01*
X179955000Y-109301885D01*
X180463000Y-109301885D01*
X180467475Y-109317124D01*
X180468865Y-109318329D01*
X180476548Y-109320000D01*
X181720878Y-109320000D01*
X181734409Y-109316027D01*
X181735544Y-109308129D01*
X181694893Y-109168210D01*
X181688648Y-109153779D01*
X181612088Y-109024322D01*
X181605811Y-109016230D01*
X181579861Y-108950146D01*
X181593759Y-108880523D01*
X181605811Y-108861770D01*
X181612088Y-108853678D01*
X181688648Y-108724221D01*
X181694893Y-108709790D01*
X181733939Y-108575395D01*
X181733899Y-108561294D01*
X181726630Y-108558000D01*
X180481115Y-108558000D01*
X180465876Y-108562475D01*
X180464671Y-108563865D01*
X180463000Y-108571548D01*
X180463000Y-109301885D01*
X179955000Y-109301885D01*
X179955000Y-108031885D01*
X180463000Y-108031885D01*
X180467475Y-108047124D01*
X180468865Y-108048329D01*
X180476548Y-108050000D01*
X181720878Y-108050000D01*
X181734409Y-108046027D01*
X181735544Y-108038129D01*
X181694893Y-107898210D01*
X181688648Y-107883779D01*
X181612088Y-107754322D01*
X181606927Y-107747669D01*
X186447001Y-107747669D01*
X186447371Y-107754490D01*
X186452895Y-107805352D01*
X186456521Y-107820604D01*
X186501676Y-107941054D01*
X186510214Y-107956649D01*
X186586715Y-108058724D01*
X186599276Y-108071285D01*
X186701351Y-108147786D01*
X186716946Y-108156324D01*
X186837394Y-108201478D01*
X186852649Y-108205105D01*
X186903514Y-108210631D01*
X186910328Y-108211000D01*
X187732885Y-108211000D01*
X187748124Y-108206525D01*
X187749329Y-108205135D01*
X187751000Y-108197452D01*
X187751000Y-108192884D01*
X188259000Y-108192884D01*
X188263475Y-108208123D01*
X188264865Y-108209328D01*
X188272548Y-108210999D01*
X189099669Y-108210999D01*
X189106490Y-108210629D01*
X189157352Y-108205105D01*
X189172604Y-108201479D01*
X189293054Y-108156324D01*
X189308649Y-108147786D01*
X189410724Y-108071285D01*
X189423285Y-108058724D01*
X189499786Y-107956649D01*
X189508324Y-107941054D01*
X189553478Y-107820606D01*
X189557105Y-107805351D01*
X189562631Y-107754486D01*
X189563000Y-107747672D01*
X189563000Y-106925115D01*
X189558525Y-106909876D01*
X189557135Y-106908671D01*
X189549452Y-106907000D01*
X188277115Y-106907000D01*
X188261876Y-106911475D01*
X188260671Y-106912865D01*
X188259000Y-106920548D01*
X188259000Y-108192884D01*
X187751000Y-108192884D01*
X187751000Y-106925115D01*
X187746525Y-106909876D01*
X187745135Y-106908671D01*
X187737452Y-106907000D01*
X186465116Y-106907000D01*
X186449877Y-106911475D01*
X186448672Y-106912865D01*
X186447001Y-106920548D01*
X186447001Y-107747669D01*
X181606927Y-107747669D01*
X181605811Y-107746230D01*
X181579861Y-107680146D01*
X181593759Y-107610523D01*
X181605811Y-107591770D01*
X181612088Y-107583678D01*
X181688648Y-107454221D01*
X181694893Y-107439790D01*
X181733939Y-107305395D01*
X181733899Y-107291294D01*
X181726630Y-107288000D01*
X180481115Y-107288000D01*
X180465876Y-107292475D01*
X180464671Y-107293865D01*
X180463000Y-107301548D01*
X180463000Y-108031885D01*
X179955000Y-108031885D01*
X179955000Y-106761885D01*
X180463000Y-106761885D01*
X180467475Y-106777124D01*
X180468865Y-106778329D01*
X180476548Y-106780000D01*
X181720878Y-106780000D01*
X181734409Y-106776027D01*
X181735544Y-106768129D01*
X181694893Y-106628210D01*
X181688648Y-106613779D01*
X181612088Y-106484322D01*
X181605811Y-106476230D01*
X181579861Y-106410146D01*
X181593759Y-106340523D01*
X181605811Y-106321770D01*
X181612088Y-106313678D01*
X181688648Y-106184221D01*
X181694893Y-106169790D01*
X181733939Y-106035395D01*
X181733899Y-106021294D01*
X181726630Y-106018000D01*
X180481115Y-106018000D01*
X180465876Y-106022475D01*
X180464671Y-106023865D01*
X180463000Y-106031548D01*
X180463000Y-106761885D01*
X179955000Y-106761885D01*
X179955000Y-105637000D01*
X186321000Y-105637000D01*
X186389121Y-105657002D01*
G37*
%TD.AperFunction*%
%TD*%
%TA.AperFunction,Conductor*%
%TO.N,Net-(J4-Pad2)*%
G36*
X189852121Y-100196002D02*
G01*
X189898614Y-100249658D01*
X189910000Y-100302000D01*
X189910000Y-104622000D01*
X189889998Y-104690121D01*
X189836342Y-104736614D01*
X189784000Y-104748000D01*
X189614652Y-104748000D01*
X189546531Y-104727998D01*
X189500038Y-104674342D01*
X189489934Y-104604068D01*
X189492133Y-104592586D01*
X189547422Y-104362292D01*
X189548965Y-104352545D01*
X189567430Y-104117930D01*
X189567430Y-104108070D01*
X189548965Y-103873455D01*
X189547422Y-103863708D01*
X189492483Y-103634875D01*
X189489434Y-103625490D01*
X189399375Y-103408067D01*
X189394893Y-103399272D01*
X189283928Y-103218195D01*
X189273470Y-103208733D01*
X189264694Y-103212516D01*
X188094095Y-104383115D01*
X188031783Y-104417141D01*
X187960968Y-104412076D01*
X187915905Y-104383115D01*
X186748350Y-103215560D01*
X186735970Y-103208800D01*
X186728320Y-103214527D01*
X186615107Y-103399272D01*
X186610625Y-103408067D01*
X186520566Y-103625490D01*
X186517517Y-103634875D01*
X186462578Y-103863708D01*
X186461035Y-103873455D01*
X186442570Y-104108070D01*
X186442570Y-104117930D01*
X186461035Y-104352545D01*
X186462578Y-104362292D01*
X186517867Y-104592586D01*
X186514320Y-104663494D01*
X186473000Y-104721228D01*
X186407026Y-104747458D01*
X186395348Y-104748000D01*
X180081000Y-104748000D01*
X180012879Y-104727998D01*
X179966386Y-104674342D01*
X179955000Y-104622000D01*
X179955000Y-104221885D01*
X180463000Y-104221885D01*
X180467475Y-104237124D01*
X180468865Y-104238329D01*
X180476548Y-104240000D01*
X181720878Y-104240000D01*
X181734409Y-104236027D01*
X181735544Y-104228129D01*
X181694893Y-104088210D01*
X181688648Y-104073779D01*
X181612088Y-103944322D01*
X181605811Y-103936230D01*
X181579861Y-103870146D01*
X181593759Y-103800523D01*
X181605811Y-103781770D01*
X181612088Y-103773678D01*
X181688648Y-103644221D01*
X181694893Y-103629790D01*
X181733939Y-103495395D01*
X181733899Y-103481294D01*
X181726630Y-103478000D01*
X180481115Y-103478000D01*
X180465876Y-103482475D01*
X180464671Y-103483865D01*
X180463000Y-103491548D01*
X180463000Y-104221885D01*
X179955000Y-104221885D01*
X179955000Y-102951885D01*
X180463000Y-102951885D01*
X180467475Y-102967124D01*
X180468865Y-102968329D01*
X180476548Y-102970000D01*
X181720878Y-102970000D01*
X181734409Y-102966027D01*
X181735544Y-102958129D01*
X181702540Y-102844530D01*
X187100733Y-102844530D01*
X187104516Y-102853306D01*
X187992188Y-103740978D01*
X188006132Y-103748592D01*
X188007965Y-103748461D01*
X188014580Y-103744210D01*
X188902440Y-102856350D01*
X188909200Y-102843970D01*
X188903473Y-102836320D01*
X188718728Y-102723107D01*
X188709933Y-102718625D01*
X188492510Y-102628566D01*
X188483125Y-102625517D01*
X188254292Y-102570578D01*
X188244545Y-102569035D01*
X188009930Y-102550570D01*
X188000070Y-102550570D01*
X187765455Y-102569035D01*
X187755708Y-102570578D01*
X187526875Y-102625517D01*
X187517490Y-102628566D01*
X187300067Y-102718625D01*
X187291272Y-102723107D01*
X187110195Y-102834072D01*
X187100733Y-102844530D01*
X181702540Y-102844530D01*
X181694893Y-102818210D01*
X181688648Y-102803779D01*
X181612088Y-102674322D01*
X181605811Y-102666230D01*
X181579861Y-102600146D01*
X181593759Y-102530523D01*
X181605811Y-102511770D01*
X181612088Y-102503678D01*
X181688648Y-102374221D01*
X181694893Y-102359790D01*
X181733939Y-102225395D01*
X181733899Y-102211294D01*
X181726630Y-102208000D01*
X180481115Y-102208000D01*
X180465876Y-102212475D01*
X180464671Y-102213865D01*
X180463000Y-102221548D01*
X180463000Y-102951885D01*
X179955000Y-102951885D01*
X179955000Y-101681885D01*
X180463000Y-101681885D01*
X180467475Y-101697124D01*
X180468865Y-101698329D01*
X180476548Y-101700000D01*
X181720878Y-101700000D01*
X181734409Y-101696027D01*
X181735544Y-101688129D01*
X181694893Y-101548210D01*
X181688648Y-101533779D01*
X181612088Y-101404322D01*
X181605811Y-101396230D01*
X181579861Y-101330146D01*
X181593759Y-101260523D01*
X181605811Y-101241770D01*
X181612088Y-101233678D01*
X181688648Y-101104221D01*
X181694893Y-101089790D01*
X181733939Y-100955395D01*
X181733899Y-100941294D01*
X181726630Y-100938000D01*
X180481115Y-100938000D01*
X180465876Y-100942475D01*
X180464671Y-100943865D01*
X180463000Y-100951548D01*
X180463000Y-101681885D01*
X179955000Y-101681885D01*
X179955000Y-100556000D01*
X179975002Y-100487879D01*
X180028658Y-100441386D01*
X180081000Y-100430000D01*
X181720878Y-100430000D01*
X181734409Y-100426027D01*
X181735544Y-100418130D01*
X181712018Y-100337154D01*
X181712220Y-100266157D01*
X181750774Y-100206541D01*
X181815439Y-100177232D01*
X181833015Y-100176000D01*
X189784000Y-100176000D01*
X189852121Y-100196002D01*
G37*
%TD.AperFunction*%
%TD*%
%TA.AperFunction,Conductor*%
%TO.N,Net-(J5-Pad1)*%
G36*
X186516121Y-59175002D02*
G01*
X186562614Y-59228658D01*
X186574000Y-59281000D01*
X186574000Y-60025885D01*
X186578475Y-60041124D01*
X186579865Y-60042329D01*
X186587548Y-60044000D01*
X189671884Y-60044000D01*
X189687123Y-60039525D01*
X189688328Y-60038135D01*
X189689999Y-60030452D01*
X189689999Y-59281000D01*
X189710001Y-59212879D01*
X189763657Y-59166386D01*
X189815999Y-59155000D01*
X190038000Y-59155000D01*
X190106121Y-59175002D01*
X190152614Y-59228658D01*
X190164000Y-59281000D01*
X190164000Y-63855000D01*
X190143998Y-63923121D01*
X190090342Y-63969614D01*
X190038000Y-63981000D01*
X181958592Y-63981000D01*
X181890471Y-63960998D01*
X181843978Y-63907342D01*
X181833874Y-63837068D01*
X181859033Y-63777773D01*
X181866089Y-63768676D01*
X181942648Y-63639221D01*
X181948893Y-63624790D01*
X181987939Y-63490395D01*
X181987899Y-63476294D01*
X181980630Y-63473000D01*
X180335000Y-63473000D01*
X180266879Y-63452998D01*
X180220386Y-63399342D01*
X180209000Y-63347000D01*
X180209000Y-62946885D01*
X180717000Y-62946885D01*
X180721475Y-62962124D01*
X180722865Y-62963329D01*
X180730548Y-62965000D01*
X181974878Y-62965000D01*
X181988409Y-62961027D01*
X181989544Y-62953129D01*
X181948893Y-62813210D01*
X181942648Y-62798779D01*
X181866088Y-62669322D01*
X181859811Y-62661230D01*
X181833861Y-62595146D01*
X181847759Y-62525523D01*
X181859811Y-62506770D01*
X181866088Y-62498678D01*
X181942648Y-62369221D01*
X181948893Y-62354790D01*
X181987939Y-62220395D01*
X181987899Y-62206294D01*
X181980630Y-62203000D01*
X180735115Y-62203000D01*
X180719876Y-62207475D01*
X180718671Y-62208865D01*
X180717000Y-62216548D01*
X180717000Y-62946885D01*
X180209000Y-62946885D01*
X180209000Y-61676885D01*
X180717000Y-61676885D01*
X180721475Y-61692124D01*
X180722865Y-61693329D01*
X180730548Y-61695000D01*
X181974878Y-61695000D01*
X181988409Y-61691027D01*
X181989544Y-61683129D01*
X181948893Y-61543210D01*
X181942648Y-61528779D01*
X181866088Y-61399322D01*
X181860927Y-61392669D01*
X186574001Y-61392669D01*
X186574371Y-61399490D01*
X186579895Y-61450352D01*
X186583521Y-61465604D01*
X186628676Y-61586054D01*
X186637214Y-61601649D01*
X186713715Y-61703724D01*
X186726276Y-61716285D01*
X186828351Y-61792786D01*
X186843946Y-61801324D01*
X186964394Y-61846478D01*
X186979649Y-61850105D01*
X187030514Y-61855631D01*
X187037328Y-61856000D01*
X187859885Y-61856000D01*
X187875124Y-61851525D01*
X187876329Y-61850135D01*
X187878000Y-61842452D01*
X187878000Y-61837884D01*
X188386000Y-61837884D01*
X188390475Y-61853123D01*
X188391865Y-61854328D01*
X188399548Y-61855999D01*
X189226669Y-61855999D01*
X189233490Y-61855629D01*
X189284352Y-61850105D01*
X189299604Y-61846479D01*
X189420054Y-61801324D01*
X189435649Y-61792786D01*
X189537724Y-61716285D01*
X189550285Y-61703724D01*
X189626786Y-61601649D01*
X189635324Y-61586054D01*
X189680478Y-61465606D01*
X189684105Y-61450351D01*
X189689631Y-61399486D01*
X189690000Y-61392672D01*
X189690000Y-60570115D01*
X189685525Y-60554876D01*
X189684135Y-60553671D01*
X189676452Y-60552000D01*
X188404115Y-60552000D01*
X188388876Y-60556475D01*
X188387671Y-60557865D01*
X188386000Y-60565548D01*
X188386000Y-61837884D01*
X187878000Y-61837884D01*
X187878000Y-60570115D01*
X187873525Y-60554876D01*
X187872135Y-60553671D01*
X187864452Y-60552000D01*
X186592116Y-60552000D01*
X186576877Y-60556475D01*
X186575672Y-60557865D01*
X186574001Y-60565548D01*
X186574001Y-61392669D01*
X181860927Y-61392669D01*
X181859811Y-61391230D01*
X181833861Y-61325146D01*
X181847759Y-61255523D01*
X181859811Y-61236770D01*
X181866088Y-61228678D01*
X181942648Y-61099221D01*
X181948893Y-61084790D01*
X181987939Y-60950395D01*
X181987899Y-60936294D01*
X181980630Y-60933000D01*
X180735115Y-60933000D01*
X180719876Y-60937475D01*
X180718671Y-60938865D01*
X180717000Y-60946548D01*
X180717000Y-61676885D01*
X180209000Y-61676885D01*
X180209000Y-60406885D01*
X180717000Y-60406885D01*
X180721475Y-60422124D01*
X180722865Y-60423329D01*
X180730548Y-60425000D01*
X181974878Y-60425000D01*
X181988409Y-60421027D01*
X181989544Y-60413129D01*
X181948893Y-60273210D01*
X181942648Y-60258779D01*
X181866088Y-60129322D01*
X181859811Y-60121230D01*
X181833861Y-60055146D01*
X181847759Y-59985523D01*
X181859811Y-59966770D01*
X181866088Y-59958678D01*
X181942648Y-59829221D01*
X181948893Y-59814790D01*
X181987939Y-59680395D01*
X181987899Y-59666294D01*
X181980630Y-59663000D01*
X180735115Y-59663000D01*
X180719876Y-59667475D01*
X180718671Y-59668865D01*
X180717000Y-59676548D01*
X180717000Y-60406885D01*
X180209000Y-60406885D01*
X180209000Y-59281000D01*
X180229002Y-59212879D01*
X180282658Y-59166386D01*
X180335000Y-59155000D01*
X186448000Y-59155000D01*
X186516121Y-59175002D01*
G37*
%TD.AperFunction*%
%TD*%
%TA.AperFunction,Conductor*%
%TO.N,Net-(J5-Pad2)*%
G36*
X190106121Y-53841002D02*
G01*
X190152614Y-53894658D01*
X190164000Y-53947000D01*
X190164000Y-58521000D01*
X190143998Y-58589121D01*
X190090342Y-58635614D01*
X190038000Y-58647000D01*
X189638201Y-58647000D01*
X189570080Y-58626998D01*
X189523587Y-58573342D01*
X189513483Y-58503068D01*
X189524727Y-58467607D01*
X189524481Y-58467505D01*
X189525667Y-58464643D01*
X189525936Y-58463793D01*
X189526377Y-58462927D01*
X189616434Y-58245510D01*
X189619483Y-58236125D01*
X189674422Y-58007292D01*
X189675965Y-57997545D01*
X189694430Y-57762930D01*
X189694430Y-57753070D01*
X189675965Y-57518455D01*
X189674422Y-57508708D01*
X189619483Y-57279875D01*
X189616434Y-57270490D01*
X189526375Y-57053067D01*
X189521893Y-57044272D01*
X189410928Y-56863195D01*
X189400470Y-56853733D01*
X189391694Y-56857516D01*
X188221095Y-58028115D01*
X188158783Y-58062141D01*
X188087968Y-58057076D01*
X188042905Y-58028115D01*
X186875350Y-56860560D01*
X186862970Y-56853800D01*
X186855320Y-56859527D01*
X186742107Y-57044272D01*
X186737625Y-57053067D01*
X186647566Y-57270490D01*
X186644517Y-57279875D01*
X186589578Y-57508708D01*
X186588035Y-57518455D01*
X186569570Y-57753070D01*
X186569570Y-57762930D01*
X186588035Y-57997545D01*
X186589578Y-58007292D01*
X186644517Y-58236125D01*
X186647566Y-58245510D01*
X186737623Y-58462927D01*
X186738064Y-58463793D01*
X186738132Y-58464158D01*
X186739519Y-58467505D01*
X186738816Y-58467796D01*
X186751170Y-58533570D01*
X186724473Y-58599355D01*
X186666447Y-58640263D01*
X186625799Y-58647000D01*
X182087015Y-58647000D01*
X182018894Y-58626998D01*
X181972401Y-58573342D01*
X181962297Y-58503068D01*
X181966018Y-58485846D01*
X181987939Y-58410395D01*
X181987899Y-58396294D01*
X181980630Y-58393000D01*
X180335000Y-58393000D01*
X180266879Y-58372998D01*
X180220386Y-58319342D01*
X180209000Y-58267000D01*
X180209000Y-57866885D01*
X180717000Y-57866885D01*
X180721475Y-57882124D01*
X180722865Y-57883329D01*
X180730548Y-57885000D01*
X181974878Y-57885000D01*
X181988409Y-57881027D01*
X181989544Y-57873129D01*
X181948893Y-57733210D01*
X181942648Y-57718779D01*
X181866088Y-57589322D01*
X181859811Y-57581230D01*
X181833861Y-57515146D01*
X181847759Y-57445523D01*
X181859811Y-57426770D01*
X181866088Y-57418678D01*
X181942648Y-57289221D01*
X181948893Y-57274790D01*
X181987939Y-57140395D01*
X181987899Y-57126294D01*
X181980630Y-57123000D01*
X180735115Y-57123000D01*
X180719876Y-57127475D01*
X180718671Y-57128865D01*
X180717000Y-57136548D01*
X180717000Y-57866885D01*
X180209000Y-57866885D01*
X180209000Y-56596885D01*
X180717000Y-56596885D01*
X180721475Y-56612124D01*
X180722865Y-56613329D01*
X180730548Y-56615000D01*
X181974878Y-56615000D01*
X181988409Y-56611027D01*
X181989544Y-56603129D01*
X181956540Y-56489530D01*
X187227733Y-56489530D01*
X187231516Y-56498306D01*
X188119188Y-57385978D01*
X188133132Y-57393592D01*
X188134965Y-57393461D01*
X188141580Y-57389210D01*
X189029440Y-56501350D01*
X189036200Y-56488970D01*
X189030473Y-56481320D01*
X188845728Y-56368107D01*
X188836933Y-56363625D01*
X188619510Y-56273566D01*
X188610125Y-56270517D01*
X188381292Y-56215578D01*
X188371545Y-56214035D01*
X188136930Y-56195570D01*
X188127070Y-56195570D01*
X187892455Y-56214035D01*
X187882708Y-56215578D01*
X187653875Y-56270517D01*
X187644490Y-56273566D01*
X187427067Y-56363625D01*
X187418272Y-56368107D01*
X187237195Y-56479072D01*
X187227733Y-56489530D01*
X181956540Y-56489530D01*
X181948893Y-56463210D01*
X181942648Y-56448779D01*
X181866088Y-56319322D01*
X181859811Y-56311230D01*
X181833861Y-56245146D01*
X181847759Y-56175523D01*
X181859811Y-56156770D01*
X181866088Y-56148678D01*
X181942648Y-56019221D01*
X181948893Y-56004790D01*
X181987939Y-55870395D01*
X181987899Y-55856294D01*
X181980630Y-55853000D01*
X180735115Y-55853000D01*
X180719876Y-55857475D01*
X180718671Y-55858865D01*
X180717000Y-55866548D01*
X180717000Y-56596885D01*
X180209000Y-56596885D01*
X180209000Y-55326885D01*
X180717000Y-55326885D01*
X180721475Y-55342124D01*
X180722865Y-55343329D01*
X180730548Y-55345000D01*
X181974878Y-55345000D01*
X181988409Y-55341027D01*
X181989544Y-55333129D01*
X181948893Y-55193210D01*
X181942648Y-55178779D01*
X181866088Y-55049322D01*
X181859811Y-55041230D01*
X181833861Y-54975146D01*
X181847759Y-54905523D01*
X181859811Y-54886770D01*
X181866088Y-54878678D01*
X181942648Y-54749221D01*
X181948893Y-54734790D01*
X181987939Y-54600395D01*
X181987899Y-54586294D01*
X181980630Y-54583000D01*
X180735115Y-54583000D01*
X180719876Y-54587475D01*
X180718671Y-54588865D01*
X180717000Y-54596548D01*
X180717000Y-55326885D01*
X180209000Y-55326885D01*
X180209000Y-54201000D01*
X180229002Y-54132879D01*
X180282658Y-54086386D01*
X180335000Y-54075000D01*
X181974878Y-54075000D01*
X181988409Y-54071027D01*
X181989544Y-54063130D01*
X181966018Y-53982154D01*
X181966220Y-53911157D01*
X182004774Y-53851541D01*
X182069439Y-53822232D01*
X182087015Y-53821000D01*
X190038000Y-53821000D01*
X190106121Y-53841002D01*
G37*
%TD.AperFunction*%
%TD*%
M02*
