%TF.GenerationSoftware,KiCad,Pcbnew,(6.0.4)*%
%TF.CreationDate,2023-07-24T12:57:32-04:00*%
%TF.ProjectId,BREAD_Slice,42524541-445f-4536-9c69-63652e6b6963,rev?*%
%TF.SameCoordinates,Original*%
%TF.FileFunction,Legend,Top*%
%TF.FilePolarity,Positive*%
%FSLAX46Y46*%
G04 Gerber Fmt 4.6, Leading zero omitted, Abs format (unit mm)*
G04 Created by KiCad (PCBNEW (6.0.4)) date 2023-07-24 12:57:32*
%MOMM*%
%LPD*%
G01*
G04 APERTURE LIST*
%ADD10C,0.150000*%
%ADD11C,0.300000*%
%ADD12C,0.120000*%
%ADD13C,0.010000*%
G04 APERTURE END LIST*
D10*
X131390476Y-99511904D02*
X130933334Y-99511904D01*
X131161905Y-99511904D02*
X131161905Y-98711904D01*
X131085715Y-98826190D01*
X131009524Y-98902380D01*
X130933334Y-98940476D01*
X131695238Y-98788095D02*
X131733334Y-98750000D01*
X131809524Y-98711904D01*
X132000000Y-98711904D01*
X132076191Y-98750000D01*
X132114286Y-98788095D01*
X132152381Y-98864285D01*
X132152381Y-98940476D01*
X132114286Y-99054761D01*
X131657143Y-99511904D01*
X132152381Y-99511904D01*
X132380953Y-98711904D02*
X132647619Y-99511904D01*
X132914286Y-98711904D01*
X142943333Y-129907142D02*
X142943333Y-128954761D01*
X143514761Y-130097619D02*
X141514761Y-129430952D01*
X143514761Y-128764285D01*
X143514761Y-126954761D02*
X142562380Y-127621428D01*
X143514761Y-128097619D02*
X141514761Y-128097619D01*
X141514761Y-127335714D01*
X141610000Y-127145238D01*
X141705238Y-127050000D01*
X141895714Y-126954761D01*
X142181428Y-126954761D01*
X142371904Y-127050000D01*
X142467142Y-127145238D01*
X142562380Y-127335714D01*
X142562380Y-128097619D01*
X143514761Y-126097619D02*
X141514761Y-126097619D01*
X141514761Y-125621428D01*
X141610000Y-125335714D01*
X141800476Y-125145238D01*
X141990952Y-125050000D01*
X142371904Y-124954761D01*
X142657619Y-124954761D01*
X143038571Y-125050000D01*
X143229047Y-125145238D01*
X143419523Y-125335714D01*
X143514761Y-125621428D01*
X143514761Y-126097619D01*
X141514761Y-124097619D02*
X143133809Y-124097619D01*
X143324285Y-124002380D01*
X143419523Y-123907142D01*
X143514761Y-123716666D01*
X143514761Y-123335714D01*
X143419523Y-123145238D01*
X143324285Y-123050000D01*
X143133809Y-122954761D01*
X141514761Y-122954761D01*
X143514761Y-122002380D02*
X141514761Y-122002380D01*
X143514761Y-121050000D02*
X141514761Y-121050000D01*
X143514761Y-119907142D01*
X141514761Y-119907142D01*
X141514761Y-118573809D02*
X141514761Y-118192857D01*
X141610000Y-118002380D01*
X141800476Y-117811904D01*
X142181428Y-117716666D01*
X142848095Y-117716666D01*
X143229047Y-117811904D01*
X143419523Y-118002380D01*
X143514761Y-118192857D01*
X143514761Y-118573809D01*
X143419523Y-118764285D01*
X143229047Y-118954761D01*
X142848095Y-119050000D01*
X142181428Y-119050000D01*
X141800476Y-118954761D01*
X141610000Y-118764285D01*
X141514761Y-118573809D01*
X143514761Y-115335714D02*
X141514761Y-115335714D01*
X143514761Y-114192857D01*
X141514761Y-114192857D01*
X142943333Y-113335714D02*
X142943333Y-112383333D01*
X143514761Y-113526190D02*
X141514761Y-112859523D01*
X143514761Y-112192857D01*
X143514761Y-111526190D02*
X141514761Y-111526190D01*
X143514761Y-110383333D01*
X141514761Y-110383333D01*
X141514761Y-109050000D02*
X141514761Y-108669047D01*
X141610000Y-108478571D01*
X141800476Y-108288095D01*
X142181428Y-108192857D01*
X142848095Y-108192857D01*
X143229047Y-108288095D01*
X143419523Y-108478571D01*
X143514761Y-108669047D01*
X143514761Y-109050000D01*
X143419523Y-109240476D01*
X143229047Y-109430952D01*
X142848095Y-109526190D01*
X142181428Y-109526190D01*
X141800476Y-109430952D01*
X141610000Y-109240476D01*
X141514761Y-109050000D01*
D11*
X177664285Y-126238714D02*
X177592857Y-126310142D01*
X177378571Y-126381571D01*
X177235714Y-126381571D01*
X177021428Y-126310142D01*
X176878571Y-126167285D01*
X176807142Y-126024428D01*
X176735714Y-125738714D01*
X176735714Y-125524428D01*
X176807142Y-125238714D01*
X176878571Y-125095857D01*
X177021428Y-124953000D01*
X177235714Y-124881571D01*
X177378571Y-124881571D01*
X177592857Y-124953000D01*
X177664285Y-125024428D01*
X178307142Y-124881571D02*
X178307142Y-126095857D01*
X178378571Y-126238714D01*
X178450000Y-126310142D01*
X178592857Y-126381571D01*
X178878571Y-126381571D01*
X179021428Y-126310142D01*
X179092857Y-126238714D01*
X179164285Y-126095857D01*
X179164285Y-124881571D01*
X180735714Y-126381571D02*
X180235714Y-125667285D01*
X179878571Y-126381571D02*
X179878571Y-124881571D01*
X180450000Y-124881571D01*
X180592857Y-124953000D01*
X180664285Y-125024428D01*
X180735714Y-125167285D01*
X180735714Y-125381571D01*
X180664285Y-125524428D01*
X180592857Y-125595857D01*
X180450000Y-125667285D01*
X179878571Y-125667285D01*
X182164285Y-126381571D02*
X181307142Y-126381571D01*
X181735714Y-126381571D02*
X181735714Y-124881571D01*
X181592857Y-125095857D01*
X181450000Y-125238714D01*
X181307142Y-125310142D01*
D10*
X130933333Y-86773809D02*
X131047619Y-86811904D01*
X131238095Y-86811904D01*
X131314285Y-86773809D01*
X131352381Y-86735714D01*
X131390476Y-86659523D01*
X131390476Y-86583333D01*
X131352381Y-86507142D01*
X131314285Y-86469047D01*
X131238095Y-86430952D01*
X131085714Y-86392857D01*
X131009523Y-86354761D01*
X130971428Y-86316666D01*
X130933333Y-86240476D01*
X130933333Y-86164285D01*
X130971428Y-86088095D01*
X131009523Y-86050000D01*
X131085714Y-86011904D01*
X131276190Y-86011904D01*
X131390476Y-86050000D01*
X131733333Y-86811904D02*
X131733333Y-86011904D01*
X131923809Y-86011904D01*
X132038095Y-86050000D01*
X132114285Y-86126190D01*
X132152381Y-86202380D01*
X132190476Y-86354761D01*
X132190476Y-86469047D01*
X132152381Y-86621428D01*
X132114285Y-86697619D01*
X132038095Y-86773809D01*
X131923809Y-86811904D01*
X131733333Y-86811904D01*
X132495238Y-86583333D02*
X132876190Y-86583333D01*
X132419047Y-86811904D02*
X132685714Y-86011904D01*
X132952381Y-86811904D01*
X130933333Y-94373809D02*
X131047619Y-94411904D01*
X131238095Y-94411904D01*
X131314286Y-94373809D01*
X131352381Y-94335714D01*
X131390476Y-94259523D01*
X131390476Y-94183333D01*
X131352381Y-94107142D01*
X131314286Y-94069047D01*
X131238095Y-94030952D01*
X131085714Y-93992857D01*
X131009524Y-93954761D01*
X130971429Y-93916666D01*
X130933333Y-93840476D01*
X130933333Y-93764285D01*
X130971429Y-93688095D01*
X131009524Y-93650000D01*
X131085714Y-93611904D01*
X131276190Y-93611904D01*
X131390476Y-93650000D01*
X131885714Y-94030952D02*
X131885714Y-94411904D01*
X131619048Y-93611904D02*
X131885714Y-94030952D01*
X132152381Y-93611904D01*
X132419048Y-94411904D02*
X132419048Y-93611904D01*
X132876190Y-94411904D01*
X132876190Y-93611904D01*
X133714286Y-94335714D02*
X133676190Y-94373809D01*
X133561905Y-94411904D01*
X133485714Y-94411904D01*
X133371429Y-94373809D01*
X133295238Y-94297619D01*
X133257143Y-94221428D01*
X133219048Y-94069047D01*
X133219048Y-93954761D01*
X133257143Y-93802380D01*
X133295238Y-93726190D01*
X133371429Y-93650000D01*
X133485714Y-93611904D01*
X133561905Y-93611904D01*
X133676190Y-93650000D01*
X133714286Y-93688095D01*
X131390476Y-78400000D02*
X131314285Y-78361904D01*
X131200000Y-78361904D01*
X131085714Y-78400000D01*
X131009523Y-78476190D01*
X130971428Y-78552380D01*
X130933333Y-78704761D01*
X130933333Y-78819047D01*
X130971428Y-78971428D01*
X131009523Y-79047619D01*
X131085714Y-79123809D01*
X131200000Y-79161904D01*
X131276190Y-79161904D01*
X131390476Y-79123809D01*
X131428571Y-79085714D01*
X131428571Y-78819047D01*
X131276190Y-78819047D01*
X131771428Y-79161904D02*
X131771428Y-78361904D01*
X132228571Y-79161904D01*
X132228571Y-78361904D01*
X132609523Y-79161904D02*
X132609523Y-78361904D01*
X132800000Y-78361904D01*
X132914285Y-78400000D01*
X132990476Y-78476190D01*
X133028571Y-78552380D01*
X133066666Y-78704761D01*
X133066666Y-78819047D01*
X133028571Y-78971428D01*
X132990476Y-79047619D01*
X132914285Y-79123809D01*
X132800000Y-79161904D01*
X132609523Y-79161904D01*
X130933334Y-84223809D02*
X131047619Y-84261904D01*
X131238095Y-84261904D01*
X131314286Y-84223809D01*
X131352381Y-84185714D01*
X131390476Y-84109523D01*
X131390476Y-84033333D01*
X131352381Y-83957142D01*
X131314286Y-83919047D01*
X131238095Y-83880952D01*
X131085715Y-83842857D01*
X131009524Y-83804761D01*
X130971429Y-83766666D01*
X130933334Y-83690476D01*
X130933334Y-83614285D01*
X130971429Y-83538095D01*
X131009524Y-83500000D01*
X131085715Y-83461904D01*
X131276191Y-83461904D01*
X131390476Y-83500000D01*
X132190476Y-84185714D02*
X132152381Y-84223809D01*
X132038095Y-84261904D01*
X131961905Y-84261904D01*
X131847619Y-84223809D01*
X131771429Y-84147619D01*
X131733334Y-84071428D01*
X131695238Y-83919047D01*
X131695238Y-83804761D01*
X131733334Y-83652380D01*
X131771429Y-83576190D01*
X131847619Y-83500000D01*
X131961905Y-83461904D01*
X132038095Y-83461904D01*
X132152381Y-83500000D01*
X132190476Y-83538095D01*
X132914286Y-84261904D02*
X132533334Y-84261904D01*
X132533334Y-83461904D01*
D11*
X177664285Y-82804714D02*
X177592857Y-82876142D01*
X177378571Y-82947571D01*
X177235714Y-82947571D01*
X177021428Y-82876142D01*
X176878571Y-82733285D01*
X176807142Y-82590428D01*
X176735714Y-82304714D01*
X176735714Y-82090428D01*
X176807142Y-81804714D01*
X176878571Y-81661857D01*
X177021428Y-81519000D01*
X177235714Y-81447571D01*
X177378571Y-81447571D01*
X177592857Y-81519000D01*
X177664285Y-81590428D01*
X178307142Y-81447571D02*
X178307142Y-82661857D01*
X178378571Y-82804714D01*
X178450000Y-82876142D01*
X178592857Y-82947571D01*
X178878571Y-82947571D01*
X179021428Y-82876142D01*
X179092857Y-82804714D01*
X179164285Y-82661857D01*
X179164285Y-81447571D01*
X180735714Y-82947571D02*
X180235714Y-82233285D01*
X179878571Y-82947571D02*
X179878571Y-81447571D01*
X180450000Y-81447571D01*
X180592857Y-81519000D01*
X180664285Y-81590428D01*
X180735714Y-81733285D01*
X180735714Y-81947571D01*
X180664285Y-82090428D01*
X180592857Y-82161857D01*
X180450000Y-82233285D01*
X179878571Y-82233285D01*
X181235714Y-81447571D02*
X182164285Y-81447571D01*
X181664285Y-82019000D01*
X181878571Y-82019000D01*
X182021428Y-82090428D01*
X182092857Y-82161857D01*
X182164285Y-82304714D01*
X182164285Y-82661857D01*
X182092857Y-82804714D01*
X182021428Y-82876142D01*
X181878571Y-82947571D01*
X181450000Y-82947571D01*
X181307142Y-82876142D01*
X181235714Y-82804714D01*
X177664285Y-59563714D02*
X177592857Y-59635142D01*
X177378571Y-59706571D01*
X177235714Y-59706571D01*
X177021428Y-59635142D01*
X176878571Y-59492285D01*
X176807142Y-59349428D01*
X176735714Y-59063714D01*
X176735714Y-58849428D01*
X176807142Y-58563714D01*
X176878571Y-58420857D01*
X177021428Y-58278000D01*
X177235714Y-58206571D01*
X177378571Y-58206571D01*
X177592857Y-58278000D01*
X177664285Y-58349428D01*
X178307142Y-58206571D02*
X178307142Y-59420857D01*
X178378571Y-59563714D01*
X178450000Y-59635142D01*
X178592857Y-59706571D01*
X178878571Y-59706571D01*
X179021428Y-59635142D01*
X179092857Y-59563714D01*
X179164285Y-59420857D01*
X179164285Y-58206571D01*
X180735714Y-59706571D02*
X180235714Y-58992285D01*
X179878571Y-59706571D02*
X179878571Y-58206571D01*
X180450000Y-58206571D01*
X180592857Y-58278000D01*
X180664285Y-58349428D01*
X180735714Y-58492285D01*
X180735714Y-58706571D01*
X180664285Y-58849428D01*
X180592857Y-58920857D01*
X180450000Y-58992285D01*
X179878571Y-58992285D01*
X182021428Y-58706571D02*
X182021428Y-59706571D01*
X181664285Y-58135142D02*
X181307142Y-59206571D01*
X182235714Y-59206571D01*
D10*
X131390476Y-81711904D02*
X130933334Y-81711904D01*
X131161905Y-81711904D02*
X131161905Y-80911904D01*
X131085715Y-81026190D01*
X131009524Y-81102380D01*
X130933334Y-81140476D01*
X131695238Y-80988095D02*
X131733334Y-80950000D01*
X131809524Y-80911904D01*
X132000000Y-80911904D01*
X132076191Y-80950000D01*
X132114286Y-80988095D01*
X132152381Y-81064285D01*
X132152381Y-81140476D01*
X132114286Y-81254761D01*
X131657143Y-81711904D01*
X132152381Y-81711904D01*
X132380953Y-80911904D02*
X132647619Y-81711904D01*
X132914286Y-80911904D01*
X130971428Y-91442857D02*
X131238095Y-91442857D01*
X131352380Y-91861904D02*
X130971428Y-91861904D01*
X130971428Y-91061904D01*
X131352380Y-91061904D01*
X131657142Y-91823809D02*
X131771428Y-91861904D01*
X131961904Y-91861904D01*
X132038095Y-91823809D01*
X132076190Y-91785714D01*
X132114285Y-91709523D01*
X132114285Y-91633333D01*
X132076190Y-91557142D01*
X132038095Y-91519047D01*
X131961904Y-91480952D01*
X131809523Y-91442857D01*
X131733333Y-91404761D01*
X131695238Y-91366666D01*
X131657142Y-91290476D01*
X131657142Y-91214285D01*
X131695238Y-91138095D01*
X131733333Y-91100000D01*
X131809523Y-91061904D01*
X131999999Y-91061904D01*
X132114285Y-91100000D01*
X132342857Y-91061904D02*
X132799999Y-91061904D01*
X132571428Y-91861904D02*
X132571428Y-91061904D01*
X133219047Y-91061904D02*
X133371428Y-91061904D01*
X133447619Y-91100000D01*
X133523809Y-91176190D01*
X133561904Y-91328571D01*
X133561904Y-91595238D01*
X133523809Y-91747619D01*
X133447619Y-91823809D01*
X133371428Y-91861904D01*
X133219047Y-91861904D01*
X133142857Y-91823809D01*
X133066666Y-91747619D01*
X133028571Y-91595238D01*
X133028571Y-91328571D01*
X133066666Y-91176190D01*
X133142857Y-91100000D01*
X133219047Y-91061904D01*
X133904761Y-91861904D02*
X133904761Y-91061904D01*
X134209523Y-91061904D01*
X134285714Y-91100000D01*
X134323809Y-91138095D01*
X134361904Y-91214285D01*
X134361904Y-91328571D01*
X134323809Y-91404761D01*
X134285714Y-91442857D01*
X134209523Y-91480952D01*
X133904761Y-91480952D01*
X131390476Y-88600000D02*
X131314285Y-88561904D01*
X131200000Y-88561904D01*
X131085714Y-88600000D01*
X131009523Y-88676190D01*
X130971428Y-88752380D01*
X130933333Y-88904761D01*
X130933333Y-89019047D01*
X130971428Y-89171428D01*
X131009523Y-89247619D01*
X131085714Y-89323809D01*
X131200000Y-89361904D01*
X131276190Y-89361904D01*
X131390476Y-89323809D01*
X131428571Y-89285714D01*
X131428571Y-89019047D01*
X131276190Y-89019047D01*
X131771428Y-89361904D02*
X131771428Y-88561904D01*
X132228571Y-89361904D01*
X132228571Y-88561904D01*
X132609523Y-89361904D02*
X132609523Y-88561904D01*
X132800000Y-88561904D01*
X132914285Y-88600000D01*
X132990476Y-88676190D01*
X133028571Y-88752380D01*
X133066666Y-88904761D01*
X133066666Y-89019047D01*
X133028571Y-89171428D01*
X132990476Y-89247619D01*
X132914285Y-89323809D01*
X132800000Y-89361904D01*
X132609523Y-89361904D01*
X130971428Y-96961904D02*
X130971428Y-96161904D01*
X131352380Y-96961904D02*
X131352380Y-96161904D01*
X131809523Y-96961904D01*
X131809523Y-96161904D01*
X132076190Y-96161904D02*
X132533333Y-96161904D01*
X132304761Y-96961904D02*
X132304761Y-96161904D01*
X131390476Y-101250000D02*
X131314285Y-101211904D01*
X131200000Y-101211904D01*
X131085714Y-101250000D01*
X131009523Y-101326190D01*
X130971428Y-101402380D01*
X130933333Y-101554761D01*
X130933333Y-101669047D01*
X130971428Y-101821428D01*
X131009523Y-101897619D01*
X131085714Y-101973809D01*
X131200000Y-102011904D01*
X131276190Y-102011904D01*
X131390476Y-101973809D01*
X131428571Y-101935714D01*
X131428571Y-101669047D01*
X131276190Y-101669047D01*
X131771428Y-102011904D02*
X131771428Y-101211904D01*
X132228571Y-102011904D01*
X132228571Y-101211904D01*
X132609523Y-102011904D02*
X132609523Y-101211904D01*
X132800000Y-101211904D01*
X132914285Y-101250000D01*
X132990476Y-101326190D01*
X133028571Y-101402380D01*
X133066666Y-101554761D01*
X133066666Y-101669047D01*
X133028571Y-101821428D01*
X132990476Y-101897619D01*
X132914285Y-101973809D01*
X132800000Y-102011904D01*
X132609523Y-102011904D01*
D11*
X177664285Y-105918714D02*
X177592857Y-105990142D01*
X177378571Y-106061571D01*
X177235714Y-106061571D01*
X177021428Y-105990142D01*
X176878571Y-105847285D01*
X176807142Y-105704428D01*
X176735714Y-105418714D01*
X176735714Y-105204428D01*
X176807142Y-104918714D01*
X176878571Y-104775857D01*
X177021428Y-104633000D01*
X177235714Y-104561571D01*
X177378571Y-104561571D01*
X177592857Y-104633000D01*
X177664285Y-104704428D01*
X178307142Y-104561571D02*
X178307142Y-105775857D01*
X178378571Y-105918714D01*
X178450000Y-105990142D01*
X178592857Y-106061571D01*
X178878571Y-106061571D01*
X179021428Y-105990142D01*
X179092857Y-105918714D01*
X179164285Y-105775857D01*
X179164285Y-104561571D01*
X180735714Y-106061571D02*
X180235714Y-105347285D01*
X179878571Y-106061571D02*
X179878571Y-104561571D01*
X180450000Y-104561571D01*
X180592857Y-104633000D01*
X180664285Y-104704428D01*
X180735714Y-104847285D01*
X180735714Y-105061571D01*
X180664285Y-105204428D01*
X180592857Y-105275857D01*
X180450000Y-105347285D01*
X179878571Y-105347285D01*
X181307142Y-104704428D02*
X181378571Y-104633000D01*
X181521428Y-104561571D01*
X181878571Y-104561571D01*
X182021428Y-104633000D01*
X182092857Y-104704428D01*
X182164285Y-104847285D01*
X182164285Y-104990142D01*
X182092857Y-105204428D01*
X181235714Y-106061571D01*
X182164285Y-106061571D01*
D10*
X152715619Y-134959380D02*
X152144190Y-134959380D01*
X152429904Y-134959380D02*
X152429904Y-133959380D01*
X152334666Y-134102238D01*
X152239428Y-134197476D01*
X152144190Y-134245095D01*
X153334666Y-133959380D02*
X153429904Y-133959380D01*
X153525142Y-134007000D01*
X153572761Y-134054619D01*
X153620380Y-134149857D01*
X153668000Y-134340333D01*
X153668000Y-134578428D01*
X153620380Y-134768904D01*
X153572761Y-134864142D01*
X153525142Y-134911761D01*
X153429904Y-134959380D01*
X153334666Y-134959380D01*
X153239428Y-134911761D01*
X153191809Y-134864142D01*
X153144190Y-134768904D01*
X153096571Y-134578428D01*
X153096571Y-134340333D01*
X153144190Y-134149857D01*
X153191809Y-134054619D01*
X153239428Y-134007000D01*
X153334666Y-133959380D01*
X154048952Y-134673666D02*
X154525142Y-134673666D01*
X153953714Y-134959380D02*
X154287047Y-133959380D01*
X154620380Y-134959380D01*
X156287047Y-134864142D02*
X156239428Y-134911761D01*
X156096571Y-134959380D01*
X156001333Y-134959380D01*
X155858476Y-134911761D01*
X155763238Y-134816523D01*
X155715619Y-134721285D01*
X155668000Y-134530809D01*
X155668000Y-134387952D01*
X155715619Y-134197476D01*
X155763238Y-134102238D01*
X155858476Y-134007000D01*
X156001333Y-133959380D01*
X156096571Y-133959380D01*
X156239428Y-134007000D01*
X156287047Y-134054619D01*
X157144190Y-134292714D02*
X157144190Y-134959380D01*
X156715619Y-134292714D02*
X156715619Y-134816523D01*
X156763238Y-134911761D01*
X156858476Y-134959380D01*
X157001333Y-134959380D01*
X157096571Y-134911761D01*
X157144190Y-134864142D01*
X157620380Y-134959380D02*
X157620380Y-134292714D01*
X157620380Y-134483190D02*
X157668000Y-134387952D01*
X157715619Y-134340333D01*
X157810857Y-134292714D01*
X157906095Y-134292714D01*
X158239428Y-134959380D02*
X158239428Y-134292714D01*
X158239428Y-134483190D02*
X158287047Y-134387952D01*
X158334666Y-134340333D01*
X158429904Y-134292714D01*
X158525142Y-134292714D01*
X159239428Y-134911761D02*
X159144190Y-134959380D01*
X158953714Y-134959380D01*
X158858476Y-134911761D01*
X158810857Y-134816523D01*
X158810857Y-134435571D01*
X158858476Y-134340333D01*
X158953714Y-134292714D01*
X159144190Y-134292714D01*
X159239428Y-134340333D01*
X159287047Y-134435571D01*
X159287047Y-134530809D01*
X158810857Y-134626047D01*
X159715619Y-134292714D02*
X159715619Y-134959380D01*
X159715619Y-134387952D02*
X159763238Y-134340333D01*
X159858476Y-134292714D01*
X160001333Y-134292714D01*
X160096571Y-134340333D01*
X160144190Y-134435571D01*
X160144190Y-134959380D01*
X160477523Y-134292714D02*
X160858476Y-134292714D01*
X160620380Y-133959380D02*
X160620380Y-134816523D01*
X160668000Y-134911761D01*
X160763238Y-134959380D01*
X160858476Y-134959380D01*
X161906095Y-134911761D02*
X162048952Y-134959380D01*
X162287047Y-134959380D01*
X162382285Y-134911761D01*
X162429904Y-134864142D01*
X162477523Y-134768904D01*
X162477523Y-134673666D01*
X162429904Y-134578428D01*
X162382285Y-134530809D01*
X162287047Y-134483190D01*
X162096571Y-134435571D01*
X162001333Y-134387952D01*
X161953714Y-134340333D01*
X161906095Y-134245095D01*
X161906095Y-134149857D01*
X161953714Y-134054619D01*
X162001333Y-134007000D01*
X162096571Y-133959380D01*
X162334666Y-133959380D01*
X162477523Y-134007000D01*
X163048952Y-134959380D02*
X162953714Y-134911761D01*
X162906095Y-134816523D01*
X162906095Y-133959380D01*
X163429904Y-134959380D02*
X163429904Y-134292714D01*
X163429904Y-133959380D02*
X163382285Y-134007000D01*
X163429904Y-134054619D01*
X163477523Y-134007000D01*
X163429904Y-133959380D01*
X163429904Y-134054619D01*
X164334666Y-134911761D02*
X164239428Y-134959380D01*
X164048952Y-134959380D01*
X163953714Y-134911761D01*
X163906095Y-134864142D01*
X163858476Y-134768904D01*
X163858476Y-134483190D01*
X163906095Y-134387952D01*
X163953714Y-134340333D01*
X164048952Y-134292714D01*
X164239428Y-134292714D01*
X164334666Y-134340333D01*
X165144190Y-134911761D02*
X165048952Y-134959380D01*
X164858476Y-134959380D01*
X164763238Y-134911761D01*
X164715619Y-134816523D01*
X164715619Y-134435571D01*
X164763238Y-134340333D01*
X164858476Y-134292714D01*
X165048952Y-134292714D01*
X165144190Y-134340333D01*
X165191809Y-134435571D01*
X165191809Y-134530809D01*
X164715619Y-134626047D01*
X155144190Y-136521761D02*
X155287047Y-136569380D01*
X155525142Y-136569380D01*
X155620380Y-136521761D01*
X155668000Y-136474142D01*
X155715619Y-136378904D01*
X155715619Y-136283666D01*
X155668000Y-136188428D01*
X155620380Y-136140809D01*
X155525142Y-136093190D01*
X155334666Y-136045571D01*
X155239428Y-135997952D01*
X155191809Y-135950333D01*
X155144190Y-135855095D01*
X155144190Y-135759857D01*
X155191809Y-135664619D01*
X155239428Y-135617000D01*
X155334666Y-135569380D01*
X155572761Y-135569380D01*
X155715619Y-135617000D01*
X156620380Y-136569380D02*
X156144190Y-136569380D01*
X156144190Y-135569380D01*
X157525142Y-136474142D02*
X157477523Y-136521761D01*
X157334666Y-136569380D01*
X157239428Y-136569380D01*
X157096571Y-136521761D01*
X157001333Y-136426523D01*
X156953714Y-136331285D01*
X156906095Y-136140809D01*
X156906095Y-135997952D01*
X156953714Y-135807476D01*
X157001333Y-135712238D01*
X157096571Y-135617000D01*
X157239428Y-135569380D01*
X157334666Y-135569380D01*
X157477523Y-135617000D01*
X157525142Y-135664619D01*
X157715619Y-136664619D02*
X158477523Y-136664619D01*
X159287047Y-136474142D02*
X159239428Y-136521761D01*
X159096571Y-136569380D01*
X159001333Y-136569380D01*
X158858476Y-136521761D01*
X158763238Y-136426523D01*
X158715619Y-136331285D01*
X158668000Y-136140809D01*
X158668000Y-135997952D01*
X158715619Y-135807476D01*
X158763238Y-135712238D01*
X158858476Y-135617000D01*
X159001333Y-135569380D01*
X159096571Y-135569380D01*
X159239428Y-135617000D01*
X159287047Y-135664619D01*
X160287047Y-136569380D02*
X159953714Y-136093190D01*
X159715619Y-136569380D02*
X159715619Y-135569380D01*
X160096571Y-135569380D01*
X160191809Y-135617000D01*
X160239428Y-135664619D01*
X160287047Y-135759857D01*
X160287047Y-135902714D01*
X160239428Y-135997952D01*
X160191809Y-136045571D01*
X160096571Y-136093190D01*
X159715619Y-136093190D01*
X161239428Y-136569380D02*
X160668000Y-136569380D01*
X160953714Y-136569380D02*
X160953714Y-135569380D01*
X160858476Y-135712238D01*
X160763238Y-135807476D01*
X160668000Y-135855095D01*
X161858476Y-135569380D02*
X161953714Y-135569380D01*
X162048952Y-135617000D01*
X162096571Y-135664619D01*
X162144190Y-135759857D01*
X162191809Y-135950333D01*
X162191809Y-136188428D01*
X162144190Y-136378904D01*
X162096571Y-136474142D01*
X162048952Y-136521761D01*
X161953714Y-136569380D01*
X161858476Y-136569380D01*
X161763238Y-136521761D01*
X161715619Y-136474142D01*
X161668000Y-136378904D01*
X161620380Y-136188428D01*
X161620380Y-135950333D01*
X161668000Y-135759857D01*
X161715619Y-135664619D01*
X161763238Y-135617000D01*
X161858476Y-135569380D01*
X156215619Y-138179380D02*
X155882285Y-137703190D01*
X155644190Y-138179380D02*
X155644190Y-137179380D01*
X156025142Y-137179380D01*
X156120380Y-137227000D01*
X156168000Y-137274619D01*
X156215619Y-137369857D01*
X156215619Y-137512714D01*
X156168000Y-137607952D01*
X156120380Y-137655571D01*
X156025142Y-137703190D01*
X155644190Y-137703190D01*
X156834666Y-137179380D02*
X156929904Y-137179380D01*
X157025142Y-137227000D01*
X157072761Y-137274619D01*
X157120380Y-137369857D01*
X157168000Y-137560333D01*
X157168000Y-137798428D01*
X157120380Y-137988904D01*
X157072761Y-138084142D01*
X157025142Y-138131761D01*
X156929904Y-138179380D01*
X156834666Y-138179380D01*
X156739428Y-138131761D01*
X156691809Y-138084142D01*
X156644190Y-137988904D01*
X156596571Y-137798428D01*
X156596571Y-137560333D01*
X156644190Y-137369857D01*
X156691809Y-137274619D01*
X156739428Y-137227000D01*
X156834666Y-137179380D01*
X158310857Y-137274619D02*
X158358476Y-137227000D01*
X158453714Y-137179380D01*
X158691809Y-137179380D01*
X158787047Y-137227000D01*
X158834666Y-137274619D01*
X158882285Y-137369857D01*
X158882285Y-137465095D01*
X158834666Y-137607952D01*
X158263238Y-138179380D01*
X158882285Y-138179380D01*
X159501333Y-137179380D02*
X159596571Y-137179380D01*
X159691809Y-137227000D01*
X159739428Y-137274619D01*
X159787047Y-137369857D01*
X159834666Y-137560333D01*
X159834666Y-137798428D01*
X159787047Y-137988904D01*
X159739428Y-138084142D01*
X159691809Y-138131761D01*
X159596571Y-138179380D01*
X159501333Y-138179380D01*
X159406095Y-138131761D01*
X159358476Y-138084142D01*
X159310857Y-137988904D01*
X159263238Y-137798428D01*
X159263238Y-137560333D01*
X159310857Y-137369857D01*
X159358476Y-137274619D01*
X159406095Y-137227000D01*
X159501333Y-137179380D01*
X160215619Y-137274619D02*
X160263238Y-137227000D01*
X160358476Y-137179380D01*
X160596571Y-137179380D01*
X160691809Y-137227000D01*
X160739428Y-137274619D01*
X160787047Y-137369857D01*
X160787047Y-137465095D01*
X160739428Y-137607952D01*
X160168000Y-138179380D01*
X160787047Y-138179380D01*
X161739428Y-138179380D02*
X161168000Y-138179380D01*
X161453714Y-138179380D02*
X161453714Y-137179380D01*
X161358476Y-137322238D01*
X161263238Y-137417476D01*
X161168000Y-137465095D01*
%TO.C,A1*%
X141905714Y-95086666D02*
X142381904Y-95086666D01*
X141810476Y-95372380D02*
X142143809Y-94372380D01*
X142477142Y-95372380D01*
X143334285Y-95372380D02*
X142762857Y-95372380D01*
X143048571Y-95372380D02*
X143048571Y-94372380D01*
X142953333Y-94515238D01*
X142858095Y-94610476D01*
X142762857Y-94658095D01*
%TO.C,J1*%
X124886666Y-75482380D02*
X124886666Y-76196666D01*
X124839047Y-76339523D01*
X124743809Y-76434761D01*
X124600952Y-76482380D01*
X124505714Y-76482380D01*
X125886666Y-76482380D02*
X125315238Y-76482380D01*
X125600952Y-76482380D02*
X125600952Y-75482380D01*
X125505714Y-75625238D01*
X125410476Y-75720476D01*
X125315238Y-75768095D01*
%TO.C,J2*%
X182833380Y-126036333D02*
X183547666Y-126036333D01*
X183690523Y-126083952D01*
X183785761Y-126179190D01*
X183833380Y-126322047D01*
X183833380Y-126417285D01*
X182928619Y-125607761D02*
X182881000Y-125560142D01*
X182833380Y-125464904D01*
X182833380Y-125226809D01*
X182881000Y-125131571D01*
X182928619Y-125083952D01*
X183023857Y-125036333D01*
X183119095Y-125036333D01*
X183261952Y-125083952D01*
X183833380Y-125655380D01*
X183833380Y-125036333D01*
%TO.C,J3*%
X182833380Y-82602333D02*
X183547666Y-82602333D01*
X183690523Y-82649952D01*
X183785761Y-82745190D01*
X183833380Y-82888047D01*
X183833380Y-82983285D01*
X182833380Y-82221380D02*
X182833380Y-81602333D01*
X183214333Y-81935666D01*
X183214333Y-81792809D01*
X183261952Y-81697571D01*
X183309571Y-81649952D01*
X183404809Y-81602333D01*
X183642904Y-81602333D01*
X183738142Y-81649952D01*
X183785761Y-81697571D01*
X183833380Y-81792809D01*
X183833380Y-82078523D01*
X183785761Y-82173761D01*
X183738142Y-82221380D01*
%TO.C,J4*%
X183087380Y-105716333D02*
X183801666Y-105716333D01*
X183944523Y-105763952D01*
X184039761Y-105859190D01*
X184087380Y-106002047D01*
X184087380Y-106097285D01*
X183420714Y-104811571D02*
X184087380Y-104811571D01*
X183039761Y-105049666D02*
X183754047Y-105287761D01*
X183754047Y-104668714D01*
%TO.C,J5*%
X183214380Y-59361333D02*
X183928666Y-59361333D01*
X184071523Y-59408952D01*
X184166761Y-59504190D01*
X184214380Y-59647047D01*
X184214380Y-59742285D01*
X183214380Y-58408952D02*
X183214380Y-58885142D01*
X183690571Y-58932761D01*
X183642952Y-58885142D01*
X183595333Y-58789904D01*
X183595333Y-58551809D01*
X183642952Y-58456571D01*
X183690571Y-58408952D01*
X183785809Y-58361333D01*
X184023904Y-58361333D01*
X184119142Y-58408952D01*
X184166761Y-58456571D01*
X184214380Y-58551809D01*
X184214380Y-58789904D01*
X184166761Y-58885142D01*
X184119142Y-58932761D01*
D12*
%TO.C,A1*%
X148970000Y-98730000D02*
X151640000Y-98730000D01*
X151640000Y-96060000D02*
X133600000Y-96060000D01*
X133600000Y-139500000D02*
X151640000Y-139500000D01*
X136270000Y-98730000D02*
X133600000Y-98730000D01*
X136270000Y-101270000D02*
X133600000Y-101270000D01*
X148970000Y-136830000D02*
X151640000Y-136830000D01*
X136270000Y-101270000D02*
X136270000Y-98730000D01*
X136270000Y-136830000D02*
X133600000Y-136830000D01*
X133600000Y-101270000D02*
X133600000Y-139500000D01*
X133600000Y-96060000D02*
X133600000Y-98730000D01*
X151640000Y-139500000D02*
X151640000Y-96060000D01*
X148970000Y-98730000D02*
X148970000Y-136830000D01*
X136270000Y-101270000D02*
X136270000Y-136830000D01*
%TO.C,J1*%
X119510000Y-79125235D02*
X128140000Y-79125235D01*
X119510000Y-87690000D02*
X128140000Y-87690000D01*
X119510000Y-77944285D02*
X128140000Y-77944285D01*
X128140000Y-101300000D02*
X128550000Y-101300000D01*
X119510000Y-79243330D02*
X128140000Y-79243330D01*
X129600000Y-77470000D02*
X130710000Y-77470000D01*
X128140000Y-94400000D02*
X128550000Y-94400000D01*
X128140000Y-102020000D02*
X128550000Y-102020000D01*
X128140000Y-93680000D02*
X128550000Y-93680000D01*
X128140000Y-77470000D02*
X128140000Y-102990000D01*
X128140000Y-86060000D02*
X128550000Y-86060000D01*
X119510000Y-78416665D02*
X128140000Y-78416665D01*
X119510000Y-78889045D02*
X128140000Y-78889045D01*
X119510000Y-79833805D02*
X128140000Y-79833805D01*
X119510000Y-79597615D02*
X128140000Y-79597615D01*
X119510000Y-80070000D02*
X128140000Y-80070000D01*
X119510000Y-77470000D02*
X119510000Y-102990000D01*
X128140000Y-91860000D02*
X128550000Y-91860000D01*
X130710000Y-77470000D02*
X130710000Y-78800000D01*
X119510000Y-78180475D02*
X128140000Y-78180475D01*
X119510000Y-77470000D02*
X128140000Y-77470000D01*
X119510000Y-77826190D02*
X128140000Y-77826190D01*
X128140000Y-88600000D02*
X128550000Y-88600000D01*
X119510000Y-97850000D02*
X128140000Y-97850000D01*
X128140000Y-98760000D02*
X128550000Y-98760000D01*
X119510000Y-79479520D02*
X128140000Y-79479520D01*
X128140000Y-79160000D02*
X128490000Y-79160000D01*
X128140000Y-81700000D02*
X128550000Y-81700000D01*
X119510000Y-77708095D02*
X128140000Y-77708095D01*
X128140000Y-86780000D02*
X128550000Y-86780000D01*
X128140000Y-78440000D02*
X128490000Y-78440000D01*
X119510000Y-78534760D02*
X128140000Y-78534760D01*
X119510000Y-100390000D02*
X128140000Y-100390000D01*
X128140000Y-91140000D02*
X128550000Y-91140000D01*
X119510000Y-90230000D02*
X128140000Y-90230000D01*
X119510000Y-82610000D02*
X128140000Y-82610000D01*
X119510000Y-79715710D02*
X128140000Y-79715710D01*
X119510000Y-85150000D02*
X128140000Y-85150000D01*
X119510000Y-78770950D02*
X128140000Y-78770950D01*
X119510000Y-95310000D02*
X128140000Y-95310000D01*
X119510000Y-78652855D02*
X128140000Y-78652855D01*
X128140000Y-89320000D02*
X128550000Y-89320000D01*
X128140000Y-83520000D02*
X128550000Y-83520000D01*
X128140000Y-96220000D02*
X128550000Y-96220000D01*
X119510000Y-79007140D02*
X128140000Y-79007140D01*
X128140000Y-99480000D02*
X128550000Y-99480000D01*
X128140000Y-80980000D02*
X128550000Y-80980000D01*
X119510000Y-79361425D02*
X128140000Y-79361425D01*
X119510000Y-102990000D02*
X128140000Y-102990000D01*
X128140000Y-96940000D02*
X128550000Y-96940000D01*
X119510000Y-77590000D02*
X128140000Y-77590000D01*
X119510000Y-78062380D02*
X128140000Y-78062380D01*
X119510000Y-92770000D02*
X128140000Y-92770000D01*
X119510000Y-78298570D02*
X128140000Y-78298570D01*
X119510000Y-79951900D02*
X128140000Y-79951900D01*
X128140000Y-84240000D02*
X128550000Y-84240000D01*
%TO.C,Logo1*%
G36*
X168875814Y-133458931D02*
G01*
X168959635Y-133903555D01*
X169268920Y-134031053D01*
X169578206Y-134158551D01*
X169949246Y-133906246D01*
X170053157Y-133835996D01*
X170147087Y-133773272D01*
X170226652Y-133720938D01*
X170287470Y-133681857D01*
X170325157Y-133658893D01*
X170335421Y-133653942D01*
X170353910Y-133666676D01*
X170393420Y-133701882D01*
X170449522Y-133755062D01*
X170517787Y-133821718D01*
X170593786Y-133897354D01*
X170673092Y-133977472D01*
X170751275Y-134057574D01*
X170823907Y-134133164D01*
X170886559Y-134199745D01*
X170934803Y-134252818D01*
X170964210Y-134287887D01*
X170971241Y-134299623D01*
X170961123Y-134321260D01*
X170932759Y-134368662D01*
X170889129Y-134437193D01*
X170833218Y-134522215D01*
X170768006Y-134619093D01*
X170730219Y-134674350D01*
X170661343Y-134775248D01*
X170600140Y-134866299D01*
X170549578Y-134942970D01*
X170512628Y-135000728D01*
X170492258Y-135035043D01*
X170489197Y-135042254D01*
X170496136Y-135062748D01*
X170515051Y-135110513D01*
X170543087Y-135178832D01*
X170577391Y-135260989D01*
X170615109Y-135350270D01*
X170653387Y-135439958D01*
X170689370Y-135523338D01*
X170720206Y-135593694D01*
X170743039Y-135644310D01*
X170755017Y-135668471D01*
X170755724Y-135669422D01*
X170774531Y-135674036D01*
X170824618Y-135684328D01*
X170900793Y-135699287D01*
X170997865Y-135717901D01*
X171110643Y-135739159D01*
X171176442Y-135751418D01*
X171296950Y-135774362D01*
X171405797Y-135796195D01*
X171497476Y-135815722D01*
X171566481Y-135831748D01*
X171607304Y-135843079D01*
X171615511Y-135846674D01*
X171623548Y-135871006D01*
X171630033Y-135925959D01*
X171634970Y-136005108D01*
X171638364Y-136102026D01*
X171640218Y-136210287D01*
X171640538Y-136323465D01*
X171639327Y-136435135D01*
X171636590Y-136538868D01*
X171632331Y-136628241D01*
X171626555Y-136696826D01*
X171619267Y-136738197D01*
X171614895Y-136746810D01*
X171588764Y-136757133D01*
X171533393Y-136771892D01*
X171456107Y-136789352D01*
X171364230Y-136807780D01*
X171332158Y-136813741D01*
X171177524Y-136842066D01*
X171055375Y-136864876D01*
X170961673Y-136883080D01*
X170892384Y-136897583D01*
X170843471Y-136909292D01*
X170810897Y-136919115D01*
X170790628Y-136927956D01*
X170778626Y-136936724D01*
X170776947Y-136938457D01*
X170760184Y-136966371D01*
X170734614Y-137020695D01*
X170702788Y-137094777D01*
X170667260Y-137181965D01*
X170630583Y-137275608D01*
X170595311Y-137369052D01*
X170563996Y-137455647D01*
X170539193Y-137528740D01*
X170523454Y-137581678D01*
X170519332Y-137607811D01*
X170519676Y-137608726D01*
X170533641Y-137630086D01*
X170565322Y-137677084D01*
X170611391Y-137744827D01*
X170668518Y-137828423D01*
X170733373Y-137922982D01*
X170751843Y-137949854D01*
X170817699Y-138047275D01*
X170875650Y-138136163D01*
X170922538Y-138211412D01*
X170955207Y-138267920D01*
X170970500Y-138300581D01*
X170971241Y-138304593D01*
X170958392Y-138325684D01*
X170922888Y-138367464D01*
X170869293Y-138425445D01*
X170802171Y-138495135D01*
X170726087Y-138572045D01*
X170645604Y-138651683D01*
X170565287Y-138729561D01*
X170489699Y-138801186D01*
X170423405Y-138862070D01*
X170370969Y-138907721D01*
X170336955Y-138933650D01*
X170327545Y-138937883D01*
X170305643Y-138927912D01*
X170260800Y-138901020D01*
X170200321Y-138861736D01*
X170153789Y-138830117D01*
X170069475Y-138772098D01*
X169969626Y-138703784D01*
X169869473Y-138635579D01*
X169815627Y-138599075D01*
X169633371Y-138475800D01*
X169480381Y-138558520D01*
X169410682Y-138594759D01*
X169351414Y-138622926D01*
X169311311Y-138638991D01*
X169301103Y-138641226D01*
X169288829Y-138624722D01*
X169264613Y-138578082D01*
X169230263Y-138505609D01*
X169187588Y-138411606D01*
X169138394Y-138300374D01*
X169084490Y-138176215D01*
X169027684Y-138043432D01*
X168969782Y-137906327D01*
X168912593Y-137769202D01*
X168857924Y-137636358D01*
X168807584Y-137512098D01*
X168763380Y-137400725D01*
X168727119Y-137306539D01*
X168700609Y-137233844D01*
X168685658Y-137186941D01*
X168683254Y-137170833D01*
X168702311Y-137150286D01*
X168744036Y-137116933D01*
X168799706Y-137077702D01*
X168804378Y-137074599D01*
X168948264Y-136959423D01*
X169064283Y-136825053D01*
X169151430Y-136675784D01*
X169208699Y-136515913D01*
X169235086Y-136349737D01*
X169229585Y-136181552D01*
X169191190Y-136015655D01*
X169118895Y-135856342D01*
X169097626Y-135821487D01*
X168986996Y-135680737D01*
X168856302Y-135567714D01*
X168710064Y-135483003D01*
X168552808Y-135427194D01*
X168389057Y-135400874D01*
X168223333Y-135404630D01*
X168060162Y-135439050D01*
X167904065Y-135504723D01*
X167759567Y-135602235D01*
X167714869Y-135641813D01*
X167601112Y-135765703D01*
X167518218Y-135896124D01*
X167461356Y-136042315D01*
X167429687Y-136187088D01*
X167421869Y-136349860D01*
X167447938Y-136513440D01*
X167505245Y-136672298D01*
X167591144Y-136820906D01*
X167702986Y-136953735D01*
X167838123Y-137065256D01*
X167855883Y-137077011D01*
X167912150Y-137115508D01*
X167954923Y-137148863D01*
X167975372Y-137170160D01*
X167975669Y-137170833D01*
X167971279Y-137193871D01*
X167953876Y-137246157D01*
X167925268Y-137323390D01*
X167887265Y-137421268D01*
X167841674Y-137535491D01*
X167790303Y-137661758D01*
X167734962Y-137795767D01*
X167677458Y-137933218D01*
X167619601Y-138069808D01*
X167563198Y-138201237D01*
X167510058Y-138323205D01*
X167461990Y-138431409D01*
X167420801Y-138521549D01*
X167388301Y-138589323D01*
X167366297Y-138630430D01*
X167357436Y-138641226D01*
X167330360Y-138632819D01*
X167279697Y-138610272D01*
X167214183Y-138577613D01*
X167178159Y-138558520D01*
X167025168Y-138475800D01*
X166842912Y-138599075D01*
X166749875Y-138662228D01*
X166648015Y-138731727D01*
X166552562Y-138797165D01*
X166504750Y-138830117D01*
X166437505Y-138875273D01*
X166380564Y-138911057D01*
X166341354Y-138932938D01*
X166328619Y-138937563D01*
X166310083Y-138925085D01*
X166269059Y-138890252D01*
X166209525Y-138836678D01*
X166135458Y-138767983D01*
X166050835Y-138687781D01*
X165997315Y-138636286D01*
X165903681Y-138544286D01*
X165822759Y-138461999D01*
X165757823Y-138392945D01*
X165712142Y-138340644D01*
X165688989Y-138308616D01*
X165686768Y-138302116D01*
X165697076Y-138277394D01*
X165725561Y-138227405D01*
X165769063Y-138157212D01*
X165824423Y-138071875D01*
X165888480Y-137976456D01*
X165906697Y-137949854D01*
X165973073Y-137853167D01*
X166032622Y-137766117D01*
X166082016Y-137693595D01*
X166117925Y-137640493D01*
X166137019Y-137611703D01*
X166138864Y-137608726D01*
X166136105Y-137585782D01*
X166121462Y-137535336D01*
X166097487Y-137464041D01*
X166066734Y-137378547D01*
X166031756Y-137285507D01*
X165995107Y-137191574D01*
X165959339Y-137103399D01*
X165927006Y-137027634D01*
X165900662Y-136970931D01*
X165882858Y-136939943D01*
X165881593Y-136938457D01*
X165870706Y-136929601D01*
X165852318Y-136920843D01*
X165822394Y-136911277D01*
X165776897Y-136899996D01*
X165711791Y-136886093D01*
X165623039Y-136868663D01*
X165506607Y-136846798D01*
X165358458Y-136819591D01*
X165326382Y-136813741D01*
X165231314Y-136795374D01*
X165148435Y-136777405D01*
X165085070Y-136761569D01*
X165048542Y-136749600D01*
X165043644Y-136746810D01*
X165035573Y-136722072D01*
X165029013Y-136666790D01*
X165023967Y-136587389D01*
X165020441Y-136490296D01*
X165018439Y-136381938D01*
X165017964Y-136268740D01*
X165019023Y-136157128D01*
X165021618Y-136053529D01*
X165025754Y-135964368D01*
X165031437Y-135896072D01*
X165038669Y-135855066D01*
X165043029Y-135846674D01*
X165067302Y-135838208D01*
X165122574Y-135824435D01*
X165203338Y-135806550D01*
X165304088Y-135785748D01*
X165419317Y-135763223D01*
X165482098Y-135751418D01*
X165601213Y-135729151D01*
X165707435Y-135708979D01*
X165795573Y-135691915D01*
X165860434Y-135678969D01*
X165896826Y-135671155D01*
X165902816Y-135669422D01*
X165912939Y-135649890D01*
X165934338Y-135602843D01*
X165964161Y-135535003D01*
X165999555Y-135453091D01*
X166037668Y-135363828D01*
X166075647Y-135273935D01*
X166110640Y-135190135D01*
X166139794Y-135119147D01*
X166160257Y-135067694D01*
X166169177Y-135042497D01*
X166169343Y-135041396D01*
X166159231Y-135021519D01*
X166130883Y-134975777D01*
X166087277Y-134908717D01*
X166031394Y-134824884D01*
X165966213Y-134728826D01*
X165928321Y-134673650D01*
X165859275Y-134572481D01*
X165797950Y-134480630D01*
X165747337Y-134402744D01*
X165710429Y-134343469D01*
X165690218Y-134307451D01*
X165687299Y-134299377D01*
X165699847Y-134280584D01*
X165734537Y-134240457D01*
X165786937Y-134183493D01*
X165852616Y-134114185D01*
X165927144Y-134037031D01*
X166006087Y-133956525D01*
X166085017Y-133877163D01*
X166159500Y-133803440D01*
X166225106Y-133739852D01*
X166277404Y-133690894D01*
X166311961Y-133661061D01*
X166323522Y-133653942D01*
X166342346Y-133663953D01*
X166387369Y-133692078D01*
X166454213Y-133735454D01*
X166538501Y-133791218D01*
X166635856Y-133856506D01*
X166709293Y-133906246D01*
X167080333Y-134158551D01*
X167698905Y-133903555D01*
X167782725Y-133458931D01*
X167866546Y-133014307D01*
X168791994Y-133014307D01*
X168875814Y-133458931D01*
G37*
D13*
X168875814Y-133458931D02*
X168959635Y-133903555D01*
X169268920Y-134031053D01*
X169578206Y-134158551D01*
X169949246Y-133906246D01*
X170053157Y-133835996D01*
X170147087Y-133773272D01*
X170226652Y-133720938D01*
X170287470Y-133681857D01*
X170325157Y-133658893D01*
X170335421Y-133653942D01*
X170353910Y-133666676D01*
X170393420Y-133701882D01*
X170449522Y-133755062D01*
X170517787Y-133821718D01*
X170593786Y-133897354D01*
X170673092Y-133977472D01*
X170751275Y-134057574D01*
X170823907Y-134133164D01*
X170886559Y-134199745D01*
X170934803Y-134252818D01*
X170964210Y-134287887D01*
X170971241Y-134299623D01*
X170961123Y-134321260D01*
X170932759Y-134368662D01*
X170889129Y-134437193D01*
X170833218Y-134522215D01*
X170768006Y-134619093D01*
X170730219Y-134674350D01*
X170661343Y-134775248D01*
X170600140Y-134866299D01*
X170549578Y-134942970D01*
X170512628Y-135000728D01*
X170492258Y-135035043D01*
X170489197Y-135042254D01*
X170496136Y-135062748D01*
X170515051Y-135110513D01*
X170543087Y-135178832D01*
X170577391Y-135260989D01*
X170615109Y-135350270D01*
X170653387Y-135439958D01*
X170689370Y-135523338D01*
X170720206Y-135593694D01*
X170743039Y-135644310D01*
X170755017Y-135668471D01*
X170755724Y-135669422D01*
X170774531Y-135674036D01*
X170824618Y-135684328D01*
X170900793Y-135699287D01*
X170997865Y-135717901D01*
X171110643Y-135739159D01*
X171176442Y-135751418D01*
X171296950Y-135774362D01*
X171405797Y-135796195D01*
X171497476Y-135815722D01*
X171566481Y-135831748D01*
X171607304Y-135843079D01*
X171615511Y-135846674D01*
X171623548Y-135871006D01*
X171630033Y-135925959D01*
X171634970Y-136005108D01*
X171638364Y-136102026D01*
X171640218Y-136210287D01*
X171640538Y-136323465D01*
X171639327Y-136435135D01*
X171636590Y-136538868D01*
X171632331Y-136628241D01*
X171626555Y-136696826D01*
X171619267Y-136738197D01*
X171614895Y-136746810D01*
X171588764Y-136757133D01*
X171533393Y-136771892D01*
X171456107Y-136789352D01*
X171364230Y-136807780D01*
X171332158Y-136813741D01*
X171177524Y-136842066D01*
X171055375Y-136864876D01*
X170961673Y-136883080D01*
X170892384Y-136897583D01*
X170843471Y-136909292D01*
X170810897Y-136919115D01*
X170790628Y-136927956D01*
X170778626Y-136936724D01*
X170776947Y-136938457D01*
X170760184Y-136966371D01*
X170734614Y-137020695D01*
X170702788Y-137094777D01*
X170667260Y-137181965D01*
X170630583Y-137275608D01*
X170595311Y-137369052D01*
X170563996Y-137455647D01*
X170539193Y-137528740D01*
X170523454Y-137581678D01*
X170519332Y-137607811D01*
X170519676Y-137608726D01*
X170533641Y-137630086D01*
X170565322Y-137677084D01*
X170611391Y-137744827D01*
X170668518Y-137828423D01*
X170733373Y-137922982D01*
X170751843Y-137949854D01*
X170817699Y-138047275D01*
X170875650Y-138136163D01*
X170922538Y-138211412D01*
X170955207Y-138267920D01*
X170970500Y-138300581D01*
X170971241Y-138304593D01*
X170958392Y-138325684D01*
X170922888Y-138367464D01*
X170869293Y-138425445D01*
X170802171Y-138495135D01*
X170726087Y-138572045D01*
X170645604Y-138651683D01*
X170565287Y-138729561D01*
X170489699Y-138801186D01*
X170423405Y-138862070D01*
X170370969Y-138907721D01*
X170336955Y-138933650D01*
X170327545Y-138937883D01*
X170305643Y-138927912D01*
X170260800Y-138901020D01*
X170200321Y-138861736D01*
X170153789Y-138830117D01*
X170069475Y-138772098D01*
X169969626Y-138703784D01*
X169869473Y-138635579D01*
X169815627Y-138599075D01*
X169633371Y-138475800D01*
X169480381Y-138558520D01*
X169410682Y-138594759D01*
X169351414Y-138622926D01*
X169311311Y-138638991D01*
X169301103Y-138641226D01*
X169288829Y-138624722D01*
X169264613Y-138578082D01*
X169230263Y-138505609D01*
X169187588Y-138411606D01*
X169138394Y-138300374D01*
X169084490Y-138176215D01*
X169027684Y-138043432D01*
X168969782Y-137906327D01*
X168912593Y-137769202D01*
X168857924Y-137636358D01*
X168807584Y-137512098D01*
X168763380Y-137400725D01*
X168727119Y-137306539D01*
X168700609Y-137233844D01*
X168685658Y-137186941D01*
X168683254Y-137170833D01*
X168702311Y-137150286D01*
X168744036Y-137116933D01*
X168799706Y-137077702D01*
X168804378Y-137074599D01*
X168948264Y-136959423D01*
X169064283Y-136825053D01*
X169151430Y-136675784D01*
X169208699Y-136515913D01*
X169235086Y-136349737D01*
X169229585Y-136181552D01*
X169191190Y-136015655D01*
X169118895Y-135856342D01*
X169097626Y-135821487D01*
X168986996Y-135680737D01*
X168856302Y-135567714D01*
X168710064Y-135483003D01*
X168552808Y-135427194D01*
X168389057Y-135400874D01*
X168223333Y-135404630D01*
X168060162Y-135439050D01*
X167904065Y-135504723D01*
X167759567Y-135602235D01*
X167714869Y-135641813D01*
X167601112Y-135765703D01*
X167518218Y-135896124D01*
X167461356Y-136042315D01*
X167429687Y-136187088D01*
X167421869Y-136349860D01*
X167447938Y-136513440D01*
X167505245Y-136672298D01*
X167591144Y-136820906D01*
X167702986Y-136953735D01*
X167838123Y-137065256D01*
X167855883Y-137077011D01*
X167912150Y-137115508D01*
X167954923Y-137148863D01*
X167975372Y-137170160D01*
X167975669Y-137170833D01*
X167971279Y-137193871D01*
X167953876Y-137246157D01*
X167925268Y-137323390D01*
X167887265Y-137421268D01*
X167841674Y-137535491D01*
X167790303Y-137661758D01*
X167734962Y-137795767D01*
X167677458Y-137933218D01*
X167619601Y-138069808D01*
X167563198Y-138201237D01*
X167510058Y-138323205D01*
X167461990Y-138431409D01*
X167420801Y-138521549D01*
X167388301Y-138589323D01*
X167366297Y-138630430D01*
X167357436Y-138641226D01*
X167330360Y-138632819D01*
X167279697Y-138610272D01*
X167214183Y-138577613D01*
X167178159Y-138558520D01*
X167025168Y-138475800D01*
X166842912Y-138599075D01*
X166749875Y-138662228D01*
X166648015Y-138731727D01*
X166552562Y-138797165D01*
X166504750Y-138830117D01*
X166437505Y-138875273D01*
X166380564Y-138911057D01*
X166341354Y-138932938D01*
X166328619Y-138937563D01*
X166310083Y-138925085D01*
X166269059Y-138890252D01*
X166209525Y-138836678D01*
X166135458Y-138767983D01*
X166050835Y-138687781D01*
X165997315Y-138636286D01*
X165903681Y-138544286D01*
X165822759Y-138461999D01*
X165757823Y-138392945D01*
X165712142Y-138340644D01*
X165688989Y-138308616D01*
X165686768Y-138302116D01*
X165697076Y-138277394D01*
X165725561Y-138227405D01*
X165769063Y-138157212D01*
X165824423Y-138071875D01*
X165888480Y-137976456D01*
X165906697Y-137949854D01*
X165973073Y-137853167D01*
X166032622Y-137766117D01*
X166082016Y-137693595D01*
X166117925Y-137640493D01*
X166137019Y-137611703D01*
X166138864Y-137608726D01*
X166136105Y-137585782D01*
X166121462Y-137535336D01*
X166097487Y-137464041D01*
X166066734Y-137378547D01*
X166031756Y-137285507D01*
X165995107Y-137191574D01*
X165959339Y-137103399D01*
X165927006Y-137027634D01*
X165900662Y-136970931D01*
X165882858Y-136939943D01*
X165881593Y-136938457D01*
X165870706Y-136929601D01*
X165852318Y-136920843D01*
X165822394Y-136911277D01*
X165776897Y-136899996D01*
X165711791Y-136886093D01*
X165623039Y-136868663D01*
X165506607Y-136846798D01*
X165358458Y-136819591D01*
X165326382Y-136813741D01*
X165231314Y-136795374D01*
X165148435Y-136777405D01*
X165085070Y-136761569D01*
X165048542Y-136749600D01*
X165043644Y-136746810D01*
X165035573Y-136722072D01*
X165029013Y-136666790D01*
X165023967Y-136587389D01*
X165020441Y-136490296D01*
X165018439Y-136381938D01*
X165017964Y-136268740D01*
X165019023Y-136157128D01*
X165021618Y-136053529D01*
X165025754Y-135964368D01*
X165031437Y-135896072D01*
X165038669Y-135855066D01*
X165043029Y-135846674D01*
X165067302Y-135838208D01*
X165122574Y-135824435D01*
X165203338Y-135806550D01*
X165304088Y-135785748D01*
X165419317Y-135763223D01*
X165482098Y-135751418D01*
X165601213Y-135729151D01*
X165707435Y-135708979D01*
X165795573Y-135691915D01*
X165860434Y-135678969D01*
X165896826Y-135671155D01*
X165902816Y-135669422D01*
X165912939Y-135649890D01*
X165934338Y-135602843D01*
X165964161Y-135535003D01*
X165999555Y-135453091D01*
X166037668Y-135363828D01*
X166075647Y-135273935D01*
X166110640Y-135190135D01*
X166139794Y-135119147D01*
X166160257Y-135067694D01*
X166169177Y-135042497D01*
X166169343Y-135041396D01*
X166159231Y-135021519D01*
X166130883Y-134975777D01*
X166087277Y-134908717D01*
X166031394Y-134824884D01*
X165966213Y-134728826D01*
X165928321Y-134673650D01*
X165859275Y-134572481D01*
X165797950Y-134480630D01*
X165747337Y-134402744D01*
X165710429Y-134343469D01*
X165690218Y-134307451D01*
X165687299Y-134299377D01*
X165699847Y-134280584D01*
X165734537Y-134240457D01*
X165786937Y-134183493D01*
X165852616Y-134114185D01*
X165927144Y-134037031D01*
X166006087Y-133956525D01*
X166085017Y-133877163D01*
X166159500Y-133803440D01*
X166225106Y-133739852D01*
X166277404Y-133690894D01*
X166311961Y-133661061D01*
X166323522Y-133653942D01*
X166342346Y-133663953D01*
X166387369Y-133692078D01*
X166454213Y-133735454D01*
X166538501Y-133791218D01*
X166635856Y-133856506D01*
X166709293Y-133906246D01*
X167080333Y-134158551D01*
X167698905Y-133903555D01*
X167782725Y-133458931D01*
X167866546Y-133014307D01*
X168791994Y-133014307D01*
X168875814Y-133458931D01*
D12*
%TO.C,J2*%
X184381000Y-128593000D02*
X191121000Y-128593000D01*
X190601000Y-128593000D02*
X190601000Y-122813000D01*
X184381000Y-122813000D02*
X191121000Y-122813000D01*
X185501000Y-128593000D02*
X185501000Y-122813000D01*
X190721000Y-128833000D02*
X191361000Y-128833000D01*
X184381000Y-128593000D02*
X184381000Y-122813000D01*
X191121000Y-128593000D02*
X191121000Y-122813000D01*
X191361000Y-128833000D02*
X191361000Y-128433000D01*
%TO.C,J3*%
X184381000Y-85159000D02*
X184381000Y-79379000D01*
X190601000Y-85159000D02*
X190601000Y-79379000D01*
X191121000Y-85159000D02*
X191121000Y-79379000D01*
X185501000Y-85159000D02*
X185501000Y-79379000D01*
X184381000Y-85159000D02*
X191121000Y-85159000D01*
X190721000Y-85399000D02*
X191361000Y-85399000D01*
X191361000Y-85399000D02*
X191361000Y-84999000D01*
X184381000Y-79379000D02*
X191121000Y-79379000D01*
%TO.C,J4*%
X184635000Y-108273000D02*
X184635000Y-102493000D01*
X184635000Y-108273000D02*
X191375000Y-108273000D01*
X191375000Y-108273000D02*
X191375000Y-102493000D01*
X184635000Y-102493000D02*
X191375000Y-102493000D01*
X185755000Y-108273000D02*
X185755000Y-102493000D01*
X191615000Y-108513000D02*
X191615000Y-108113000D01*
X190855000Y-108273000D02*
X190855000Y-102493000D01*
X190975000Y-108513000D02*
X191615000Y-108513000D01*
%TO.C,J5*%
X190982000Y-61918000D02*
X190982000Y-56138000D01*
X191742000Y-62158000D02*
X191742000Y-61758000D01*
X184762000Y-61918000D02*
X184762000Y-56138000D01*
X184762000Y-61918000D02*
X191502000Y-61918000D01*
X191502000Y-61918000D02*
X191502000Y-56138000D01*
X184762000Y-56138000D02*
X191502000Y-56138000D01*
X185882000Y-61918000D02*
X185882000Y-56138000D01*
X191102000Y-62158000D02*
X191742000Y-62158000D01*
%TD*%
M02*
