M48
; DRILL file {KiCad (6.0.4)} date Mon Jul 24 12:57:39 2023
; FORMAT={-:-/ absolute / inch / decimal}
; #@! TF.CreationDate,2023-07-24T12:57:39-04:00
; #@! TF.GenerationSoftware,Kicad,Pcbnew,(6.0.4)
; #@! TF.FileFunction,Plated,1,2,PTH
FMAT,2
INCH
; #@! TA.AperFunction,Plated,PTH,ComponentDrill
T1C0.0394
; #@! TA.AperFunction,Plated,PTH,ComponentDrill
T2C0.0433
; #@! TA.AperFunction,Plated,PTH,ComponentDrill
T3C0.1260
%
G90
G05
T1
X5.1024Y-3.1024
X5.1024Y-3.2024
X5.1024Y-3.3024
X5.1024Y-3.4024
X5.1024Y-3.5024
X5.1024Y-3.6024
X5.1024Y-3.7024
X5.1024Y-3.8024
X5.1024Y-3.9024
X5.1024Y-4.0024
X5.315Y-3.937
X5.315Y-4.037
X5.315Y-4.137
X5.315Y-4.237
X5.315Y-4.337
X5.315Y-4.437
X5.315Y-4.537
X5.315Y-4.637
X5.315Y-4.737
X5.315Y-4.837
X5.315Y-4.937
X5.315Y-5.037
X5.315Y-5.137
X5.315Y-5.237
X5.315Y-5.337
X5.915Y-3.937
X5.915Y-4.037
X5.915Y-4.137
X5.915Y-4.237
X5.915Y-4.337
X5.915Y-4.437
X5.915Y-4.537
X5.915Y-4.637
X5.915Y-4.737
X5.915Y-4.837
X5.915Y-4.937
X5.915Y-5.037
X5.915Y-5.137
X5.915Y-5.237
X5.915Y-5.337
T2
X7.3918Y-3.1889
X7.3918Y-3.2889
X7.3918Y-4.8989
X7.3918Y-4.9989
X7.4018Y-4.0989
X7.4018Y-4.1989
X7.4068Y-2.2739
X7.4068Y-2.3739
T3
X5.0236Y-1.7638
X5.0236Y-5.3071
X7.3858Y-1.7638
X7.3858Y-5.3071
T0
M30
